<?xml version="1.0" encoding="UTF-8" standalone="no"?>
<!-- Created with Inkscape (http://www.inkscape.org/) -->

<svg
   width="160.52986mm"
   height="40.75864mm"
   viewBox="0 0 160.52986 40.75864"
   version="1.1"
   id="svg5"
   inkscape:version="1.1.2 (b8e25be833, 2022-02-05)"
   sodipodi:docname="bingotop.svg"
   xmlns:inkscape="http://www.inkscape.org/namespaces/inkscape"
   xmlns:sodipodi="http://sodipodi.sourceforge.net/DTD/sodipodi-0.dtd"
   xmlns="http://www.w3.org/2000/svg"
   xmlns:svg="http://www.w3.org/2000/svg">
  <sodipodi:namedview
     id="namedview7"
     pagecolor="#ffffff"
     bordercolor="#666666"
     borderopacity="1.0"
     inkscape:pageshadow="2"
     inkscape:pageopacity="0.0"
     inkscape:pagecheckerboard="0"
     inkscape:document-units="mm"
     showgrid="false"
     inkscape:zoom="1.0179639"
     inkscape:cx="419.95595"
     inkscape:cy="116.40884"
     inkscape:window-width="1920"
     inkscape:window-height="1001"
     inkscape:window-x="-9"
     inkscape:window-y="-9"
     inkscape:window-maximized="1"
     inkscape:current-layer="layer1"
     fit-margin-top="0"
     fit-margin-left="0"
     fit-margin-right="0"
     fit-margin-bottom="0" />
  <defs
     id="defs2">
    <rect
       x="20.629414"
       y="9.8235312"
       width="550.11774"
       height="111.98825"
       id="rect4916" />
    <rect
       x="20.629414"
       y="9.8235312"
       width="550.11774"
       height="111.98825"
       id="rect4916-0" />
  </defs>
  <g
     inkscape:label="Layer 1"
     inkscape:groupmode="layer"
     id="layer1"
     transform="translate(0,0.08723712)">
    <path
       style="fill:#0ab2dc;fill-opacity:1;stroke:none;stroke-width:0.264583px;stroke-linecap:butt;stroke-linejoin:miter;stroke-opacity:1"
       d="M -0.52916667,-0.34537954 V 40.822937 H 120.95057 l 23.40519,-41.43934083 z"
       id="path898"
       sodipodi:nodetypes="ccccc" />
    <path
       style="fill:#0ab2dc;fill-opacity:1;stroke:none;stroke-width:0.264583px;stroke-linecap:butt;stroke-linejoin:miter;stroke-opacity:1"
       d="M 151.88136,-0.20986754 127.98903,41.142236 h 8.45422 l 23.55744,-41.43934041 z"
       id="path898-4"
       sodipodi:nodetypes="ccccc" />
    <g
       aria-label="GRADUATION"
       transform="matrix(0.26458333,0,0,0.26458333,5.1889469,2.5898044)"
       id="text4914"
       style="font-size:26.6667px;line-height:1.25;letter-spacing:20px;white-space:pre;shape-inside:url(#rect4916)">
      <path
         d="m 41.436224,18.096719 -1.484377,1.406252 q -1.601564,-1.575523 -3.515629,-2.382816 -1.901044,-0.820313 -3.710942,-0.820313 -2.252607,0 -4.296881,1.106772 -2.031252,1.106772 -3.151045,3.007816 -1.119793,1.888023 -1.119793,3.997401 0,2.161461 1.158855,4.114589 1.158856,1.940106 3.203129,3.059899 2.044274,1.106773 4.479173,1.106773 2.955732,0 5.000006,-1.666669 2.044273,-1.666669 2.421878,-4.322922 H 34.313819 V 24.85454 h 8.255219 q -0.02604,4.44011 -2.643232,7.057301 -2.60417,2.60417 -6.979176,2.60417 -5.312507,0 -8.411469,-3.619797 -2.382815,-2.786462 -2.382815,-6.44532 0,-2.721358 1.367189,-5.065111 1.367189,-2.343753 3.750005,-3.658859 2.382815,-1.328126 5.390631,-1.328126 2.434899,0 4.58334,0.885417 2.14844,0.872397 4.192713,2.812504 z"
         style="font-family:'Century Gothic';-inkscape-font-specification:'Century Gothic';fill:#ffffff"
         id="path24296" />
      <path
         d="m 66.319043,14.880569 h 3.815109 q 3.190108,0 4.322922,0.260417 1.705731,0.390626 2.773441,1.67969 1.06771,1.276043 1.06771,3.151045 0,1.562502 -0.742189,2.7474 -0.729167,1.184897 -2.096357,1.796877 -1.367189,0.598959 -3.776046,0.61198 l 6.888029,8.906261 h -2.369794 l -6.875009,-8.906261 h -1.093751 v 8.906261 h -1.914065 z m 1.914065,1.875002 v 6.510425 l 3.294275,0.02604 q 1.914065,0 2.825524,-0.364584 0.92448,-0.364584 1.432294,-1.158855 0.520834,-0.807293 0.520834,-1.796878 0,-0.963543 -0.520834,-1.744793 -0.520834,-0.794272 -1.36719,-1.132814 -0.846355,-0.338543 -2.812503,-0.338543 z"
         style="font-family:'Century Gothic';-inkscape-font-specification:'Century Gothic';fill:#ffffff"
         id="path24298" />
      <path
         d="m 110.22532,14.880569 8.93231,19.15367 h -2.0573 l -3.00781,-6.302091 h -8.25522 l -2.9948,6.302091 h -2.13542 l 9.04949,-19.15367 z m -0.23437,4.062505 -3.29428,6.940113 h 6.54949 z"
         style="font-family:'Century Gothic';-inkscape-font-specification:'Century Gothic';fill:#ffffff"
         id="path24300" />
      <path
         d="m 142.12638,34.034239 v -19.15367 h 3.97136 q 4.29688,0 6.23699,0.690105 2.78646,0.976564 4.34896,3.385421 1.57552,2.408857 1.57552,5.742195 0,2.877608 -1.25,5.06511 -1.23698,2.187503 -3.22917,3.229171 -1.97917,1.041668 -5.5599,1.041668 z m 1.83594,-1.809898 h 2.21354 q 3.97136,0 5.50782,-0.494792 2.16146,-0.703126 3.39844,-2.526045 1.23699,-1.83594 1.23699,-4.479172 0,-2.773441 -1.34115,-4.73959 -1.34115,-1.966148 -3.73699,-2.695316 -1.79687,-0.546875 -5.92448,-0.546875 h -1.35417 z"
         style="font-family:'Century Gothic';-inkscape-font-specification:'Century Gothic';fill:#ffffff"
         id="path24302" />
      <path
         d="m 182.03526,14.880569 h 1.91406 v 11.562515 q 0,2.057294 0.0781,2.565107 0.14323,1.132814 0.66406,1.901044 0.52083,0.755209 1.60156,1.276043 1.08073,0.507814 2.17449,0.507814 0.95052,0 1.82291,-0.403647 0.8724,-0.403646 1.45834,-1.119793 0.58594,-0.716147 0.85938,-1.731773 0.19531,-0.729167 0.19531,-2.994795 V 14.880569 h 1.91406 v 11.562515 q 0,2.565107 -0.50781,4.153651 -0.49479,1.575523 -2.00521,2.747399 -1.4974,1.171877 -3.63282,1.171877 -2.31771,0 -3.97136,-1.106773 -1.65364,-1.106772 -2.21354,-2.929691 -0.35156,-1.119793 -0.35156,-4.036463 z"
         style="font-family:'Century Gothic';-inkscape-font-specification:'Century Gothic';fill:#ffffff"
         id="path24304" />
      <path
         d="m 227.25665,14.880569 8.9323,19.15367 h -2.05729 l -3.00782,-6.302091 h -8.25522 l -2.99479,6.302091 h -2.13542 l 9.04949,-19.15367 z m -0.23437,4.062505 -3.29428,6.940113 h 6.54949 z"
         style="font-family:'Century Gothic';-inkscape-font-specification:'Century Gothic';fill:#ffffff"
         id="path24306" />
      <path
         d="m 257.25665,16.742551 v -1.861982 h 10.50783 v 1.861982 h -4.27084 v 17.291688 h -1.95313 V 16.742551 Z"
         style="font-family:'Century Gothic';-inkscape-font-specification:'Century Gothic';fill:#ffffff"
         id="path24308" />
      <path
         d="m 290.23845,14.880569 h 1.91406 v 19.15367 h -1.91406 z"
         style="font-family:'Century Gothic';-inkscape-font-specification:'Century Gothic';fill:#ffffff"
         id="path24310" />
      <path
         d="m 325.66816,14.398798 q 4.34896,0 7.27865,2.903649 2.92969,2.90365 2.92969,7.148447 0,4.205734 -2.92969,7.135425 -2.91667,2.929692 -7.1224,2.929692 -4.25782,0 -7.18751,-2.916671 -2.92969,-2.91667 -2.92969,-7.0573 0,-2.760421 1.32812,-5.117194 1.34115,-2.356774 3.64584,-3.684901 2.30469,-1.341147 4.98699,-1.341147 z m 0.0911,1.875002 q -2.1224,0 -4.02344,1.106772 -1.90104,1.106773 -2.96875,2.981775 -1.06771,1.875002 -1.06771,4.179693 0,3.411462 2.35677,5.768236 2.36979,2.343753 5.70313,2.343753 2.22657,0 4.11459,-1.08073 1.90104,-1.080731 2.95573,-2.955733 1.06771,-1.875003 1.06771,-4.166672 0,-2.278649 -1.06771,-4.114589 -1.05469,-1.84896 -2.98177,-2.955733 Q 327.92076,16.2738 325.7593,16.2738 Z"
         style="font-family:'Century Gothic';-inkscape-font-specification:'Century Gothic';fill:#ffffff"
         id="path24312" />
      <path
         d="m 359.73065,34.034239 v -19.15367 h 0.41667 l 12.73439,14.661477 V 14.880569 h 1.88803 v 19.15367 h -0.42969 L 361.70982,19.555054 v 14.479185 z"
         style="font-family:'Century Gothic';-inkscape-font-specification:'Century Gothic';fill:#ffffff"
         id="path24314" />
    </g>
    <g
       aria-label="BINGO"
       transform="matrix(0.26458333,0,0,0.26458333,3.1818737,8.373528)"
       id="text4914-4"
       style="font-size:93.3333px;line-height:1.25;letter-spacing:20px;white-space:pre;shape-inside:url(#rect4916-0)">
      <path
         d="m 28.968747,27.521416 h 13.216141 q 7.975257,0 12.25911,1.914062 4.283852,1.868489 6.744789,5.787758 2.506509,3.919269 2.506509,8.704424 0,4.466144 -2.187499,8.157549 -2.187499,3.645832 -6.425779,5.924477 5.240884,1.777343 8.066403,4.192706 2.82552,2.369791 4.374999,5.787758 1.595051,3.372395 1.595051,7.337237 0,8.066403 -5.924477,13.67187 -5.878904,5.559894 -15.813796,5.559894 H 28.968747 Z m 6.562497,6.562497 v 21.464836 h 3.828124 q 6.972653,0 10.253902,-1.276041 3.281249,-1.321614 5.195311,-4.101561 1.914061,-2.82552 1.914061,-6.243487 0,-4.602863 -3.235675,-7.200518 -3.190103,-2.643229 -10.20833,-2.643229 z m 0,28.209625 v 25.703115 h 8.294268 q 7.337237,0 10.755204,-1.41276 3.417968,-1.458332 5.468748,-4.511717 2.096353,-3.053384 2.096353,-6.60807 0,-4.466144 -2.916665,-7.792966 -2.916666,-3.326821 -8.02083,-4.55729 -3.417968,-0.820312 -11.894527,-0.820312 z"
         style="font-family:'Century Gothic';-inkscape-font-specification:'Century Gothic';fill:#ffff00"
         id="path24335" />
      <path
         d="m 101.42316,27.521416 h 6.69922 v 67.037735 h -6.69922 z"
         style="font-family:'Century Gothic';-inkscape-font-specification:'Century Gothic';fill:#ffff00"
         id="path24337" />
      <path
         d="M 143.52601,94.559151 V 27.521416 h 1.45834 L 189.55464,78.8365 V 27.521416 h 6.60807 v 67.037735 h -1.5039 L 150.45309,43.882087 v 50.677064 z"
         style="font-family:'Century Gothic';-inkscape-font-specification:'Century Gothic';fill:#ffff00"
         id="path24339" />
      <path
         d="m 297.19132,38.777922 -5.19531,4.921873 q -5.60546,-5.514321 -12.30468,-8.33984 -6.65364,-2.871093 -12.98828,-2.871093 -7.88411,0 -15.03905,3.873696 -7.10938,3.873697 -11.02865,10.52734 -3.91926,6.60807 -3.91926,13.99088 0,7.565101 4.05598,14.401036 4.05599,6.790362 11.21094,10.709632 7.15494,3.873696 15.67707,3.873696 10.34505,0 17.5,-5.833331 7.15494,-5.833331 8.47656,-15.130203 h -21.37369 v -6.471351 h 28.89321 q -0.0911,15.540358 -9.25129,24.700511 -9.11458,9.11458 -24.42708,9.11458 -18.59374,0 -29.44009,-12.669266 -8.33984,-9.7526 -8.33984,-22.558585 0,-9.524736 4.78515,-17.727858 4.78516,-8.203122 13.125,-12.805985 8.33984,-4.648435 18.86718,-4.648435 8.52213,0 16.04166,3.098957 7.51953,3.053384 14.67447,9.843746 z"
         style="font-family:'Century Gothic';-inkscape-font-specification:'Century Gothic';fill:#ffff00"
         id="path24341" />
      <path
         d="m 365.86318,25.835219 q 15.22135,0 25.47526,10.162756 10.2539,10.162757 10.2539,25.019522 0,14.720046 -10.2539,24.973949 -10.20833,10.253902 -24.92838,10.253902 -14.90234,0 -25.15624,-10.208329 -10.2539,-10.20833 -10.2539,-24.700512 0,-9.661454 4.64843,-17.910149 4.69401,-8.248695 12.76041,-12.897131 8.06641,-4.694008 17.45442,-4.694008 z m 0.31901,6.562497 q -7.42838,0 -14.08202,3.873697 -6.65364,3.873696 -10.39062,10.436194 -3.73698,6.562497 -3.73698,14.6289 0,11.9401 8.24869,20.188795 8.29427,8.203121 19.96093,8.203121 7.79297,0 14.40104,-3.78255 6.65364,-3.782551 10.34505,-10.345048 3.73698,-6.562498 3.73698,-14.583328 0,-7.975257 -3.73698,-14.401036 -3.69141,-6.471352 -10.43619,-10.345048 -6.74479,-3.873697 -14.3099,-3.873697 z"
         style="font-family:'Century Gothic';-inkscape-font-specification:'Century Gothic';fill:#ffff00"
         id="path24343" />
    </g>
  </g>
</svg>
