<?xml version="1.0" encoding="UTF-8" standalone="no"?>
<!-- Created with Inkscape (http://www.inkscape.org/) -->

<svg
   width="210mm"
   height="297mm"
   viewBox="0 0 210 297"
   version="1.1"
   id="svg5"
   sodipodi:docname="waves.svg"
   inkscape:version="1.1.2 (b8e25be833, 2022-02-05)"
   xmlns:inkscape="http://www.inkscape.org/namespaces/inkscape"
   xmlns:sodipodi="http://sodipodi.sourceforge.net/DTD/sodipodi-0.dtd"
   xmlns:xlink="http://www.w3.org/1999/xlink"
   xmlns="http://www.w3.org/2000/svg"
   xmlns:svg="http://www.w3.org/2000/svg">
  <sodipodi:namedview
     id="namedview7"
     pagecolor="#ffffff"
     bordercolor="#666666"
     borderopacity="1.0"
     inkscape:pageshadow="2"
     inkscape:pageopacity="0.0"
     inkscape:pagecheckerboard="0"
     inkscape:document-units="mm"
     showgrid="false"
     inkscape:zoom="1.0179639"
     inkscape:cx="485.77361"
     inkscape:cy="318.77358"
     inkscape:window-width="1920"
     inkscape:window-height="1001"
     inkscape:window-x="-9"
     inkscape:window-y="-9"
     inkscape:window-maximized="1"
     inkscape:current-layer="layer2"
     showborder="true" />
  <defs
     id="defs2">
    <linearGradient
       inkscape:collect="always"
       id="linearGradient10479">
      <stop
         style="stop-color:#fff39d;stop-opacity:1"
         offset="0"
         id="stop10475" />
      <stop
         style="stop-color:#ff965b;stop-opacity:1"
         offset="1"
         id="stop10477" />
    </linearGradient>
    <filter
       style="color-interpolation-filters:sRGB;"
       inkscape:label="Drop Shadow"
       id="filter7699"
       x="-0.13567713"
       y="-0.80168867"
       width="1.2373327"
       height="2.741981">
      <feFlood
         flood-opacity="0.270588"
         flood-color="rgb(0,0,0)"
         result="flood"
         id="feFlood7689" />
      <feComposite
         in="flood"
         in2="SourceGraphic"
         operator="in"
         result="composite1"
         id="feComposite7691" />
      <feGaussianBlur
         in="composite1"
         stdDeviation="4.3"
         result="blur"
         id="feGaussianBlur7693" />
      <feOffset
         dx="-3.47432"
         dy="1.96375"
         result="offset"
         id="feOffset7695" />
      <feComposite
         in="SourceGraphic"
         in2="offset"
         operator="over"
         result="fbSourceGraphic"
         id="feComposite7697" />
      <feColorMatrix
         result="fbSourceGraphicAlpha"
         in="fbSourceGraphic"
         values="0 0 0 -1 0 0 0 0 -1 0 0 0 0 -1 0 0 0 0 1 0"
         id="feColorMatrix7809" />
      <feFlood
         id="feFlood7811"
         flood-opacity="0.313726"
         flood-color="rgb(54,134,255)"
         result="flood"
         in="fbSourceGraphic" />
      <feComposite
         in2="fbSourceGraphic"
         id="feComposite7813"
         in="flood"
         operator="in"
         result="composite1" />
      <feGaussianBlur
         id="feGaussianBlur7815"
         in="composite1"
         stdDeviation="4.3"
         result="blur" />
      <feOffset
         id="feOffset7817"
         dx="-3.47432"
         dy="1.96375"
         result="offset" />
      <feComposite
         in2="offset"
         id="feComposite7819"
         in="fbSourceGraphic"
         operator="over"
         result="fbSourceGraphic" />
      <feColorMatrix
         result="fbSourceGraphicAlpha"
         in="fbSourceGraphic"
         values="0 0 0 -1 0 0 0 0 -1 0 0 0 0 -1 0 0 0 0 1 0"
         id="feColorMatrix21689" />
      <feFlood
         id="feFlood21691"
         flood-opacity="0.2"
         flood-color="rgb(20,20,20)"
         result="flood"
         in="fbSourceGraphic" />
      <feComposite
         in2="fbSourceGraphic"
         id="feComposite21693"
         in="flood"
         operator="in"
         result="composite1" />
      <feGaussianBlur
         id="feGaussianBlur21695"
         in="composite1"
         stdDeviation="0.3"
         result="blur" />
      <feOffset
         id="feOffset21697"
         dx="-0.2"
         dy="-0.2"
         result="offset" />
      <feComposite
         in2="offset"
         id="feComposite21699"
         in="fbSourceGraphic"
         operator="over"
         result="composite2" />
    </filter>
    <filter
       style="color-interpolation-filters:sRGB;"
       inkscape:label="Drop Shadow"
       id="filter7699-1"
       x="-0.13567716"
       y="-0.80168867"
       width="1.2373328"
       height="2.741981">
      <feFlood
         flood-opacity="0.270588"
         flood-color="rgb(0,0,0)"
         result="flood"
         id="feFlood7689-1" />
      <feComposite
         in="flood"
         in2="SourceGraphic"
         operator="in"
         result="composite1"
         id="feComposite7691-9" />
      <feGaussianBlur
         in="composite1"
         stdDeviation="4.3"
         result="blur"
         id="feGaussianBlur7693-8" />
      <feOffset
         dx="-3.47432"
         dy="1.96375"
         result="offset"
         id="feOffset7695-0" />
      <feComposite
         in="SourceGraphic"
         in2="offset"
         operator="over"
         result="fbSourceGraphic"
         id="feComposite7697-9" />
      <feColorMatrix
         result="fbSourceGraphicAlpha"
         in="fbSourceGraphic"
         values="0 0 0 -1 0 0 0 0 -1 0 0 0 0 -1 0 0 0 0 1 0"
         id="feColorMatrix7809-7" />
      <feFlood
         id="feFlood7811-3"
         flood-opacity="0.313726"
         flood-color="rgb(54,134,255)"
         result="flood"
         in="fbSourceGraphic" />
      <feComposite
         in2="fbSourceGraphic"
         id="feComposite7813-2"
         in="flood"
         operator="in"
         result="composite1" />
      <feGaussianBlur
         id="feGaussianBlur7815-8"
         in="composite1"
         stdDeviation="4.3"
         result="blur" />
      <feOffset
         id="feOffset7817-6"
         dx="-3.47432"
         dy="1.96375"
         result="offset" />
      <feComposite
         in2="offset"
         id="feComposite7819-5"
         in="fbSourceGraphic"
         operator="over"
         result="fbSourceGraphic" />
      <feColorMatrix
         result="fbSourceGraphicAlpha"
         in="fbSourceGraphic"
         values="0 0 0 -1 0 0 0 0 -1 0 0 0 0 -1 0 0 0 0 1 0"
         id="feColorMatrix21719" />
      <feFlood
         id="feFlood21721"
         flood-opacity="0.2"
         flood-color="rgb(20,20,20)"
         result="flood"
         in="fbSourceGraphic" />
      <feComposite
         in2="fbSourceGraphic"
         id="feComposite21723"
         in="flood"
         operator="in"
         result="composite1" />
      <feGaussianBlur
         id="feGaussianBlur21725"
         in="composite1"
         stdDeviation="0.3"
         result="blur" />
      <feOffset
         id="feOffset21727"
         dx="-0.2"
         dy="-0.2"
         result="offset" />
      <feComposite
         in2="offset"
         id="feComposite21729"
         in="fbSourceGraphic"
         operator="over"
         result="composite2" />
    </filter>
    <filter
       style="color-interpolation-filters:sRGB;"
       inkscape:label="Drop Shadow"
       id="filter7699-1-0"
       x="-0.13567713"
       y="-0.80168867"
       width="1.2373328"
       height="2.741981">
      <feFlood
         flood-opacity="0.270588"
         flood-color="rgb(0,0,0)"
         result="flood"
         id="feFlood7689-1-2" />
      <feComposite
         in="flood"
         in2="SourceGraphic"
         operator="in"
         result="composite1"
         id="feComposite7691-9-5" />
      <feGaussianBlur
         in="composite1"
         stdDeviation="4.3"
         result="blur"
         id="feGaussianBlur7693-8-9" />
      <feOffset
         dx="-3.47432"
         dy="1.96375"
         result="offset"
         id="feOffset7695-0-5" />
      <feComposite
         in="SourceGraphic"
         in2="offset"
         operator="over"
         result="fbSourceGraphic"
         id="feComposite7697-9-1" />
      <feColorMatrix
         result="fbSourceGraphicAlpha"
         in="fbSourceGraphic"
         values="0 0 0 -1 0 0 0 0 -1 0 0 0 0 -1 0 0 0 0 1 0"
         id="feColorMatrix7809-7-2" />
      <feFlood
         id="feFlood7811-3-8"
         flood-opacity="0.313726"
         flood-color="rgb(54,134,255)"
         result="flood"
         in="fbSourceGraphic" />
      <feComposite
         in2="fbSourceGraphic"
         id="feComposite7813-2-9"
         in="flood"
         operator="in"
         result="composite1" />
      <feGaussianBlur
         id="feGaussianBlur7815-8-6"
         in="composite1"
         stdDeviation="4.3"
         result="blur" />
      <feOffset
         id="feOffset7817-6-1"
         dx="-3.47432"
         dy="1.96375"
         result="offset" />
      <feComposite
         in2="offset"
         id="feComposite7819-5-5"
         in="fbSourceGraphic"
         operator="over"
         result="fbSourceGraphic" />
      <feColorMatrix
         result="fbSourceGraphicAlpha"
         in="fbSourceGraphic"
         values="0 0 0 -1 0 0 0 0 -1 0 0 0 0 -1 0 0 0 0 1 0"
         id="feColorMatrix21749" />
      <feFlood
         id="feFlood21751"
         flood-opacity="0.2"
         flood-color="rgb(20,20,20)"
         result="flood"
         in="fbSourceGraphic" />
      <feComposite
         in2="fbSourceGraphic"
         id="feComposite21753"
         in="flood"
         operator="in"
         result="composite1" />
      <feGaussianBlur
         id="feGaussianBlur21755"
         in="composite1"
         stdDeviation="0.3"
         result="blur" />
      <feOffset
         id="feOffset21757"
         dx="-0.2"
         dy="-0.2"
         result="offset" />
      <feComposite
         in2="offset"
         id="feComposite21759"
         in="fbSourceGraphic"
         operator="over"
         result="composite2" />
    </filter>
    <filter
       style="color-interpolation-filters:sRGB;"
       inkscape:label="Drop Shadow"
       id="filter7699-1-0-9"
       x="-0.13567711"
       y="-0.80168867"
       width="1.2373327"
       height="2.741981">
      <feFlood
         flood-opacity="0.270588"
         flood-color="rgb(0,0,0)"
         result="flood"
         id="feFlood7689-1-2-4" />
      <feComposite
         in="flood"
         in2="SourceGraphic"
         operator="in"
         result="composite1"
         id="feComposite7691-9-5-0" />
      <feGaussianBlur
         in="composite1"
         stdDeviation="4.3"
         result="blur"
         id="feGaussianBlur7693-8-9-4" />
      <feOffset
         dx="-3.47432"
         dy="1.96375"
         result="offset"
         id="feOffset7695-0-5-0" />
      <feComposite
         in="SourceGraphic"
         in2="offset"
         operator="over"
         result="fbSourceGraphic"
         id="feComposite7697-9-1-3" />
      <feColorMatrix
         result="fbSourceGraphicAlpha"
         in="fbSourceGraphic"
         values="0 0 0 -1 0 0 0 0 -1 0 0 0 0 -1 0 0 0 0 1 0"
         id="feColorMatrix7809-7-2-2" />
      <feFlood
         id="feFlood7811-3-8-4"
         flood-opacity="0.313726"
         flood-color="rgb(54,134,255)"
         result="flood"
         in="fbSourceGraphic" />
      <feComposite
         in2="fbSourceGraphic"
         id="feComposite7813-2-9-7"
         in="flood"
         operator="in"
         result="composite1" />
      <feGaussianBlur
         id="feGaussianBlur7815-8-6-3"
         in="composite1"
         stdDeviation="4.3"
         result="blur" />
      <feOffset
         id="feOffset7817-6-1-7"
         dx="-3.47432"
         dy="1.96375"
         result="offset" />
      <feComposite
         in2="offset"
         id="feComposite7819-5-5-1"
         in="fbSourceGraphic"
         operator="over"
         result="fbSourceGraphic" />
      <feColorMatrix
         result="fbSourceGraphicAlpha"
         in="fbSourceGraphic"
         values="0 0 0 -1 0 0 0 0 -1 0 0 0 0 -1 0 0 0 0 1 0"
         id="feColorMatrix21779" />
      <feFlood
         id="feFlood21781"
         flood-opacity="0.2"
         flood-color="rgb(20,20,20)"
         result="flood"
         in="fbSourceGraphic" />
      <feComposite
         in2="fbSourceGraphic"
         id="feComposite21783"
         in="flood"
         operator="in"
         result="composite1" />
      <feGaussianBlur
         id="feGaussianBlur21785"
         in="composite1"
         stdDeviation="0.3"
         result="blur" />
      <feOffset
         id="feOffset21787"
         dx="-0.2"
         dy="-0.2"
         result="offset" />
      <feComposite
         in2="offset"
         id="feComposite21789"
         in="fbSourceGraphic"
         operator="over"
         result="composite2" />
    </filter>
    <filter
       style="color-interpolation-filters:sRGB;"
       inkscape:label="Drop Shadow"
       id="filter7699-1-0-9-4"
       x="-0.13567711"
       y="-0.80168816"
       width="1.2373327"
       height="2.7419799">
      <feFlood
         flood-opacity="0.270588"
         flood-color="rgb(0,0,0)"
         result="flood"
         id="feFlood7689-1-2-4-8" />
      <feComposite
         in="flood"
         in2="SourceGraphic"
         operator="in"
         result="composite1"
         id="feComposite7691-9-5-0-2" />
      <feGaussianBlur
         in="composite1"
         stdDeviation="4.3"
         result="blur"
         id="feGaussianBlur7693-8-9-4-2" />
      <feOffset
         dx="-3.47432"
         dy="1.96375"
         result="offset"
         id="feOffset7695-0-5-0-7" />
      <feComposite
         in="SourceGraphic"
         in2="offset"
         operator="over"
         result="fbSourceGraphic"
         id="feComposite7697-9-1-3-5" />
      <feColorMatrix
         result="fbSourceGraphicAlpha"
         in="fbSourceGraphic"
         values="0 0 0 -1 0 0 0 0 -1 0 0 0 0 -1 0 0 0 0 1 0"
         id="feColorMatrix7809-7-2-2-3" />
      <feFlood
         id="feFlood7811-3-8-4-0"
         flood-opacity="0.313726"
         flood-color="rgb(54,134,255)"
         result="flood"
         in="fbSourceGraphic" />
      <feComposite
         in2="fbSourceGraphic"
         id="feComposite7813-2-9-7-5"
         in="flood"
         operator="in"
         result="composite1" />
      <feGaussianBlur
         id="feGaussianBlur7815-8-6-3-9"
         in="composite1"
         stdDeviation="4.3"
         result="blur" />
      <feOffset
         id="feOffset7817-6-1-7-0"
         dx="-3.47432"
         dy="1.96375"
         result="offset" />
      <feComposite
         in2="offset"
         id="feComposite7819-5-5-1-8"
         in="fbSourceGraphic"
         operator="over"
         result="fbSourceGraphic" />
      <feColorMatrix
         result="fbSourceGraphicAlpha"
         in="fbSourceGraphic"
         values="0 0 0 -1 0 0 0 0 -1 0 0 0 0 -1 0 0 0 0 1 0"
         id="feColorMatrix21899" />
      <feFlood
         id="feFlood21901"
         flood-opacity="0.2"
         flood-color="rgb(20,20,20)"
         result="flood"
         in="fbSourceGraphic" />
      <feComposite
         in2="fbSourceGraphic"
         id="feComposite21903"
         in="flood"
         operator="in"
         result="composite1" />
      <feGaussianBlur
         id="feGaussianBlur21905"
         in="composite1"
         stdDeviation="0.3"
         result="blur" />
      <feOffset
         id="feOffset21907"
         dx="-0.2"
         dy="-0.2"
         result="offset" />
      <feComposite
         in2="offset"
         id="feComposite21909"
         in="fbSourceGraphic"
         operator="over"
         result="composite2" />
    </filter>
    <filter
       style="color-interpolation-filters:sRGB;"
       inkscape:label="Drop Shadow"
       id="filter7699-1-0-5"
       x="-0.13567712"
       y="-0.80168867"
       width="1.2373327"
       height="2.741981">
      <feFlood
         flood-opacity="0.270588"
         flood-color="rgb(0,0,0)"
         result="flood"
         id="feFlood7689-1-2-5" />
      <feComposite
         in="flood"
         in2="SourceGraphic"
         operator="in"
         result="composite1"
         id="feComposite7691-9-5-6" />
      <feGaussianBlur
         in="composite1"
         stdDeviation="4.3"
         result="blur"
         id="feGaussianBlur7693-8-9-9" />
      <feOffset
         dx="-3.47432"
         dy="1.96375"
         result="offset"
         id="feOffset7695-0-5-7" />
      <feComposite
         in="SourceGraphic"
         in2="offset"
         operator="over"
         result="fbSourceGraphic"
         id="feComposite7697-9-1-0" />
      <feColorMatrix
         result="fbSourceGraphicAlpha"
         in="fbSourceGraphic"
         values="0 0 0 -1 0 0 0 0 -1 0 0 0 0 -1 0 0 0 0 1 0"
         id="feColorMatrix7809-7-2-1" />
      <feFlood
         id="feFlood7811-3-8-7"
         flood-opacity="0.313726"
         flood-color="rgb(54,134,255)"
         result="flood"
         in="fbSourceGraphic" />
      <feComposite
         in2="fbSourceGraphic"
         id="feComposite7813-2-9-74"
         in="flood"
         operator="in"
         result="composite1" />
      <feGaussianBlur
         id="feGaussianBlur7815-8-6-4"
         in="composite1"
         stdDeviation="4.3"
         result="blur" />
      <feOffset
         id="feOffset7817-6-1-0"
         dx="-3.47432"
         dy="1.96375"
         result="offset" />
      <feComposite
         in2="offset"
         id="feComposite7819-5-5-15"
         in="fbSourceGraphic"
         operator="over"
         result="fbSourceGraphic" />
      <feColorMatrix
         result="fbSourceGraphicAlpha"
         in="fbSourceGraphic"
         values="0 0 0 -1 0 0 0 0 -1 0 0 0 0 -1 0 0 0 0 1 0"
         id="feColorMatrix21869" />
      <feFlood
         id="feFlood21871"
         flood-opacity="0.2"
         flood-color="rgb(20,20,20)"
         result="flood"
         in="fbSourceGraphic" />
      <feComposite
         in2="fbSourceGraphic"
         id="feComposite21873"
         in="flood"
         operator="in"
         result="composite1" />
      <feGaussianBlur
         id="feGaussianBlur21875"
         in="composite1"
         stdDeviation="0.3"
         result="blur" />
      <feOffset
         id="feOffset21877"
         dx="-0.2"
         dy="-0.2"
         result="offset" />
      <feComposite
         in2="offset"
         id="feComposite21879"
         in="fbSourceGraphic"
         operator="over"
         result="composite2" />
    </filter>
    <filter
       style="color-interpolation-filters:sRGB;"
       inkscape:label="Drop Shadow"
       id="filter7699-1-6"
       x="-0.13567713"
       y="-0.80168867"
       width="1.2373327"
       height="2.741981">
      <feFlood
         flood-opacity="0.270588"
         flood-color="rgb(0,0,0)"
         result="flood"
         id="feFlood7689-1-4" />
      <feComposite
         in="flood"
         in2="SourceGraphic"
         operator="in"
         result="composite1"
         id="feComposite7691-9-7" />
      <feGaussianBlur
         in="composite1"
         stdDeviation="4.3"
         result="blur"
         id="feGaussianBlur7693-8-0" />
      <feOffset
         dx="-3.47432"
         dy="1.96375"
         result="offset"
         id="feOffset7695-0-1" />
      <feComposite
         in="SourceGraphic"
         in2="offset"
         operator="over"
         result="fbSourceGraphic"
         id="feComposite7697-9-9" />
      <feColorMatrix
         result="fbSourceGraphicAlpha"
         in="fbSourceGraphic"
         values="0 0 0 -1 0 0 0 0 -1 0 0 0 0 -1 0 0 0 0 1 0"
         id="feColorMatrix7809-7-6" />
      <feFlood
         id="feFlood7811-3-2"
         flood-opacity="0.313726"
         flood-color="rgb(54,134,255)"
         result="flood"
         in="fbSourceGraphic" />
      <feComposite
         in2="fbSourceGraphic"
         id="feComposite7813-2-8"
         in="flood"
         operator="in"
         result="composite1" />
      <feGaussianBlur
         id="feGaussianBlur7815-8-0"
         in="composite1"
         stdDeviation="4.3"
         result="blur" />
      <feOffset
         id="feOffset7817-6-8"
         dx="-3.47432"
         dy="1.96375"
         result="offset" />
      <feComposite
         in2="offset"
         id="feComposite7819-5-3"
         in="fbSourceGraphic"
         operator="over"
         result="fbSourceGraphic" />
      <feColorMatrix
         result="fbSourceGraphicAlpha"
         in="fbSourceGraphic"
         values="0 0 0 -1 0 0 0 0 -1 0 0 0 0 -1 0 0 0 0 1 0"
         id="feColorMatrix21839" />
      <feFlood
         id="feFlood21841"
         flood-opacity="0.2"
         flood-color="rgb(20,20,20)"
         result="flood"
         in="fbSourceGraphic" />
      <feComposite
         in2="fbSourceGraphic"
         id="feComposite21843"
         in="flood"
         operator="in"
         result="composite1" />
      <feGaussianBlur
         id="feGaussianBlur21845"
         in="composite1"
         stdDeviation="0.3"
         result="blur" />
      <feOffset
         id="feOffset21847"
         dx="-0.2"
         dy="-0.2"
         result="offset" />
      <feComposite
         in2="offset"
         id="feComposite21849"
         in="fbSourceGraphic"
         operator="over"
         result="composite2" />
    </filter>
    <filter
       style="color-interpolation-filters:sRGB;"
       inkscape:label="Drop Shadow"
       id="filter7699-0"
       x="-0.13567712"
       y="-0.80168867"
       width="1.2373327"
       height="2.741981">
      <feFlood
         flood-opacity="0.270588"
         flood-color="rgb(0,0,0)"
         result="flood"
         id="feFlood7689-2" />
      <feComposite
         in="flood"
         in2="SourceGraphic"
         operator="in"
         result="composite1"
         id="feComposite7691-0" />
      <feGaussianBlur
         in="composite1"
         stdDeviation="4.3"
         result="blur"
         id="feGaussianBlur7693-2" />
      <feOffset
         dx="-3.47432"
         dy="1.96375"
         result="offset"
         id="feOffset7695-9" />
      <feComposite
         in="SourceGraphic"
         in2="offset"
         operator="over"
         result="fbSourceGraphic"
         id="feComposite7697-0" />
      <feColorMatrix
         result="fbSourceGraphicAlpha"
         in="fbSourceGraphic"
         values="0 0 0 -1 0 0 0 0 -1 0 0 0 0 -1 0 0 0 0 1 0"
         id="feColorMatrix7809-6" />
      <feFlood
         id="feFlood7811-7"
         flood-opacity="0.313726"
         flood-color="rgb(54,134,255)"
         result="flood"
         in="fbSourceGraphic" />
      <feComposite
         in2="fbSourceGraphic"
         id="feComposite7813-0"
         in="flood"
         operator="in"
         result="composite1" />
      <feGaussianBlur
         id="feGaussianBlur7815-89"
         in="composite1"
         stdDeviation="4.3"
         result="blur" />
      <feOffset
         id="feOffset7817-1"
         dx="-3.47432"
         dy="1.96375"
         result="offset" />
      <feComposite
         in2="offset"
         id="feComposite7819-1"
         in="fbSourceGraphic"
         operator="over"
         result="fbSourceGraphic" />
      <feColorMatrix
         result="fbSourceGraphicAlpha"
         in="fbSourceGraphic"
         values="0 0 0 -1 0 0 0 0 -1 0 0 0 0 -1 0 0 0 0 1 0"
         id="feColorMatrix21809" />
      <feFlood
         id="feFlood21811"
         flood-opacity="0.2"
         flood-color="rgb(20,20,20)"
         result="flood"
         in="fbSourceGraphic" />
      <feComposite
         in2="fbSourceGraphic"
         id="feComposite21813"
         in="flood"
         operator="in"
         result="composite1" />
      <feGaussianBlur
         id="feGaussianBlur21815"
         in="composite1"
         stdDeviation="0.3"
         result="blur" />
      <feOffset
         id="feOffset21817"
         dx="-0.2"
         dy="-0.2"
         result="offset" />
      <feComposite
         in2="offset"
         id="feComposite21819"
         in="fbSourceGraphic"
         operator="over"
         result="composite2" />
    </filter>
    <filter
       style="color-interpolation-filters:sRGB;"
       inkscape:label="Drop Shadow"
       id="filter7699-1-0-9-0"
       x="-0.13567711"
       y="-0.80168879"
       width="1.2373327"
       height="2.7419812">
      <feFlood
         flood-opacity="0.270588"
         flood-color="rgb(0,0,0)"
         result="flood"
         id="feFlood7689-1-2-4-4" />
      <feComposite
         in="flood"
         in2="SourceGraphic"
         operator="in"
         result="composite1"
         id="feComposite7691-9-5-0-7" />
      <feGaussianBlur
         in="composite1"
         stdDeviation="4.3"
         result="blur"
         id="feGaussianBlur7693-8-9-4-1" />
      <feOffset
         dx="-3.47432"
         dy="1.96375"
         result="offset"
         id="feOffset7695-0-5-0-6" />
      <feComposite
         in="SourceGraphic"
         in2="offset"
         operator="over"
         result="fbSourceGraphic"
         id="feComposite7697-9-1-3-3" />
      <feColorMatrix
         result="fbSourceGraphicAlpha"
         in="fbSourceGraphic"
         values="0 0 0 -1 0 0 0 0 -1 0 0 0 0 -1 0 0 0 0 1 0"
         id="feColorMatrix7809-7-2-2-8" />
      <feFlood
         id="feFlood7811-3-8-4-9"
         flood-opacity="0.313726"
         flood-color="rgb(54,134,255)"
         result="flood"
         in="fbSourceGraphic" />
      <feComposite
         in2="fbSourceGraphic"
         id="feComposite7813-2-9-7-1"
         in="flood"
         operator="in"
         result="composite1" />
      <feGaussianBlur
         id="feGaussianBlur7815-8-6-3-2"
         in="composite1"
         stdDeviation="4.3"
         result="blur" />
      <feOffset
         id="feOffset7817-6-1-7-3"
         dx="-3.47432"
         dy="1.96375"
         result="offset" />
      <feComposite
         in2="offset"
         id="feComposite7819-5-5-1-6"
         in="fbSourceGraphic"
         operator="over"
         result="fbSourceGraphic" />
      <feColorMatrix
         result="fbSourceGraphicAlpha"
         in="fbSourceGraphic"
         values="0 0 0 -1 0 0 0 0 -1 0 0 0 0 -1 0 0 0 0 1 0"
         id="feColorMatrix22019" />
      <feFlood
         id="feFlood22021"
         flood-opacity="0.2"
         flood-color="rgb(20,20,20)"
         result="flood"
         in="fbSourceGraphic" />
      <feComposite
         in2="fbSourceGraphic"
         id="feComposite22023"
         in="flood"
         operator="in"
         result="composite1" />
      <feGaussianBlur
         id="feGaussianBlur22025"
         in="composite1"
         stdDeviation="0.3"
         result="blur" />
      <feOffset
         id="feOffset22027"
         dx="-0.2"
         dy="-0.2"
         result="offset" />
      <feComposite
         in2="offset"
         id="feComposite22029"
         in="fbSourceGraphic"
         operator="over"
         result="composite2" />
    </filter>
    <filter
       style="color-interpolation-filters:sRGB;"
       inkscape:label="Drop Shadow"
       id="filter7699-1-0-1"
       x="-0.13567712"
       y="-0.80168879"
       width="1.2373327"
       height="2.7419812">
      <feFlood
         flood-opacity="0.270588"
         flood-color="rgb(0,0,0)"
         result="flood"
         id="feFlood7689-1-2-9" />
      <feComposite
         in="flood"
         in2="SourceGraphic"
         operator="in"
         result="composite1"
         id="feComposite7691-9-5-2" />
      <feGaussianBlur
         in="composite1"
         stdDeviation="4.3"
         result="blur"
         id="feGaussianBlur7693-8-9-6" />
      <feOffset
         dx="-3.47432"
         dy="1.96375"
         result="offset"
         id="feOffset7695-0-5-73" />
      <feComposite
         in="SourceGraphic"
         in2="offset"
         operator="over"
         result="fbSourceGraphic"
         id="feComposite7697-9-1-5" />
      <feColorMatrix
         result="fbSourceGraphicAlpha"
         in="fbSourceGraphic"
         values="0 0 0 -1 0 0 0 0 -1 0 0 0 0 -1 0 0 0 0 1 0"
         id="feColorMatrix7809-7-2-6" />
      <feFlood
         id="feFlood7811-3-8-1"
         flood-opacity="0.313726"
         flood-color="rgb(54,134,255)"
         result="flood"
         in="fbSourceGraphic" />
      <feComposite
         in2="fbSourceGraphic"
         id="feComposite7813-2-9-8"
         in="flood"
         operator="in"
         result="composite1" />
      <feGaussianBlur
         id="feGaussianBlur7815-8-6-2"
         in="composite1"
         stdDeviation="4.3"
         result="blur" />
      <feOffset
         id="feOffset7817-6-1-5"
         dx="-3.47432"
         dy="1.96375"
         result="offset" />
      <feComposite
         in2="offset"
         id="feComposite7819-5-5-6"
         in="fbSourceGraphic"
         operator="over"
         result="fbSourceGraphic" />
      <feColorMatrix
         result="fbSourceGraphicAlpha"
         in="fbSourceGraphic"
         values="0 0 0 -1 0 0 0 0 -1 0 0 0 0 -1 0 0 0 0 1 0"
         id="feColorMatrix21989" />
      <feFlood
         id="feFlood21991"
         flood-opacity="0.2"
         flood-color="rgb(20,20,20)"
         result="flood"
         in="fbSourceGraphic" />
      <feComposite
         in2="fbSourceGraphic"
         id="feComposite21993"
         in="flood"
         operator="in"
         result="composite1" />
      <feGaussianBlur
         id="feGaussianBlur21995"
         in="composite1"
         stdDeviation="0.3"
         result="blur" />
      <feOffset
         id="feOffset21997"
         dx="-0.2"
         dy="-0.2"
         result="offset" />
      <feComposite
         in2="offset"
         id="feComposite21999"
         in="fbSourceGraphic"
         operator="over"
         result="composite2" />
    </filter>
    <filter
       style="color-interpolation-filters:sRGB;"
       inkscape:label="Drop Shadow"
       id="filter7699-1-3"
       x="-0.13567712"
       y="-0.80168879"
       width="1.2373327"
       height="2.7419812">
      <feFlood
         flood-opacity="0.270588"
         flood-color="rgb(0,0,0)"
         result="flood"
         id="feFlood7689-1-6" />
      <feComposite
         in="flood"
         in2="SourceGraphic"
         operator="in"
         result="composite1"
         id="feComposite7691-9-2" />
      <feGaussianBlur
         in="composite1"
         stdDeviation="4.3"
         result="blur"
         id="feGaussianBlur7693-8-7" />
      <feOffset
         dx="-3.47432"
         dy="1.96375"
         result="offset"
         id="feOffset7695-0-3" />
      <feComposite
         in="SourceGraphic"
         in2="offset"
         operator="over"
         result="fbSourceGraphic"
         id="feComposite7697-9-0" />
      <feColorMatrix
         result="fbSourceGraphicAlpha"
         in="fbSourceGraphic"
         values="0 0 0 -1 0 0 0 0 -1 0 0 0 0 -1 0 0 0 0 1 0"
         id="feColorMatrix7809-7-8" />
      <feFlood
         id="feFlood7811-3-9"
         flood-opacity="0.313726"
         flood-color="rgb(54,134,255)"
         result="flood"
         in="fbSourceGraphic" />
      <feComposite
         in2="fbSourceGraphic"
         id="feComposite7813-2-4"
         in="flood"
         operator="in"
         result="composite1" />
      <feGaussianBlur
         id="feGaussianBlur7815-8-9"
         in="composite1"
         stdDeviation="4.3"
         result="blur" />
      <feOffset
         id="feOffset7817-6-2"
         dx="-3.47432"
         dy="1.96375"
         result="offset" />
      <feComposite
         in2="offset"
         id="feComposite7819-5-0"
         in="fbSourceGraphic"
         operator="over"
         result="fbSourceGraphic" />
      <feColorMatrix
         result="fbSourceGraphicAlpha"
         in="fbSourceGraphic"
         values="0 0 0 -1 0 0 0 0 -1 0 0 0 0 -1 0 0 0 0 1 0"
         id="feColorMatrix21959" />
      <feFlood
         id="feFlood21961"
         flood-opacity="0.2"
         flood-color="rgb(20,20,20)"
         result="flood"
         in="fbSourceGraphic" />
      <feComposite
         in2="fbSourceGraphic"
         id="feComposite21963"
         in="flood"
         operator="in"
         result="composite1" />
      <feGaussianBlur
         id="feGaussianBlur21965"
         in="composite1"
         stdDeviation="0.3"
         result="blur" />
      <feOffset
         id="feOffset21967"
         dx="-0.2"
         dy="-0.2"
         result="offset" />
      <feComposite
         in2="offset"
         id="feComposite21969"
         in="fbSourceGraphic"
         operator="over"
         result="composite2" />
    </filter>
    <filter
       style="color-interpolation-filters:sRGB;"
       inkscape:label="Drop Shadow"
       id="filter7699-5"
       x="-0.13567712"
       y="-0.80168861"
       width="1.2373327"
       height="2.7419808">
      <feFlood
         flood-opacity="0.270588"
         flood-color="rgb(0,0,0)"
         result="flood"
         id="feFlood7689-26" />
      <feComposite
         in="flood"
         in2="SourceGraphic"
         operator="in"
         result="composite1"
         id="feComposite7691-3" />
      <feGaussianBlur
         in="composite1"
         stdDeviation="4.3"
         result="blur"
         id="feGaussianBlur7693-0" />
      <feOffset
         dx="-3.47432"
         dy="1.96375"
         result="offset"
         id="feOffset7695-2" />
      <feComposite
         in="SourceGraphic"
         in2="offset"
         operator="over"
         result="fbSourceGraphic"
         id="feComposite7697-06" />
      <feColorMatrix
         result="fbSourceGraphicAlpha"
         in="fbSourceGraphic"
         values="0 0 0 -1 0 0 0 0 -1 0 0 0 0 -1 0 0 0 0 1 0"
         id="feColorMatrix7809-78" />
      <feFlood
         id="feFlood7811-1"
         flood-opacity="0.313726"
         flood-color="rgb(54,134,255)"
         result="flood"
         in="fbSourceGraphic" />
      <feComposite
         in2="fbSourceGraphic"
         id="feComposite7813-6"
         in="flood"
         operator="in"
         result="composite1" />
      <feGaussianBlur
         id="feGaussianBlur7815-3"
         in="composite1"
         stdDeviation="4.3"
         result="blur" />
      <feOffset
         id="feOffset7817-62"
         dx="-3.47432"
         dy="1.96375"
         result="offset" />
      <feComposite
         in2="offset"
         id="feComposite7819-57"
         in="fbSourceGraphic"
         operator="over"
         result="fbSourceGraphic" />
      <feColorMatrix
         result="fbSourceGraphicAlpha"
         in="fbSourceGraphic"
         values="0 0 0 -1 0 0 0 0 -1 0 0 0 0 -1 0 0 0 0 1 0"
         id="feColorMatrix21929" />
      <feFlood
         id="feFlood21931"
         flood-opacity="0.2"
         flood-color="rgb(20,20,20)"
         result="flood"
         in="fbSourceGraphic" />
      <feComposite
         in2="fbSourceGraphic"
         id="feComposite21933"
         in="flood"
         operator="in"
         result="composite1" />
      <feGaussianBlur
         id="feGaussianBlur21935"
         in="composite1"
         stdDeviation="0.3"
         result="blur" />
      <feOffset
         id="feOffset21937"
         dx="-0.2"
         dy="-0.2"
         result="offset" />
      <feComposite
         in2="offset"
         id="feComposite21939"
         in="fbSourceGraphic"
         operator="over"
         result="composite2" />
    </filter>
    <linearGradient
       inkscape:collect="always"
       xlink:href="#linearGradient10479"
       id="linearGradient11528"
       gradientUnits="userSpaceOnUse"
       x1="111.54118"
       y1="44.174362"
       x2="112.28296"
       y2="-1.039657" />
    <filter
       style="color-interpolation-filters:sRGB;"
       inkscape:label="Drop Shadow"
       id="filter24561"
       x="-0.0043784258"
       y="-0.034209349"
       width="1.007805"
       height="1.0609819">
      <feFlood
         flood-opacity="0.2"
         flood-color="rgb(20,20,20)"
         result="flood"
         id="feFlood24551" />
      <feComposite
         in="flood"
         in2="SourceGraphic"
         operator="in"
         result="composite1"
         id="feComposite24553" />
      <feGaussianBlur
         in="composite1"
         stdDeviation="0.3"
         result="blur"
         id="feGaussianBlur24555" />
      <feOffset
         dx="-0.2"
         dy="-0.2"
         result="offset"
         id="feOffset24557" />
      <feComposite
         in="SourceGraphic"
         in2="offset"
         operator="over"
         result="composite2"
         id="feComposite24559" />
    </filter>
  </defs>
  <g
     inkscape:groupmode="layer"
     id="layer2"
     inkscape:label="sky">
    <rect
       style="fill:url(#linearGradient11528);fill-opacity:1;stroke-width:0.464868"
       id="rect8646"
       width="210.80383"
       height="58.437042"
       x="-0.27568248"
       y="-0.27568135" />
  </g>
  <g
     inkscape:groupmode="layer"
     id="layer3"
     inkscape:label="submarine" />
  <g
     inkscape:label="waves"
     inkscape:groupmode="layer"
     id="layer1">
    <path
       style="fill:#a1d9ff;fill-opacity:1;stroke:none;stroke-width:0.183787;filter:url(#filter24561)"
       d="m 0.2756807,64.204933 c 0,-3.673382 0.0542163,-8.053567 0.12048072,-9.733743 L 0.51664214,51.416323 1.3610439,51.311459 c 3.3569537,-0.416892 4.4304646,-0.935434 6.8913374,-3.328746 1.0009074,-0.973428 2.2001187,-2.011091 2.6649137,-2.305916 1.228616,-0.779328 3.474081,-1.430534 5.405428,-1.567624 l 1.670807,-0.118598 -0.417834,0.627466 c -1.683486,2.528103 -1.631481,4.417789 0.155042,5.633743 1.192266,0.811487 3.795552,1.239693 6.621057,1.089078 3.453609,-0.184098 4.594484,-0.717083 7.531031,-3.518289 2.751407,-2.6246 4.452226,-3.407695 8.03212,-3.698165 l 1.590091,-0.129019 -0.468292,0.625058 c -1.061325,1.416626 -1.537067,2.980923 -1.237041,4.067539 0.464037,1.680603 2.359999,2.514269 6.063099,2.665984 4.481751,0.183616 6.086589,-0.395826 9.160616,-3.307531 1.1821,-1.11968 2.470102,-2.150597 3.119027,-2.496469 1.319708,-0.703399 3.256132,-1.220746 5.253173,-1.403473 l 1.459357,-0.133529 -0.315852,0.432482 c -0.773708,1.059404 -1.407956,2.651748 -1.408102,3.53517 -2.64e-4,2.355591 2.139474,3.416322 6.891875,3.416322 4.195873,0 5.519832,-0.528239 8.538773,-3.406835 1.067155,-1.017543 2.311731,-2.064761 2.765727,-2.327151 1.26832,-0.733032 3.222665,-1.259637 5.111009,-1.377179 l 1.712539,-0.106598 -0.566689,0.839676 c -1.675879,2.483181 -1.453166,4.54989 0.59713,5.541201 1.44562,0.698951 2.553401,0.888876 5.274368,0.904268 4.161634,0.02354 5.301295,-0.435174 8.397186,-3.379899 2.9031,-2.761351 4.53349,-3.529324 8.04295,-3.788539 l 1.64529,-0.121523 -0.41784,0.627465 c -0.84801,1.273465 -1.21309,2.262023 -1.21589,3.292379 -0.005,1.848581 1.10437,2.732118 4.08485,3.253228 2.17829,0.380856 5.3906,0.240797 7.03152,-0.306581 1.6018,-0.534326 2.23088,-0.97258 4.5284,-3.154763 2.66008,-2.526536 4.34492,-3.288597 7.91037,-3.577896 l 1.59009,-0.129019 -0.46899,0.625058 c -1.38033,1.839655 -1.73653,3.739139 -0.917,4.89006 0.89625,1.258666 3.15301,1.890124 6.74667,1.887763 3.78443,-0.0025 5.29338,-0.624596 8.16522,-3.366348 2.80332,-2.67633 4.6949,-3.555598 8.33068,-3.87236 l 1.42536,-0.124182 -0.72251,1.117857 c -1.58931,2.45897 -1.29343,4.481658 0.79546,5.437985 1.37775,0.630753 2.62901,0.823459 5.34676,0.823446 4.04397,-1.9e-5 5.30328,-0.5252 8.47672,-3.535105 1.4758,-1.399746 2.39916,-2.1184 3.22776,-2.512161 1.36886,-0.650498 3.54586,-1.132725 5.11364,-1.132725 h 1.11983 l -0.45958,0.602535 c -1.23743,1.62236 -1.57053,3.593631 -0.79969,4.732552 0.87809,1.297383 3.04839,1.919854 6.66228,1.91083 2.66405,-0.0067 4.21555,-0.318608 5.58969,-1.123914 0.45116,-0.264396 1.72247,-1.335256 2.82512,-2.37969 2.79623,-2.648561 4.46952,-3.425242 7.93012,-3.680869 l 1.64195,-0.121287 -0.40227,0.564963 c -1.19556,1.678979 -1.6149,3.536472 -1.04654,4.635557 0.59575,1.152052 2.50419,1.941675 5.19224,2.148293 l 1.57127,0.120778 -0.11696,3.508771 c -0.0643,1.929824 -0.16177,5.700432 -0.21654,8.379129 -0.0548,2.678697 -0.14458,5.38726 -0.19959,6.01903 l -0.10003,1.148667 H 105.01971 0.2756807 Z"
       id="path3238" />
    <path
       style="fill:#a8dcff;fill-opacity:1;stroke:none;stroke-width:0.684;filter:url(#filter7699);stroke-opacity:1;stroke-miterlimit:4;stroke-dasharray:none"
       d="m 7.940737,68.258408 c 0,-3.673382 0.05422,-8.053567 0.12048,-9.733743 L 8.181698,55.469799 9.0261,55.364934 c 3.356955,-0.416892 4.430465,-0.935434 6.891338,-3.328746 1.000908,-0.973428 2.200119,-2.011091 2.664914,-2.305916 1.228616,-0.779328 3.474081,-1.430534 5.405428,-1.567624 l 1.670806,-0.118598 -0.417834,0.627466 c -1.683486,2.528104 -1.631481,4.41779 0.155042,5.633743 1.192266,0.811487 3.795552,1.239693 6.621057,1.089078 3.453609,-0.184098 4.594485,-0.717083 7.531031,-3.518289 2.751408,-2.6246 4.452226,-3.407695 8.032121,-3.698165 l 1.59009,-0.129019 -0.468291,0.625058 c -1.061326,1.416626 -1.537068,2.980923 -1.237041,4.06754 0.464037,1.680602 2.359999,2.514268 6.063099,2.665983 4.481751,0.183616 6.086589,-0.395826 9.160616,-3.307531 1.1821,-1.11968 2.470102,-2.150596 3.119027,-2.496469 1.319707,-0.703398 3.256132,-1.220746 5.253172,-1.403473 l 1.459357,-0.133529 -0.315851,0.432482 c -0.773708,1.059404 -1.407957,2.651749 -1.408102,3.53517 -2.65e-4,2.355591 2.139474,3.416322 6.891874,3.416322 4.195874,0 5.519833,-0.528239 8.538774,-3.406835 1.067154,-1.017543 2.311731,-2.064761 2.765726,-2.327151 1.26832,-0.733032 3.222665,-1.259637 5.11101,-1.377179 l 1.712539,-0.106598 -0.56669,0.839676 c -1.675879,2.483181 -1.453166,4.549891 0.59713,5.541201 1.445623,0.698951 2.553403,0.888876 5.274368,0.904268 4.16165,0.02354 5.30131,-0.435174 8.3972,-3.379899 2.90311,-2.761351 4.53349,-3.529324 8.04296,-3.788539 l 1.64528,-0.121523 -0.41784,0.627465 c -0.84801,1.273465 -1.21309,2.262023 -1.21589,3.292379 -0.005,1.848582 1.10437,2.732118 4.08485,3.253228 2.1783,0.380856 5.3906,0.240797 7.03152,-0.306581 1.60181,-0.534326 2.23088,-0.97258 4.5284,-3.154762 2.66008,-2.526537 4.34492,-3.288598 7.91037,-3.577897 l 1.59009,-0.129019 -0.46899,0.625058 c -1.38033,1.839655 -1.73653,3.739139 -0.917,4.89006 0.89625,1.258667 3.15301,1.890124 6.74668,1.887763 3.78442,-0.0025 5.29337,-0.624596 8.16521,-3.366347 2.80332,-2.676331 4.6949,-3.555599 8.33068,-3.872361 l 1.42536,-0.124182 -0.72251,1.117857 c -1.58931,2.458971 -1.29343,4.481658 0.79546,5.437985 1.37775,0.630753 2.62902,0.823459 5.34676,0.823446 4.04397,-1.9e-5 5.30328,-0.5252 8.47672,-3.535105 1.4758,-1.399746 2.39916,-2.1184 3.22776,-2.512161 1.36886,-0.650498 3.54586,-1.132725 5.11365,-1.132725 h 1.11982 l -0.45958,0.602535 c -1.23743,1.62236 -1.57053,3.593631 -0.79969,4.732552 0.87809,1.297383 3.04839,1.919854 6.66228,1.91083 2.66405,-0.0067 4.21555,-0.318608 5.58969,-1.123914 0.45116,-0.264396 1.72247,-1.335256 2.82512,-2.37969 2.79623,-2.648561 4.46952,-3.425242 7.93012,-3.680869 l 1.64195,-0.121287 -0.40227,0.564963 c -1.19555,1.678979 -1.6149,3.536472 -1.04654,4.635557 0.59575,1.152052 2.50419,1.941675 5.19225,2.148293 l 1.57126,0.120778 -0.11696,3.508771 c -0.0643,1.929824 -0.16177,5.700432 -0.21654,8.379129 -0.0548,2.678697 -0.14458,5.38726 -0.19959,6.01903 l -0.10003,1.148667 H 112.68479 7.940737 Z"
       id="path20461" />
    <path
       style="fill:#addeff;fill-opacity:1;stroke:none;stroke-width:0.183787;filter:url(#filter7699-1)"
       d="m -7.373614,73.81854 c 0,-3.673382 0.05422,-8.053567 0.12048,-9.733743 l 0.120481,-3.054866 0.8444021,-0.104865 c 3.356955,-0.416892 4.430465,-0.935434 6.89133783,-3.328746 C 1.6039949,56.622892 2.8032062,55.585229 3.2680009,55.290404 4.4966163,54.511076 6.7420801,53.85987 8.6734259,53.72278 l 1.6708051,-0.118598 -0.4178337,0.627466 c -1.6834851,2.528104 -1.6314801,4.41779 0.1550417,5.633743 1.192266,0.811487 3.795552,1.239693 6.621057,1.089078 3.453609,-0.184098 4.594485,-0.717083 7.531031,-3.518289 2.751408,-2.6246 4.452226,-3.407695 8.032121,-3.698165 l 1.59009,-0.129019 -0.468291,0.625058 c -1.061326,1.416626 -1.537068,2.980923 -1.237041,4.06754 0.464037,1.680602 2.359999,2.514268 6.063099,2.665983 4.481751,0.183616 6.086589,-0.395826 9.160616,-3.307531 1.1821,-1.11968 2.470102,-2.150596 3.119027,-2.496469 1.319707,-0.703398 3.256132,-1.220746 5.253172,-1.403473 l 1.459357,-0.133529 -0.315851,0.432482 c -0.773708,1.059404 -1.407957,2.651749 -1.408102,3.53517 -2.65e-4,2.355591 2.139474,3.416322 6.891874,3.416322 4.195874,0 5.519833,-0.528239 8.538774,-3.406835 1.067154,-1.017543 2.311731,-2.064761 2.765726,-2.327151 1.26832,-0.733032 3.222665,-1.259637 5.11101,-1.377179 l 1.712539,-0.106598 -0.56669,0.839676 c -1.675879,2.483181 -1.453166,4.549891 0.59713,5.541201 1.445623,0.698951 2.553403,0.888876 5.274368,0.904268 4.16165,0.02354 5.30131,-0.435174 8.397188,-3.379899 2.903095,-2.761351 4.533466,-3.529324 8.042927,-3.788539 l 1.64528,-0.121523 -0.41784,0.627465 c -0.84801,1.273465 -1.21309,2.262023 -1.21589,3.292379 -0.005,1.848582 1.10437,2.732118 4.08485,3.253228 2.1783,0.380856 5.3906,0.240797 7.03152,-0.306581 1.60181,-0.534326 2.23088,-0.97258 4.5284,-3.154762 2.66008,-2.526537 4.34492,-3.288598 7.91037,-3.577897 l 1.59009,-0.129019 -0.46899,0.625058 c -1.38033,1.839655 -1.73653,3.739139 -0.917,4.89006 0.89625,1.258667 3.15301,1.890124 6.74668,1.887763 3.78442,-0.0025 5.29337,-0.624596 8.16521,-3.366347 2.80332,-2.676331 4.6949,-3.555599 8.33068,-3.872361 l 1.42536,-0.124182 -0.72251,1.117857 c -1.58931,2.458971 -1.29343,4.481658 0.79546,5.437985 1.37775,0.630753 2.62902,0.823459 5.34676,0.823446 4.04397,-1.9e-5 5.30328,-0.5252 8.47672,-3.535105 1.4758,-1.399746 2.39916,-2.1184 3.22776,-2.512161 1.36886,-0.650498 3.54586,-1.132725 5.11365,-1.132725 h 1.11982 l -0.45958,0.602535 c -1.23743,1.62236 -1.57053,3.593631 -0.79969,4.732552 0.87809,1.297383 3.04839,1.919854 6.66228,1.91083 2.66405,-0.0067 4.21555,-0.318608 5.58969,-1.123914 0.45116,-0.264396 1.72247,-1.335256 2.82512,-2.37969 2.79623,-2.648561 4.46952,-3.425242 7.93012,-3.680869 l 1.64195,-0.121287 -0.40227,0.564963 c -1.19555,1.678979 -1.6149,3.536472 -1.04654,4.635557 0.59575,1.152052 2.50419,1.941675 5.19225,2.148293 l 1.57126,0.120778 -0.11696,3.508771 c -0.0643,1.929824 -0.16177,5.700432 -0.21654,8.379129 -0.0548,2.678697 -0.14458,5.38726 -0.19959,6.01903 l -0.10003,1.148667 H 97.370405 -7.373614 Z"
       id="path3238-7-5" />
    <path
       style="fill:#b3e0ff;fill-opacity:1;stroke:none;stroke-width:0.183787;filter:url(#filter7699-1-0)"
       d="m 3.4979246,45.332147 c 0,-3.673382 0.05422,-8.053567 0.12048,-9.733743 l 0.120481,-3.054866 0.844402,-0.104865 c 3.3569547,-0.416892 4.4304647,-0.935434 6.8913374,-3.328746 1.000908,-0.973428 2.20012,-2.011091 2.664915,-2.305916 1.228616,-0.779328 3.474081,-1.430534 5.405428,-1.567624 l 1.670806,-0.118598 -0.417834,0.627466 c -1.683486,2.528104 -1.631481,4.41779 0.155042,5.633743 1.192266,0.811487 3.795552,1.239693 6.621057,1.089078 3.453609,-0.184098 4.594485,-0.717083 7.531031,-3.518289 2.751408,-2.6246 4.452226,-3.407695 8.032121,-3.698165 l 1.59009,-0.129019 -0.468291,0.625058 c -1.061326,1.416626 -1.537068,2.980923 -1.237041,4.06754 0.464037,1.680602 2.359999,2.514268 6.063099,2.665983 4.481751,0.183616 6.086589,-0.395826 9.160616,-3.307531 1.1821,-1.11968 2.470102,-2.150596 3.119027,-2.496469 1.319707,-0.703398 3.256132,-1.220746 5.253172,-1.403473 l 1.459357,-0.133529 -0.315851,0.432482 c -0.773708,1.059404 -1.407957,2.651749 -1.408102,3.53517 -2.65e-4,2.355591 2.139474,3.416322 6.891874,3.416322 4.195874,0 5.519833,-0.528239 8.538774,-3.406835 1.067154,-1.017543 2.311731,-2.064761 2.765726,-2.327151 1.26832,-0.733032 3.222667,-1.259637 5.111005,-1.377179 l 1.71253,-0.106598 -0.56669,0.839676 c -1.675867,2.483181 -1.453157,4.549891 0.59713,5.541201 1.44563,0.698951 2.55341,0.888876 5.274377,0.904268 4.161647,0.02354 5.301307,-0.435174 8.397197,-3.379899 2.90311,-2.761351 4.53349,-3.529324 8.04296,-3.788539 l 1.64528,-0.121523 -0.41784,0.627465 c -0.84801,1.273465 -1.21309,2.262023 -1.21589,3.292379 -0.005,1.848582 1.10437,2.732118 4.08485,3.253228 2.1783,0.380856 5.3906,0.240797 7.03152,-0.306581 1.60181,-0.534326 2.23088,-0.97258 4.5284,-3.154762 2.66008,-2.526537 4.34492,-3.288598 7.91037,-3.577897 l 1.59009,-0.129019 -0.46899,0.625058 c -1.38033,1.839655 -1.73653,3.739139 -0.917,4.89006 0.89625,1.258667 3.15301,1.890124 6.74668,1.887763 3.78442,-0.0025 5.29337,-0.624596 8.16521,-3.366347 2.80332,-2.676331 4.6949,-3.555599 8.33068,-3.872361 l 1.42536,-0.124182 -0.72251,1.117857 c -1.58931,2.458971 -1.29343,4.481658 0.79546,5.437985 1.37775,0.630753 2.62902,0.823459 5.34676,0.823446 4.04397,-1.9e-5 5.30328,-0.5252 8.47672,-3.535105 1.4758,-1.399746 2.39916,-2.1184 3.22776,-2.512161 1.36886,-0.650498 3.54586,-1.132725 5.11365,-1.132725 h 1.11982 l -0.45958,0.602535 c -1.23743,1.62236 -1.57053,3.593631 -0.79969,4.732552 0.87809,1.297383 3.04839,1.919854 6.66228,1.91083 2.66405,-0.0067 4.21555,-0.318608 5.58969,-1.123914 0.45116,-0.264396 1.72247,-1.335256 2.82512,-2.37969 2.79623,-2.648561 4.46952,-3.425242 7.93012,-3.680869 l 1.64195,-0.121287 -0.40227,0.564963 c -1.19555,1.678979 -1.6149,3.536472 -1.04654,4.635557 0.59575,1.152052 2.50419,1.941675 5.19225,2.148293 l 1.57126,0.120778 -0.11696,3.508771 c -0.0643,1.929824 -0.16177,5.700432 -0.21654,8.379129 -0.0548,2.678697 -0.14458,5.38726 -0.19959,6.01903 L 212.986,52.011023 H 108.24197 3.4979246 Z"
       id="path3238-7-5-8"
       transform="matrix(1.0776705,0,0,1.0776705,-8.4332029,32.863754)" />
    <path
       style="fill:#b8e2ff;fill-opacity:1;stroke:none;stroke-width:0.183787;filter:url(#filter7699-1-0-9)"
       d="m -3.9104079,55.386316 c 0,-3.673382 0.05422,-8.053567 0.12048,-9.733743 l 0.120481,-3.054865 0.844402,-0.104865 c 3.35695503,-0.416892 4.4304646,-0.935434 6.8913376,-3.328746 1.0009076,-0.973428 2.2001206,-2.011091 2.6649166,-2.305916 1.228616,-0.779328 3.4740807,-1.430534 5.4054277,-1.567624 l 1.670806,-0.118598 -0.417834,0.627466 c -1.683486,2.528104 -1.631481,4.41779 0.155042,5.633743 1.192266,0.811487 3.795552,1.239693 6.621057,1.089078 3.453609,-0.184098 4.594485,-0.717083 7.531031,-3.518289 2.751408,-2.6246 4.452226,-3.407695 8.032121,-3.698165 l 1.59009,-0.129019 -0.468291,0.625058 c -1.061326,1.416626 -1.537068,2.980923 -1.237041,4.06754 0.464037,1.680602 2.359999,2.514268 6.063099,2.665983 4.481751,0.183616 6.086589,-0.395826 9.160616,-3.307531 1.1821,-1.11968 2.470102,-2.150596 3.119027,-2.496469 1.319707,-0.703398 3.256132,-1.220746 5.253172,-1.403473 l 1.459357,-0.133529 -0.315851,0.432482 c -0.773708,1.059404 -1.407957,2.651749 -1.408102,3.53517 -2.65e-4,2.35559 2.139474,3.416322 6.891874,3.416322 4.195874,0 5.519833,-0.528239 8.538774,-3.406835 1.067154,-1.017543 2.311731,-2.064761 2.765726,-2.327151 1.26832,-0.733033 3.22267,-1.259637 5.11102,-1.377179 l 1.71253,-0.106598 -0.56669,0.839676 c -1.67587,2.483181 -1.45316,4.549891 0.59713,5.541201 1.44563,0.698951 2.55341,0.888876 5.27438,0.904268 4.161647,0.02354 5.301307,-0.435174 8.397213,-3.379899 2.903107,-2.761351 4.533487,-3.529324 8.042957,-3.788539 l 1.64528,-0.121523 -0.41784,0.627465 c -0.84801,1.273465 -1.21309,2.262023 -1.21589,3.292379 -0.005,1.848582 1.10437,2.732118 4.08485,3.253228 2.1783,0.380856 5.3906,0.240797 7.03152,-0.306581 1.60181,-0.534326 2.23088,-0.97258 4.5284,-3.154762 2.66008,-2.526537 4.34492,-3.288598 7.91037,-3.577897 l 1.59009,-0.129019 -0.46899,0.625058 c -1.38033,1.839655 -1.73653,3.739139 -0.917,4.89006 0.89625,1.258667 3.15301,1.890124 6.74668,1.887763 3.78442,-0.0025 5.29337,-0.624596 8.16521,-3.366347 2.80332,-2.676331 4.6949,-3.555599 8.33068,-3.872361 l 1.42536,-0.124182 -0.72251,1.117857 c -1.58931,2.458971 -1.29343,4.481658 0.79546,5.437985 1.37775,0.630753 2.62902,0.823459 5.34676,0.823446 4.04397,-2e-5 5.30328,-0.5252 8.47672,-3.535106 1.4758,-1.399746 2.39916,-2.1184 3.22776,-2.51216 1.36886,-0.650498 3.54586,-1.132726 5.11365,-1.132726 h 1.11982 l -0.45958,0.602536 c -1.23743,1.62236 -1.57053,3.59363 -0.79969,4.732552 0.87809,1.297383 3.04839,1.919854 6.66228,1.910829 2.66405,-0.0067 4.21555,-0.318607 5.58969,-1.123914 0.45116,-0.264395 1.72247,-1.335256 2.82512,-2.379689 2.79623,-2.648561 4.46952,-3.425242 7.93012,-3.680869 l 1.64195,-0.121287 -0.40227,0.564963 c -1.19555,1.678979 -1.6149,3.536472 -1.04654,4.635557 0.59575,1.152052 2.50419,1.941675 5.19225,2.148293 l 1.57126,0.120778 -0.11696,3.508771 c -0.0643,1.929824 -0.16177,5.700432 -0.21654,8.379129 -0.0548,2.678697 -0.14458,5.38726 -0.19959,6.01903 l -0.10003,1.148667 H 100.83367 -3.9104079 Z"
       id="path3238-7-5-8-6"
       transform="matrix(1.1858822,0,0,1.1858822,-24.09369,24.682993)" />
    <path
       style="fill:#bde4ff;fill-opacity:1;stroke:none;stroke-width:0.183787;filter:url(#filter7699-0)"
       d="m 10.007961,67.006228 c 0,-3.673382 0.05422,-8.053567 0.12048,-9.733743 l 0.120481,-3.054866 0.844402,-0.104865 c 3.356955,-0.416892 4.430465,-0.935434 6.891338,-3.328746 1.000908,-0.973428 2.200119,-2.011091 2.664914,-2.305916 1.228616,-0.779328 3.474081,-1.430534 5.405428,-1.567624 l 1.670806,-0.118598 -0.417834,0.627466 c -1.683486,2.528104 -1.631481,4.41779 0.155042,5.633743 1.192266,0.811487 3.795552,1.239693 6.621057,1.089078 3.453609,-0.184098 4.594485,-0.717083 7.531031,-3.518289 2.751408,-2.6246 4.452226,-3.407695 8.032121,-3.698165 l 1.59009,-0.129019 -0.468291,0.625058 c -1.061326,1.416626 -1.537068,2.980923 -1.237041,4.06754 0.464037,1.680602 2.359999,2.514268 6.063099,2.665983 4.481751,0.183616 6.086589,-0.395826 9.160616,-3.307531 1.1821,-1.11968 2.470102,-2.150596 3.119027,-2.496469 1.319707,-0.703398 3.256132,-1.220746 5.253172,-1.403473 l 1.459357,-0.133529 -0.315851,0.432482 c -0.773708,1.059404 -1.407957,2.651749 -1.408102,3.53517 -2.65e-4,2.355591 2.139474,3.416322 6.891874,3.416322 4.195874,0 5.519833,-0.528239 8.538774,-3.406835 1.067154,-1.017543 2.311731,-2.064761 2.765726,-2.327151 1.26832,-0.733032 3.222665,-1.259637 5.11101,-1.377179 l 1.712539,-0.106598 -0.56669,0.839676 c -1.675879,2.483181 -1.453166,4.549891 0.59713,5.541201 1.445623,0.698951 2.553404,0.888876 5.274364,0.904268 4.16166,0.02354 5.30132,-0.435174 8.39721,-3.379899 2.90311,-2.761351 4.53349,-3.529324 8.04296,-3.788539 l 1.64528,-0.121523 -0.41784,0.627465 c -0.84801,1.273465 -1.21309,2.262023 -1.21589,3.292379 -0.005,1.848582 1.10437,2.732118 4.08485,3.253228 2.1783,0.380856 5.3906,0.240797 7.03152,-0.306581 1.60181,-0.534326 2.23088,-0.97258 4.5284,-3.154762 2.66008,-2.526537 4.34492,-3.288598 7.91037,-3.577897 l 1.59009,-0.129019 -0.46899,0.625058 c -1.38033,1.839655 -1.73653,3.739139 -0.917,4.89006 0.89625,1.258667 3.15301,1.890124 6.74668,1.887763 3.78442,-0.0025 5.29337,-0.624596 8.16521,-3.366347 2.80332,-2.676331 4.6949,-3.555599 8.33068,-3.872361 l 1.42536,-0.124182 -0.72251,1.117857 c -1.58931,2.458971 -1.29343,4.481658 0.79546,5.437985 1.37775,0.630753 2.62902,0.823459 5.34676,0.823446 4.04397,-1.9e-5 5.30328,-0.5252 8.47672,-3.535105 1.4758,-1.399746 2.39916,-2.1184 3.22776,-2.512161 1.36886,-0.650498 3.54586,-1.132725 5.11365,-1.132725 h 1.11982 l -0.45958,0.602535 c -1.23743,1.62236 -1.57053,3.593631 -0.79969,4.732552 0.87809,1.297383 3.04839,1.919854 6.66228,1.91083 2.66405,-0.0067 4.21555,-0.318608 5.58969,-1.123914 0.45116,-0.264396 1.72247,-1.335256 2.82512,-2.37969 2.79623,-2.648561 4.46952,-3.425242 7.93012,-3.680869 l 1.64195,-0.121287 -0.40227,0.564963 c -1.19555,1.678979 -1.6149,3.536472 -1.04654,4.635557 0.59575,1.152052 2.50419,1.941675 5.19225,2.148293 l 1.57126,0.120778 -0.11696,3.508771 c -0.0643,1.929824 -0.16177,5.700432 -0.21654,8.379129 -0.0548,2.678697 -0.14458,5.38726 -0.19959,6.01903 l -0.10003,1.148667 H 114.75202 10.007961 Z"
       id="path3238-7-1"
       transform="matrix(1.3526555,0,0,1.3526555,-36.346229,10.486091)" />
    <path
       style="fill:#c2e7ff;fill-opacity:1;stroke:none;stroke-width:0.183787;filter:url(#filter7699-1-6)"
       d="m -3.189723,78.387197 c 0,-3.673382 0.05422,-8.053567 0.12048,-9.733743 l 0.120481,-3.054866 0.844402,-0.104865 c 3.356955,-0.416892 4.430465,-0.935434 6.891338,-3.328746 1.000908,-0.973428 2.200119,-2.011091 2.664914,-2.305916 1.228616,-0.779328 3.474081,-1.430534 5.405428,-1.567624 l 1.670806,-0.118598 -0.417834,0.627466 c -1.683486,2.528104 -1.631481,4.41779 0.155042,5.633743 1.192266,0.811487 3.795552,1.239693 6.621057,1.089078 3.453609,-0.184098 4.594485,-0.717083 7.531031,-3.518289 2.751408,-2.6246 4.452226,-3.407695 8.032121,-3.698165 l 1.59009,-0.129019 -0.468291,0.625058 c -1.061326,1.416626 -1.537068,2.980923 -1.237041,4.06754 0.464037,1.680602 2.359999,2.514268 6.063099,2.665983 4.481751,0.183616 6.086589,-0.395826 9.160616,-3.307531 1.1821,-1.11968 2.470102,-2.150596 3.119027,-2.496469 1.319707,-0.703398 3.256132,-1.220746 5.253172,-1.403473 l 1.459357,-0.133529 -0.315851,0.432482 c -0.773708,1.059404 -1.407957,2.651749 -1.408102,3.53517 -2.65e-4,2.355591 2.139474,3.416322 6.891874,3.416322 4.195874,0 5.519833,-0.528239 8.538774,-3.406835 1.067154,-1.017543 2.311731,-2.064761 2.765726,-2.327151 1.26832,-0.733032 3.222665,-1.259637 5.11101,-1.377179 l 1.712539,-0.106598 -0.56669,0.839676 c -1.675879,2.483181 -1.453166,4.549891 0.59713,5.541201 1.445623,0.698951 2.553403,0.888876 5.274368,0.904268 4.16165,0.02354 5.30131,-0.435174 8.397197,-3.379899 2.903113,-2.761351 4.533493,-3.529324 8.042963,-3.788539 l 1.64528,-0.121523 -0.41784,0.627465 c -0.84801,1.273465 -1.21309,2.262023 -1.21589,3.292379 -0.005,1.848582 1.10437,2.732118 4.08485,3.253228 2.1783,0.380856 5.3906,0.240797 7.03152,-0.306581 1.60181,-0.534326 2.23088,-0.97258 4.5284,-3.154762 2.66008,-2.526537 4.34492,-3.288598 7.91037,-3.577897 l 1.59009,-0.129019 -0.46899,0.625058 c -1.38033,1.839655 -1.73653,3.739139 -0.917,4.89006 0.89625,1.258667 3.15301,1.890124 6.74668,1.887763 3.78442,-0.0025 5.29337,-0.624596 8.16521,-3.366347 2.80332,-2.676331 4.6949,-3.555599 8.33068,-3.872361 l 1.42536,-0.124182 -0.72251,1.117857 c -1.58931,2.458971 -1.29343,4.481658 0.79546,5.437985 1.37775,0.630753 2.62902,0.823459 5.34676,0.823446 4.04397,-1.9e-5 5.30328,-0.5252 8.47672,-3.535105 1.4758,-1.399746 2.39916,-2.1184 3.22776,-2.512161 1.36886,-0.650498 3.54586,-1.132725 5.11365,-1.132725 h 1.11982 l -0.45958,0.602535 c -1.23743,1.62236 -1.57053,3.593631 -0.79969,4.732552 0.87809,1.297383 3.04839,1.919854 6.66228,1.91083 2.66405,-0.0067 4.21555,-0.318608 5.58969,-1.123914 0.45116,-0.264396 1.72247,-1.335256 2.82512,-2.37969 2.79623,-2.648561 4.46952,-3.425242 7.93012,-3.680869 l 1.64195,-0.121287 -0.40227,0.564963 c -1.19555,1.678979 -1.6149,3.536472 -1.04654,4.635557 0.59575,1.152052 2.50419,1.941675 5.19225,2.148293 l 1.57126,0.120778 -0.11696,3.508771 c -0.0643,1.929824 -0.16177,5.700432 -0.21654,8.379129 -0.0548,2.678697 -0.14458,5.38726 -0.19959,6.01903 l -0.10003,1.148667 H 101.55433 -3.189723 Z"
       id="path3238-7-5-7"
       transform="matrix(1.4022708,0,0,1.4022708,-45.742179,0.41126837)" />
    <path
       style="fill:#c7e9ff;fill-opacity:1;stroke:none;stroke-width:0.183787;filter:url(#filter7699-1-0-5)"
       d="m 7.6818166,90.117469 c 0,-3.673382 0.05422,-8.053567 0.12048,-9.733743 l 0.120481,-3.054866 0.844402,-0.104865 c 3.3569544,-0.416892 4.4304644,-0.935434 6.8913374,-3.328746 1.000908,-0.973428 2.20012,-2.011091 2.664915,-2.305916 1.228616,-0.779328 3.474081,-1.430534 5.405428,-1.567624 l 1.670806,-0.118598 -0.417834,0.627466 c -1.683486,2.528104 -1.631481,4.41779 0.155042,5.633743 1.192266,0.811487 3.795552,1.239693 6.621057,1.089078 3.453609,-0.184098 4.594485,-0.717083 7.531031,-3.518289 2.751408,-2.6246 4.452226,-3.407695 8.032121,-3.698165 l 1.59009,-0.129019 -0.468291,0.625058 c -1.061326,1.416626 -1.537068,2.980923 -1.237041,4.06754 0.464037,1.680602 2.359999,2.514268 6.063099,2.665983 4.481751,0.183616 6.086589,-0.395826 9.160616,-3.307531 1.1821,-1.11968 2.470102,-2.150596 3.119027,-2.496469 1.319707,-0.703398 3.256132,-1.220746 5.253172,-1.403473 l 1.459357,-0.133529 -0.315851,0.432482 c -0.773708,1.059404 -1.407957,2.651749 -1.408102,3.53517 -2.65e-4,2.355591 2.139474,3.416322 6.891874,3.416322 4.195874,0 5.519833,-0.528239 8.538774,-3.406835 1.067154,-1.017543 2.311731,-2.064761 2.765726,-2.327151 1.26832,-0.733032 3.22267,-1.259637 5.11102,-1.377179 l 1.712533,-0.106598 -0.56669,0.839676 c -1.675873,2.483181 -1.453163,4.549891 0.59713,5.541201 1.44563,0.698951 2.55341,0.888876 5.274374,0.904268 4.16165,0.02354 5.30131,-0.435174 8.3972,-3.379899 2.90311,-2.761351 4.53349,-3.529324 8.04296,-3.788539 l 1.64528,-0.121523 -0.41784,0.627465 c -0.84801,1.273465 -1.21309,2.262023 -1.21589,3.292379 -0.005,1.848582 1.10437,2.732118 4.08485,3.253228 2.1783,0.380856 5.3906,0.240797 7.03152,-0.306581 1.60181,-0.534326 2.23088,-0.97258 4.5284,-3.154762 2.66008,-2.526537 4.34492,-3.288598 7.91037,-3.577897 l 1.59009,-0.129019 -0.46899,0.625058 c -1.38033,1.839655 -1.73653,3.739139 -0.917,4.89006 0.89625,1.258667 3.15301,1.890124 6.74668,1.887763 3.78442,-0.0025 5.29337,-0.624596 8.16521,-3.366347 2.80332,-2.676331 4.6949,-3.555599 8.33068,-3.872361 l 1.42536,-0.124182 -0.72251,1.117857 c -1.58931,2.458971 -1.29343,4.481658 0.79546,5.437985 1.37775,0.630753 2.62902,0.823459 5.34676,0.823446 4.04397,-1.9e-5 5.30328,-0.5252 8.47672,-3.535105 1.4758,-1.399746 2.39916,-2.1184 3.22776,-2.512161 1.36886,-0.650498 3.54586,-1.132725 5.11365,-1.132725 h 1.11982 l -0.45958,0.602535 c -1.23743,1.62236 -1.57053,3.593631 -0.79969,4.732552 0.87809,1.297383 3.04839,1.919854 6.66228,1.91083 2.66405,-0.0067 4.21555,-0.318608 5.58969,-1.123914 0.45116,-0.264396 1.72247,-1.335256 2.82512,-2.37969 2.79623,-2.648561 4.46952,-3.425242 7.93012,-3.680869 l 1.64195,-0.121287 -0.40227,0.564963 c -1.19555,1.678979 -1.6149,3.536472 -1.04654,4.635557 0.59575,1.152052 2.50419,1.941675 5.19225,2.148293 l 1.57126,0.120778 -0.11696,3.508771 c -0.0643,1.929824 -0.16177,5.700432 -0.21654,8.379129 -0.0548,2.678697 -0.14458,5.38726 -0.19959,6.01903 l -0.10003,1.148667 H 112.42588 7.6818166 Z"
       id="path3238-7-5-8-2"
       transform="matrix(1.5870752,0,0,1.5870752,-66.188279,-21.459215)" />
    <path
       style="fill:#ccebff;fill-opacity:1;stroke:none;stroke-width:0.184013;stroke-miterlimit:4;stroke-dasharray:none;filter:url(#filter7699-1-0-9-4)"
       d="m -7.1348513,102.28831 c 0,-3.673387 0.05422,-8.053571 0.12048,-9.733747 l 0.120481,-3.054865 0.844402,-0.104865 c 3.356955,-0.416892 4.430465,-0.935434 6.89133797,-3.328746 1.00090803,-0.973428 2.20012003,-2.011091 2.66491603,-2.305916 1.228616,-0.779328 3.474081,-1.430534 5.405428,-1.567624 L 10.583,82.073949 10.165166,82.701415 c -1.6834863,2.528104 -1.6314813,4.41779 0.155042,5.633743 1.192266,0.811487 3.795552,1.239693 6.621057,1.089078 3.453609,-0.184098 4.594485,-0.717083 7.531031,-3.518289 2.751408,-2.6246 4.452226,-3.407695 8.032121,-3.698165 l 1.59009,-0.129019 -0.468291,0.625058 c -1.061326,1.416626 -1.537068,2.980923 -1.237041,4.06754 0.464037,1.680602 2.359999,2.514268 6.063099,2.665983 4.481751,0.183616 6.086589,-0.395826 9.160616,-3.307531 1.1821,-1.11968 2.470102,-2.150596 3.119027,-2.496469 1.319707,-0.703398 3.256132,-1.220746 5.253172,-1.403473 l 1.459357,-0.133529 -0.315851,0.432482 c -0.773708,1.059404 -1.407957,2.651749 -1.408102,3.53517 -2.65e-4,2.35559 2.139474,3.416322 6.891874,3.416322 4.195874,0 5.519833,-0.528239 8.538774,-3.406835 1.067154,-1.017543 2.311731,-2.064761 2.765726,-2.327151 1.26832,-0.733033 3.22267,-1.259637 5.11102,-1.377179 l 1.71253,-0.106598 -0.56669,0.839676 c -1.67587,2.483181 -1.45316,4.549891 0.59713,5.541201 1.44563,0.698951 2.55341,0.888876 5.27438,0.904268 4.161647,0.02354 5.301307,-0.435174 8.39721,-3.379899 2.903107,-2.761351 4.533487,-3.529324 8.042963,-3.788539 l 1.64528,-0.121523 -0.41784,0.627465 c -0.84801,1.273465 -1.21309,2.262023 -1.21589,3.292379 -0.005,1.848582 1.10437,2.732118 4.08485,3.253228 2.1783,0.380856 5.3906,0.240797 7.03152,-0.306581 1.60181,-0.534326 2.23088,-0.97258 4.5284,-3.154762 2.66008,-2.526537 4.34492,-3.288598 7.91037,-3.577897 l 1.59009,-0.129019 -0.46899,0.625058 c -1.38033,1.839655 -1.73653,3.739139 -0.917,4.89006 0.89625,1.258667 3.15301,1.890124 6.74668,1.887763 3.78442,-0.0025 5.29337,-0.624596 8.16521,-3.366347 2.80332,-2.676331 4.6949,-3.555599 8.33068,-3.872361 l 1.42536,-0.124182 -0.72251,1.117857 c -1.58931,2.458971 -1.29343,4.481658 0.79546,5.437985 1.37775,0.630753 2.62902,0.823459 5.34676,0.823446 4.04397,-2e-5 5.30328,-0.5252 8.47672,-3.535106 1.4758,-1.399746 2.39916,-2.1184 3.22776,-2.51216 1.36886,-0.650498 3.54586,-1.132726 5.11365,-1.132726 h 1.11982 l -0.45958,0.602536 c -1.23743,1.62236 -1.57053,3.59363 -0.79969,4.732552 0.87809,1.297383 3.04839,1.919854 6.66228,1.910829 2.66405,-0.0067 4.21555,-0.318607 5.58969,-1.123914 0.45116,-0.264395 1.72247,-1.335256 2.82512,-2.379689 2.79623,-2.648561 4.46952,-3.425242 7.93012,-3.680869 l 1.64195,-0.121287 -0.40227,0.564963 c -1.19555,1.678979 -1.6149,3.536472 -1.04654,4.635557 0.59575,1.152052 2.50419,1.941675 5.19225,2.148293 l 1.57126,0.120778 -0.11696,3.508771 c -0.0643,1.929826 -0.16177,5.700436 -0.21654,8.379133 -0.0548,2.67869 -0.14458,5.38727 -0.19959,6.01904 l -0.10003,1.14867 H 97.609224 -7.1348513 Z"
       id="path3238-7-5-8-6-2"
       transform="matrix(1.6308644,0,0,1.6308644,-78.182042,-34.844194)" />
    <path
       style="fill:#d1edff;fill-opacity:1;stroke:none;stroke-width:0.183787;filter:url(#filter7699-5)"
       d="m 3.0933217,114.91721 c 0,-3.67338 0.05422,-8.05356 0.12048,-9.73373 l 0.120481,-3.05488 0.844402,-0.10487 c 3.356955,-0.41689 4.430465,-0.93543 6.8913383,-3.328748 1.000908,-0.973428 2.200119,-2.011088 2.664914,-2.305918 1.228616,-0.779326 3.474081,-1.430532 5.405428,-1.567622 l 1.670806,-0.118598 -0.417834,0.627466 c -1.683486,2.528104 -1.631481,4.417792 0.155042,5.63374 1.192266,0.8115 3.795552,1.2397 6.621057,1.08909 3.453609,-0.1841 4.594485,-0.71709 7.531031,-3.518298 2.751408,-2.6246 4.452226,-3.407695 8.032121,-3.698165 l 1.59009,-0.129019 -0.468291,0.625058 c -1.061326,1.416628 -1.537068,2.980918 -1.237041,4.067536 0.464037,1.680608 2.359999,2.514278 6.063099,2.665988 4.481751,0.18362 6.086589,-0.39582 9.160616,-3.307538 1.1821,-1.119678 2.470102,-2.150588 3.119027,-2.496463 1.319707,-0.703398 3.256132,-1.220746 5.253172,-1.403473 l 1.459357,-0.133529 -0.315851,0.432482 c -0.773708,1.059404 -1.407957,2.651745 -1.408102,3.535163 -2.65e-4,2.355598 2.139474,3.416338 6.891874,3.416338 4.195874,0 5.519833,-0.52824 8.538774,-3.406848 1.067154,-1.017538 2.311731,-2.064758 2.765726,-2.327148 1.26832,-0.733031 3.222665,-1.259636 5.11101,-1.377178 l 1.712539,-0.106598 -0.56669,0.839676 c -1.675879,2.48318 -1.453166,4.549886 0.59713,5.541206 1.445623,0.69895 2.553403,0.88888 5.274368,0.90427 4.161645,0.0235 5.301305,-0.43518 8.397195,-3.379908 2.90312,-2.761349 4.5335,-3.529322 8.04297,-3.788537 l 1.64528,-0.121523 -0.41784,0.627465 c -0.84801,1.273467 -1.21309,2.262027 -1.21589,3.292375 -0.005,1.848578 1.10437,2.732128 4.08485,3.253238 2.1783,0.38086 5.3906,0.2408 7.03152,-0.30658 1.60181,-0.53433 2.23088,-0.97259 4.5284,-3.154768 2.66008,-2.526538 4.34492,-3.288599 7.91037,-3.577898 l 1.59009,-0.129019 -0.46899,0.625058 c -1.38033,1.839651 -1.73653,3.739139 -0.917,4.890057 0.89625,1.25868 3.15301,1.89013 6.74668,1.88777 3.78442,-0.002 5.29337,-0.62459 8.16521,-3.366348 2.80332,-2.676334 4.6949,-3.555602 8.33068,-3.872364 l 1.42536,-0.124182 -0.72251,1.117857 c -1.58931,2.458969 -1.29343,4.481657 0.79546,5.437987 1.37775,0.63076 2.62902,0.82346 5.34676,0.82345 4.04397,-2e-5 5.30328,-0.5252 8.47672,-3.535108 1.4758,-1.399748 2.39916,-2.118398 3.22776,-2.512164 1.36886,-0.650498 3.54586,-1.132725 5.11365,-1.132725 h 1.11982 l -0.45958,0.602535 c -1.23743,1.622356 -1.57053,3.593624 -0.79969,4.732552 0.87809,1.29739 3.04839,1.91986 6.66228,1.91084 2.66405,-0.007 4.21555,-0.31861 5.58969,-1.12392 0.45116,-0.2644 1.72247,-1.335258 2.82512,-2.379698 2.79623,-2.648557 4.46952,-3.425238 7.93012,-3.680865 l 1.64195,-0.121287 -0.40227,0.564963 c -1.19555,1.678981 -1.6149,3.536469 -1.04654,4.635557 0.59575,1.15206 2.50419,1.94168 5.19225,2.1483 l 1.57126,0.12078 -0.11696,3.50878 c -0.0643,1.92981 -0.16177,5.70042 -0.21654,8.37912 -0.0548,2.67869 -0.14458,5.38726 -0.19959,6.01903 l -0.10003,1.14866 H 107.83738 3.0933217 Z"
       id="path3238-7-4"
       transform="matrix(1.8123887,0,0,1.8123887,-97.388029,-62.118855)" />
    <path
       style="fill:#d6efff;fill-opacity:1;stroke:none;stroke-width:0.183787;filter:url(#filter7699-1-3)"
       d="m -4.8126953,129.47315 c 0,-3.67338 0.05422,-8.05357 0.1204797,-9.73374 l 0.120481,-3.05487 0.844402,-0.10486 c 3.35695497,-0.41689 4.43046497,-0.93544 6.891338,-3.32874 1.000908,-0.97343 2.2001193,-2.01109 2.6649143,-2.30591 1.228616,-0.77933 3.474081,-1.43054 5.4054283,-1.56763 l 1.670806,-0.1186 -0.417834,0.62747 c -1.683486,2.5281 -1.631481,4.41778 0.155042,5.63373 1.192266,0.81149 3.795552,1.2397 6.621057,1.08908 3.453609,-0.1841 4.594485,-0.71708 7.531031,-3.51828 2.751408,-2.6246 4.452226,-3.40769 8.032121,-3.69816 l 1.59009,-0.12902 -0.468291,0.62506 c -1.061326,1.41662 -1.537068,2.98092 -1.237041,4.06753 0.464037,1.6806 2.359999,2.51426 6.063099,2.66598 4.481751,0.18362 6.086589,-0.39583 9.160616,-3.30752 1.1821,-1.11968 2.470102,-2.1506 3.119027,-2.49647 1.319707,-0.7034 3.256132,-1.22075 5.253172,-1.40347 l 1.459357,-0.13353 -0.315851,0.43248 c -0.773708,1.0594 -1.407957,2.65175 -1.408102,3.53517 -2.65e-4,2.35558 2.139474,3.41631 6.891874,3.41631 4.195874,0 5.519833,-0.52824 8.538774,-3.40682 1.067154,-1.01755 2.311731,-2.06476 2.765726,-2.32715 1.26832,-0.73304 3.222665,-1.25964 5.11101,-1.37718 l 1.712539,-0.1066 -0.56669,0.83967 c -1.675879,2.48319 -1.453166,4.54989 0.59713,5.54119 1.445623,0.69896 2.553403,0.88888 5.274368,0.90427 4.16165,0.0235 5.30131,-0.43517 8.397197,-3.37989 2.90311,-2.76135 4.533485,-3.52932 8.042955,-3.78854 l 1.64529,-0.12152 -0.41784,0.62747 c -0.84802,1.27346 -1.2131,2.26202 -1.2159,3.29238 -0.005,1.84857 1.10438,2.7321 4.08486,3.25321 2.1783,0.38086 5.3906,0.2408 7.03152,-0.30658 1.60181,-0.53432 2.23088,-0.97258 4.5284,-3.15475 2.66008,-2.52654 4.34492,-3.2886 7.91037,-3.5779 l 1.59009,-0.12901 -0.46899,0.62505 c -1.38033,1.83966 -1.73653,3.73913 -0.917,4.89005 0.89625,1.25867 3.15301,1.89013 6.74668,1.88777 3.78442,-0.003 5.29337,-0.6246 8.16521,-3.36634 2.80332,-2.67633 4.6949,-3.5556 8.33068,-3.87236 l 1.42536,-0.12418 -0.72251,1.11785 c -1.58931,2.45897 -1.29343,4.48165 0.79546,5.43798 1.37775,0.63075 2.62902,0.82346 5.34676,0.82344 4.04397,-1e-5 5.30328,-0.5252 8.47672,-3.53509 1.4758,-1.39975 2.39916,-2.1184 3.22776,-2.51216 1.36886,-0.6505 3.54586,-1.13273 5.11365,-1.13273 h 1.11982 l -0.45958,0.60254 c -1.23743,1.62236 -1.57053,3.59362 -0.79969,4.73254 0.87809,1.29738 3.04839,1.91985 6.66228,1.91083 2.66405,-0.007 4.21555,-0.31861 5.58969,-1.12391 0.45116,-0.2644 1.72247,-1.33526 2.82512,-2.37968 2.79623,-2.64857 4.46952,-3.42525 7.93012,-3.68087 l 1.64195,-0.12129 -0.40227,0.56496 c -1.19555,1.67898 -1.6149,3.53648 -1.04654,4.63555 0.59575,1.15205 2.50419,1.94167 5.19225,2.14829 l 1.57126,0.12078 -0.11696,3.50877 c -0.0643,1.92983 -0.16177,5.70043 -0.21654,8.37913 -0.0548,2.6787 -0.14458,5.38726 -0.19959,6.01903 l -0.10003,1.14867 H 99.931355 -4.8126953 Z"
       id="path3238-7-5-1"
       transform="matrix(2.0557245,0,0,2.0557245,-92.605001,-103.70551)" />
    <path
       style="fill:#dbf1ff;fill-opacity:1;stroke:none;stroke-width:0.183787;filter:url(#filter7699-1-0-1)"
       d="m 11.350511,144.37843 c 0,-3.67338 0.05422,-8.05356 0.12048,-9.73374 l 0.120481,-3.05486 0.844402,-0.10487 c 3.356955,-0.41689 4.430465,-0.93543 6.891338,-3.32874 1.000908,-0.97343 2.20012,-2.0111 2.664915,-2.30592 1.228616,-0.77933 3.474081,-1.43053 5.405428,-1.56762 l 1.670806,-0.1186 -0.417834,0.62746 c -1.683486,2.52811 -1.631481,4.41779 0.155042,5.63375 1.192266,0.81148 3.795552,1.23969 6.621057,1.08907 3.453609,-0.18409 4.594485,-0.71708 7.531031,-3.51828 2.751408,-2.6246 4.452226,-3.4077 8.032121,-3.69817 l 1.59009,-0.12902 -0.468291,0.62506 c -1.061326,1.41663 -1.537068,2.98092 -1.237041,4.06754 0.464037,1.6806 2.359999,2.51427 6.063099,2.66598 4.481751,0.18362 6.086589,-0.39582 9.160616,-3.30753 1.1821,-1.11968 2.470102,-2.15059 3.119027,-2.49647 1.319707,-0.7034 3.256132,-1.22074 5.253172,-1.40347 l 1.459357,-0.13353 -0.315851,0.43248 c -0.773708,1.05941 -1.407957,2.65175 -1.408102,3.53517 -2.65e-4,2.35559 2.139474,3.41632 6.891874,3.41632 4.195874,0 5.519833,-0.52823 8.538774,-3.40683 1.067154,-1.01754 2.311731,-2.06476 2.765726,-2.32715 1.26832,-0.73303 3.22267,-1.25964 5.11102,-1.37718 l 1.71253,-0.1066 -0.56669,0.83968 c -1.67587,2.48318 -1.45316,4.54989 0.59713,5.5412 1.445622,0.69895 2.553402,0.88887 5.274372,0.90427 4.16166,0.0235 5.30132,-0.43518 8.39721,-3.3799 2.90311,-2.76135 4.53349,-3.52933 8.04296,-3.78854 l 1.64528,-0.12152 -0.41784,0.62746 c -0.84801,1.27347 -1.21309,2.26202 -1.21589,3.29238 -0.005,1.84858 1.10437,2.73212 4.08485,3.25323 2.1783,0.38085 5.3906,0.24079 7.03152,-0.30658 1.60181,-0.53433 2.23088,-0.97258 4.5284,-3.15477 2.66008,-2.52653 4.34492,-3.28859 7.91037,-3.57789 l 1.59009,-0.12902 -0.46899,0.62506 c -1.38033,1.83965 -1.73653,3.73913 -0.917,4.89006 0.89625,1.25866 3.15301,1.89012 6.74668,1.88776 3.78442,-0.002 5.29337,-0.6246 8.16521,-3.36635 2.80332,-2.67633 4.6949,-3.5556 8.33068,-3.87236 l 1.42536,-0.12418 -0.72251,1.11786 c -1.58931,2.45897 -1.29343,4.48165 0.79546,5.43798 1.37775,0.63075 2.62902,0.82346 5.34676,0.82345 4.04397,-2e-5 5.30328,-0.5252 8.47672,-3.53511 1.4758,-1.39974 2.39916,-2.1184 3.22776,-2.51216 1.36886,-0.6505 3.54586,-1.13272 5.11365,-1.13272 h 1.11982 l -0.45958,0.60253 c -1.23743,1.62236 -1.57053,3.59363 -0.79969,4.73255 0.87809,1.29739 3.04839,1.91986 6.66228,1.91083 2.66405,-0.007 4.21555,-0.3186 5.58969,-1.12391 0.45116,-0.2644 1.72247,-1.33526 2.82512,-2.37969 2.79623,-2.64856 4.46952,-3.42524 7.93012,-3.68087 l 1.64195,-0.12129 -0.40227,0.56497 c -1.19555,1.67897 -1.6149,3.53647 -1.04654,4.63555 0.59575,1.15206 2.50419,1.94168 5.19225,2.1483 l 1.57126,0.12077 -0.11696,3.50878 c -0.0643,1.92982 -0.16177,5.70043 -0.21654,8.37912 -0.0548,2.6787 -0.14458,5.38726 -0.19959,6.01903 l -0.10003,1.14867 H 116.09458 11.350511 Z"
       id="path3238-7-5-8-3"
       transform="matrix(2.4164019,0,0,2.4164019,-153.24325,-166.34124)" />
    <path
       style="fill:#e0f3ff;fill-opacity:1;stroke:none;stroke-width:0.18363216;filter:url(#filter7699-1-0-9-0);stroke-miterlimit:4;stroke-dasharray:none"
       d="m -9.2869903,161.31177 c 0,-3.67338 0.05422,-8.05356 0.12048,-9.73374 l 0.120481,-3.05486 0.844402,-0.10487 c 3.356955,-0.41689 4.430465,-0.93543 6.891338,-3.32874 1.00090753,-0.97343 2.20012023,-2.0111 2.6649163,-2.30592 1.228616,-0.77933 3.4740813,-1.43053 5.4054273,-1.56762 l 1.670806,-0.1186 -0.417834,0.62746 c -1.683486,2.52811 -1.631481,4.41779 0.155042,5.63375 1.192266,0.81148 3.7955527,1.23969 6.6210577,1.08907 3.453609,-0.18409 4.594485,-0.71708 7.531031,-3.51828 2.751408,-2.6246 4.452226,-3.4077 8.032121,-3.69817 l 1.59009,-0.12902 -0.468291,0.62506 c -1.061326,1.41663 -1.537068,2.98092 -1.237041,4.06754 0.464037,1.6806 2.359999,2.51427 6.063099,2.66598 4.481751,0.18362 6.086589,-0.39582 9.160616,-3.30753 1.1821,-1.11968 2.470102,-2.15059 3.119027,-2.49647 1.319707,-0.7034 3.256132,-1.22074 5.253172,-1.40347 l 1.459357,-0.13353 -0.315851,0.43248 c -0.773708,1.05941 -1.407957,2.65175 -1.408102,3.53517 -2.65e-4,2.35559 2.139474,3.41632 6.891874,3.41632 4.195874,0 5.519833,-0.52823 8.538774,-3.40683 1.067154,-1.01754 2.311731,-2.06476 2.765726,-2.32715 1.26832,-0.73303 3.22267,-1.25964 5.11102,-1.37718 l 1.71253,-0.1066 -0.56669,0.83968 c -1.67587,2.48318 -1.45316,4.54989 0.59713,5.5412 1.44563,0.69895 2.55341,0.88887 5.27438,0.90427 4.161647,0.0235 5.301307,-0.43518 8.39721,-3.3799 2.903105,-2.76135 4.533485,-3.52933 8.042952,-3.78854 l 1.64528,-0.12152 -0.41784,0.62746 c -0.84801,1.27347 -1.21309,2.26202 -1.21589,3.29238 -0.005,1.84858 1.10437,2.73212 4.08485,3.25323 2.17831,0.38085 5.39061,0.24079 7.03153,-0.30658 1.60181,-0.53433 2.23088,-0.97258 4.5284,-3.15477 2.66008,-2.52653 4.34492,-3.28859 7.91037,-3.57789 l 1.59009,-0.12902 -0.46899,0.62506 c -1.38033,1.83965 -1.73653,3.73914 -0.917,4.89006 0.89625,1.25866 3.15301,1.89012 6.74668,1.88776 3.78442,-0.002 5.29337,-0.6246 8.16521,-3.36635 2.80332,-2.67633 4.6949,-3.5556 8.33068,-3.87236 l 1.42536,-0.12418 -0.72251,1.11786 c -1.58931,2.45897 -1.29343,4.48166 0.79546,5.43798 1.37775,0.63075 2.62902,0.82346 5.34676,0.82345 4.04397,-2e-5 5.30328,-0.5252 8.47672,-3.53511 1.4758,-1.39974 2.39916,-2.1184 3.22776,-2.51216 1.36886,-0.6505 3.54586,-1.13272 5.11365,-1.13272 h 1.11982 l -0.45958,0.60253 c -1.23743,1.62236 -1.57053,3.59363 -0.79969,4.73255 0.87809,1.29739 3.04839,1.91986 6.66228,1.91083 2.66405,-0.007 4.21555,-0.3186 5.58969,-1.12391 0.45116,-0.2644 1.72247,-1.33526 2.82512,-2.37969 2.79623,-2.64856 4.46952,-3.42524 7.93012,-3.68087 l 1.64195,-0.12129 -0.40227,0.56497 c -1.19555,1.67898 -1.6149,3.53647 -1.04654,4.63555 0.59575,1.15206 2.50419,1.94168 5.19225,2.1483 l 1.57126,0.12077 -0.11696,3.50878 c -0.0643,1.92982 -0.16177,5.70043 -0.21654,8.37912 -0.0548,2.6787 -0.14458,5.38726 -0.19959,6.01904 l -0.10003,1.14866 H 95.457083 -9.2869903 Z"
       id="path3238-7-5-8-6-1"
       transform="matrix(2.7228346,0,0,2.7228346,-181.93547,-236.20834)" />
  </g>
</svg>
