<?xml version="1.0" encoding="UTF-8" standalone="no"?>
<!-- Created with Inkscape (http://www.inkscape.org/) -->

<svg
   width="164.90071mm"
   height="137.13438mm"
   viewBox="0 0 164.90071 137.13438"
   version="1.1"
   id="svg5"
   sodipodi:docname="whaleshot.svg"
   inkscape:version="1.1.2 (b8e25be833, 2022-02-05)"
   xmlns:inkscape="http://www.inkscape.org/namespaces/inkscape"
   xmlns:sodipodi="http://sodipodi.sourceforge.net/DTD/sodipodi-0.dtd"
   xmlns="http://www.w3.org/2000/svg"
   xmlns:svg="http://www.w3.org/2000/svg">
  <sodipodi:namedview
     id="namedview7"
     pagecolor="#ffffff"
     bordercolor="#666666"
     borderopacity="1.0"
     inkscape:pageshadow="2"
     inkscape:pageopacity="0.0"
     inkscape:pagecheckerboard="0"
     inkscape:document-units="mm"
     showgrid="false"
     inkscape:snap-smooth-nodes="true"
     inkscape:object-paths="true"
     inkscape:zoom="1.4396184"
     inkscape:cx="370.58432"
     inkscape:cy="283.06112"
     inkscape:window-width="1920"
     inkscape:window-height="1001"
     inkscape:window-x="-9"
     inkscape:window-y="-9"
     inkscape:window-maximized="1"
     inkscape:current-layer="layer2"
     inkscape:snap-midpoints="true"
     inkscape:snap-intersection-paths="true"
     inkscape:snap-to-guides="false"
     inkscape:snap-grids="false"
     inkscape:snap-bbox="false"
     inkscape:snap-nodes="false"
     inkscape:snap-others="false"
     fit-margin-top="0"
     fit-margin-left="0"
     fit-margin-right="0"
     fit-margin-bottom="0" />
  <defs
     id="defs2">
    <rect
       x="179.90878"
       y="135.45258"
       width="354.26056"
       height="108.36205"
       id="rect7454" />
    <inkscape:path-effect
       effect="simplify"
       id="path-effect6910"
       is_visible="true"
       lpeversion="1"
       steps="1"
       threshold="0.00108696"
       smooth_angles="360"
       helper_size="0"
       simplify_individual_paths="false"
       simplify_just_coalesce="false" />
    <inkscape:path-effect
       effect="simplify"
       id="path-effect6821"
       is_visible="true"
       lpeversion="1"
       steps="1"
       threshold="0.00108696"
       smooth_angles="360"
       helper_size="0"
       simplify_individual_paths="false"
       simplify_just_coalesce="false" />
    <inkscape:path-effect
       effect="simplify"
       id="path-effect6672"
       is_visible="true"
       lpeversion="1"
       steps="1"
       threshold="0.000408163"
       smooth_angles="360"
       helper_size="0"
       simplify_individual_paths="false"
       simplify_just_coalesce="false" />
    <inkscape:path-effect
       effect="simplify"
       id="path-effect6616"
       is_visible="true"
       lpeversion="1"
       steps="1"
       threshold="0.000408163"
       smooth_angles="360"
       helper_size="0"
       simplify_individual_paths="false"
       simplify_just_coalesce="false" />
    <filter
       style="color-interpolation-filters:sRGB"
       inkscape:label="Drop Shadow"
       id="filter4102"
       x="-0.02869885"
       y="-0.040678194"
       width="1.0516579"
       height="1.090396">
      <feFlood
         flood-opacity="0.168627"
         flood-color="rgb(0,0,0)"
         result="flood"
         id="feFlood4092" />
      <feComposite
         in="flood"
         in2="SourceGraphic"
         operator="in"
         result="composite1"
         id="feComposite4094" />
      <feGaussianBlur
         in="composite1"
         stdDeviation="1.5"
         result="blur"
         id="feGaussianBlur4096" />
      <feOffset
         dx="-0.9"
         dy="0.8"
         result="offset"
         id="feOffset4098" />
      <feComposite
         in="SourceGraphic"
         in2="offset"
         operator="over"
         result="composite2"
         id="feComposite4100" />
    </filter>
    <rect
       x="179.90878"
       y="135.45258"
       width="354.26056"
       height="108.36205"
       id="rect7454-1" />
    <filter
       style="color-interpolation-filters:sRGB"
       inkscape:label="Drop Shadow"
       id="filter2937"
       x="-0.070496548"
       y="-0.10191164"
       width="1.1308038"
       height="1.2210419">
      <feFlood
         flood-opacity="0.0705882"
         flood-color="rgb(2,0,0)"
         result="flood"
         id="feFlood2927" />
      <feComposite
         in="flood"
         in2="SourceGraphic"
         operator="in"
         result="composite1"
         id="feComposite2929" />
      <feGaussianBlur
         in="composite1"
         stdDeviation="1.3"
         result="blur"
         id="feGaussianBlur2931" />
      <feOffset
         dx="-1"
         dy="1"
         result="offset"
         id="feOffset2933" />
      <feComposite
         in="SourceGraphic"
         in2="offset"
         operator="over"
         result="composite2"
         id="feComposite2935" />
    </filter>
  </defs>
  <g
     inkscape:label="outlines"
     inkscape:groupmode="layer"
     id="layer1"
     style="display:none"
     transform="translate(-15.173933,-12.318114)">
    <path
       style="fill:none;stroke:#000000;stroke-width:0.274038px;stroke-linecap:butt;stroke-linejoin:miter;stroke-opacity:1"
       d="m 27.714623,114.13181 c -0.439933,2.46058 -4.801065,12.18458 -3.745999,14.15161 1.569231,2.92562 9.571356,4.25487 13.209579,3.12438 7.063939,-3.6115 12.505251,-5.812 19.912947,-7.53528 6.166458,-1.64236 12.394513,-2.56686 18.730001,-4.04331 3.449873,-0.51634 6.762473,-1.79179 9.660734,-3.12438 4.674525,-2.17876 23.084675,-15.89369 25.630525,-19.84901 6.60049,-9.24682 16.74037,-14.798862 25.03905,-14.88676 3.98326,0.333957 12.80575,-0.120862 15.18116,3.30817 1.36202,2.53928 -0.73605,4.94997 -1.3801,7.35148 -0.39031,1.45536 1.22493,6.38761 2.25893,7.35149 3.95796,0.70066 2.05662,-6.046483 8.59812,-10.292083 4.93577,-5.903187 14.7747,-1.47808 10.83032,-4.778467 -4.63752,-3.88036 -8.25847,-1.656214 -11.80273,-3.308166 -3.05187,-1.422448 -5.11295,-3.124136 -8.30738,-4.778464 C 131.69193,66.549408 102.4161,57.623239 79.764309,63.95792 37.190837,73.858418 31.893995,92.05031 27.714623,114.13181 Z"
       id="path7105"
       sodipodi:nodetypes="cscccccccsccssscc" />
    <path
       style="fill:none;stroke:#000000;stroke-width:0.274038px;stroke-linecap:butt;stroke-linejoin:miter;stroke-opacity:1"
       d="m 29.549694,131.31296 c 2.872074,6.40548 13.624166,5.57073 19.852295,2.66786 4.801538,-2.23796 8.317636,-4.78997 13.603896,-6.43255 4.206219,-1.30699 8.571092,-1.7577 13.012421,-2.9406 4.570552,-1.21731 9.449958,-2.9588 13.603895,-4.41089 9.536779,-4.74404 19.627189,-16.18752 24.805189,-24.627473 3.07052,-4.174891 7.68477,-8.571621 11.0783,-11.021021"
       id="path10194"
       sodipodi:nodetypes="csssccc" />
    <path
       style="fill:none;stroke:#000000;stroke-width:0.264583px;stroke-linecap:butt;stroke-linejoin:miter;stroke-opacity:1"
       d="m 44.5684,135.58587 c 8.355505,3.34954 17.867813,1.73621 26.557219,3.90856 8.454271,2.11357 18.0677,2.72853 26.097772,-1.28651 8.499199,-5.80629 18.895889,-17.27036 23.157179,-26.09777 2.8853,-6.34767 4.6665,-13.42522 9.37314,-18.131864 3.38466,-3.524287 8.76092,-7.524868 13.18808,-9.848375 1.17068,-0.585338 7.21016,0.109371 8.39083,1.147312"
       id="path10440"
       sodipodi:nodetypes="csccccc" />
    <path
       style="fill:none;stroke:#000000;stroke-width:0.25476px;stroke-linecap:butt;stroke-linejoin:miter;stroke-opacity:1"
       d="m 49.401781,133.93626 c 7.679759,3.37869 16.422764,1.75132 24.409419,3.94258 7.770537,2.13196 16.60648,2.75228 23.987129,-1.29771 7.811831,-5.85682 17.367691,-17.42067 21.284361,-26.32491 2.65195,-6.40292 4.28909,-12.49335 8.61509,-17.240958 4.66373,-4.079311 8.76906,-7.852534 12.83818,-10.196262 1.076,-0.590433 5.91036,-0.676207 6.99555,0.370767"
       id="path10440-6"
       sodipodi:nodetypes="csccccc" />
    <path
       style="fill:none;stroke:#000000;stroke-width:0.237684px;stroke-linecap:butt;stroke-linejoin:miter;stroke-opacity:1"
       d="m 54.597563,131.38461 c 6.998724,3.22711 14.966407,1.67276 22.244813,3.76571 7.081452,2.03632 15.133832,2.62881 21.859968,-1.2395 7.119096,-5.59408 15.827546,-16.63916 19.396896,-25.14394 2.41677,-6.11568 3.90874,-11.932888 7.85111,-16.467508 4.25015,-3.89631 8.63468,-7.867844 12.34295,-10.106428"
       id="path10440-6-8"
       sodipodi:nodetypes="cscccc" />
    <path
       style="fill:none;stroke:#000000;stroke-width:0.218871px;stroke-linecap:butt;stroke-linejoin:miter;stroke-opacity:1"
       d="m 58.186187,129.43361 c 6.337876,3.02178 13.553219,1.56633 20.14437,3.5261 6.412789,1.90677 13.704831,2.46156 19.795864,-1.16062 6.446879,-5.23816 14.333039,-15.58049 17.565359,-23.54414 2.18857,-5.72657 3.53967,-11.173656 7.10977,-15.419758 3.84884,-3.648404 7.69633,-8.493357 11.05443,-10.589509"
       id="path10440-6-8-6"
       sodipodi:nodetypes="cscccc" />
    <path
       style="fill:none;stroke:#000000;stroke-width:0.199037px;stroke-linecap:butt;stroke-linejoin:miter;stroke-opacity:1"
       d="m 64.226435,127.08433 c 5.4756,2.89247 11.709288,1.49931 17.403703,3.37522 5.540323,1.82516 11.840271,2.3562 17.10261,-1.11097 5.569772,-5.01398 12.383012,-14.91372 15.175572,-22.53658 1.89081,-5.48151 3.05809,-10.695489 6.14248,-14.759882 3.3252,-3.492274 6.25227,-6.722514 9.15351,-8.728969"
       id="path10440-6-8-2"
       sodipodi:nodetypes="cscccc" />
    <path
       style="fill:none;stroke:#000000;stroke-width:0.165055px;stroke-linecap:butt;stroke-linejoin:miter;stroke-opacity:1"
       d="m 72.505631,125.7928 c 3.987418,2.73149 8.52689,1.41586 12.673649,3.18737 4.034548,1.72358 8.622271,2.22506 12.45439,-1.04914 4.05599,-4.73492 12.52634,-13.56386 14.55993,-20.76246 1.37692,-5.17644 4.04635,-12.82933 6.29245,-16.667517"
       id="path10440-6-8-2-5"
       sodipodi:nodetypes="csccc" />
    <path
       style="fill:none;stroke:#000000;stroke-width:0.135843px;stroke-linecap:butt;stroke-linejoin:miter;stroke-opacity:1"
       d="m 77.056502,124.20205 c 3.200332,2.30523 7.363576,1.8447 10.691796,3.33976 3.238159,1.45461 6.660389,0.96813 9.736074,-1.79512 3.255368,-3.99602 10.313648,-10.53747 11.945828,-16.61271 1.10512,-4.36863 3.24763,-10.827264 5.05036,-14.06649"
       id="path10440-6-8-2-5-3"
       sodipodi:nodetypes="csccc" />
    <path
       style="fill:none;stroke:#000000;stroke-width:0.102416px;stroke-linecap:butt;stroke-linejoin:miter;stroke-opacity:1"
       d="m 81.985077,122.96879 c 2.435597,1.72172 5.604013,1.37776 8.136938,2.49438 2.464385,1.08642 5.068856,0.72308 7.409588,-1.34072 2.477487,-2.98453 7.849157,-7.87017 9.091317,-12.40761 0.84105,-3.26282 2.4716,-8.0866 3.84355,-10.5059"
       id="path10440-6-8-2-5-3-4"
       sodipodi:nodetypes="csccc" />
    <path
       style="fill:none;stroke:#000000;stroke-width:0.0764789px;stroke-linecap:butt;stroke-linejoin:miter;stroke-opacity:1"
       d="m 85.421385,121.64346 c 1.837084,1.27288 4.2269,1.01859 6.137397,1.84412 1.858791,0.8032 3.823247,0.53458 5.588781,-0.9912 1.868673,-2.2065 5.920327,-5.81849 6.857247,-9.17305 0.63437,-2.41223 1.86424,-5.97849 2.89905,-7.7671"
       id="path10440-6-8-2-5-3-4-2"
       sodipodi:nodetypes="csccc" />
    <path
       style="fill:none;stroke:#000000;stroke-width:0.0536757px;stroke-linecap:butt;stroke-linejoin:miter;stroke-opacity:1"
       d="m 88.274448,120.42762 c 1.32695,0.86804 3.053144,0.69461 4.43312,1.25759 1.342629,0.54771 2.761576,0.36455 4.036852,-0.67596 1.34976,-1.50469 4.27633,-3.96787 4.95308,-6.25549 0.45821,-1.645 1.34656,-4.07698 2.09401,-5.29671"
       id="path10440-6-8-2-5-3-4-2-6"
       sodipodi:nodetypes="csccc" />
    <path
       style="fill:none;stroke:#000000;stroke-width:0.264583px;stroke-linecap:butt;stroke-linejoin:miter;stroke-opacity:1"
       d="m 122.33252,66.233064 c 5.46371,1.395722 9.32213,-4.502783 14.61108,-4.502783 0.74263,0 4.55617,-0.106762 3.85953,1.28651 -1.10492,2.209834 -5.88119,-0.21925 -5.88119,7.167697"
       id="path14021"
       sodipodi:nodetypes="cssc" />
    <path
       style="fill:none;stroke:#000000;stroke-width:0.264583px;stroke-linecap:butt;stroke-linejoin:miter;stroke-opacity:1"
       d="m 65.060644,105.86139 c 5.711431,2.74881 17.111789,-7.51569 20.951732,-3.67575 1.183468,1.18347 1.086456,3.84327 2.021658,4.77847 0.431159,0.43116 1.120743,0.036 1.470297,0.73515"
       id="path15155" />
    <path
       style="fill:none;stroke:#000000;stroke-width:0.264583px;stroke-linecap:butt;stroke-linejoin:miter;stroke-opacity:1"
       d="m 66.898514,106.41275 c 1.261999,0.2874 2.363422,1.02425 3.308167,1.65408 2.98041,1.98694 3.951163,2.9406 8.637995,2.9406 0.598974,0 1.529413,0.12467 1.837873,-0.18379 0.414925,-0.41493 1.956181,-0.11831 2.389232,-0.55136 0.306311,-0.30632 1.347772,0.12252 1.654085,-0.18379 0.303649,-0.30365 6.29452,-1.7231 4.594677,-2.57302"
       id="path15157" />
    <path
       style="fill:none;stroke:#000000;stroke-width:0.264583px;stroke-linecap:butt;stroke-linejoin:miter;stroke-opacity:1"
       d="m 87.647065,113.13265 c 8.7538,-2.5256 12.0157,1.13749 19.665225,4.96225 7.14686,3.57343 12.12177,3.12983 18.74628,-1.28651 1.02438,-0.68292 3.39347,-1.85752 4.04332,-2.94059 0.56613,-0.94355 6.04278,-5.35202 4.2271,-7.1677 -3.69864,-3.69865 -9.82837,0.15457 -14.1516,-1.28651 -2.81761,-0.93921 -6.54592,-1.28651 -9.55694,-1.28651 -0.91229,0 -5.48377,0.76499 -6.06497,0.18378 -1.3855,-1.38549 -2.57302,-1.55647 -2.57302,-3.85952"
       id="path14618"
       sodipodi:nodetypes="csssssssc" />
  </g>
  <g
     inkscape:groupmode="layer"
     id="layer2"
     inkscape:label="color"
     transform="translate(-15.173933,-12.318114)">
    <ellipse
       style="opacity:0.998172;fill:#bee5fa;fill-opacity:1;stroke:#82d8fa;stroke-width:5.59739055;stroke-linecap:round;stroke-linejoin:round;stroke-miterlimit:4;stroke-dasharray:none;stroke-dashoffset:133.569;stroke-opacity:1;paint-order:fill markers stroke;filter:url(#filter2937)"
       id="path29376"
       cx="80.682556"
       cy="44.476482"
       rx="49.071163"
       ry="29.038368"
       transform="matrix(0.89364597,0,0,0.92606201,7.5351752,12.520585)" />
    <path
       style="fill:#ffffff;fill-opacity:1;stroke:none;stroke-width:0.264583px;stroke-linecap:butt;stroke-linejoin:miter;stroke-opacity:1;filter:url(#filter4102)"
       d="M 29.038367,92.077354 C 20.727821,118.136 15.59401,126.19728 23.892327,134.53218 c 6.717953,6.71796 28.422515,6.7384 37.86015,8.08664 12.563276,1.79475 18.74613,4.15364 31.611386,0.55136 7.943857,-2.62211 12.441337,-5.46457 16.724627,-11.39481 6.8184,-10.6471 25.51098,-7.79149 27.2005,-23.70854 0.54091,-1.35227 0.57594,-3.77992 2.20544,-4.59467 1.17243,-0.58622 2.29351,-1.48131 3.67575,-1.65409 3.06261,-0.38282 10.26079,3.32902 12.49752,1.83787 3.62519,-2.41679 4.99153,-9.025085 8.82179,-11.578586 3.61926,-2.412847 10.34531,-1.629993 11.94616,-6.432551 0.52402,-1.572069 -4.38427,-5.22462 -5.6974,-5.881187 -6.92213,-3.461062 -14.41462,-5.708173 -21.13552,-9.740717 -1.23787,-0.74272 -3.49196,-0.938054 -3.49196,-2.57302 0,-2.391942 4.46895,-4.352835 1.83787,-6.983912 -4.05519,-4.055195 -8.53885,-4.561007 -13.96782,-3.308168 -2.08371,0.480853 -6.78545,4.099685 -10.84345,4.043318 C 100.89338,57.791369 84.12284,57.841682 70.57426,60.649755 50.872261,65.549344 34.304973,74.798622 29.038367,92.077354 Z"
       id="path1009"
       sodipodi:nodetypes="ccscccssssssssssccc"
       transform="matrix(0.888312,0,0,0.89810119,8.3304411,15.248461)" />
    <ellipse
       style="fill:#82d8fa;fill-opacity:1;stroke:none;stroke-width:0.504653;stroke-dasharray:1.51396, 0.504653;stroke-opacity:0.389685"
       id="path29193"
       cx="76.326057"
       cy="109.90405"
       rx="4.5022564"
       ry="4.4351568" />
    <ellipse
       style="fill:#000000;fill-opacity:1;stroke:none;stroke-width:0.321625;stroke-dasharray:0.964872, 0.321625;stroke-opacity:0.389685"
       id="path29193-9"
       cx="76.53244"
       cy="110.07511"
       rx="2.8288383"
       ry="2.8670919" />
    <path
       style="fill:#bee5fa;fill-opacity:1;stroke:none;stroke-width:0.495749;stroke-dasharray:1.48725, 0.495749;stroke-opacity:0.389685"
       d="m 123.69182,76.572017 c -3.53719,-1.194027 -5.1877,-1.419844 -4.12095,-1.398303 0.22222,0.0045 2.66834,-1.301998 4.82868,-2.173383 l 3.77161,-1.5213 c 3.76851,-1.017753 5.72324,-0.664965 4.81533,0.513531 -0.16362,0.199318 -0.94146,0.338205 -1.53983,0.727533 -1.9853,1.291728 -3.08523,2.333761 -3.43463,4.123663 -0.11808,0.604914 -0.22976,1.091548 -0.31058,1.070478 -0.0808,-0.02108 -1.88516,-0.625069 -4.00963,-1.342219 z"
       id="path16683"
       sodipodi:nodetypes="sssccssss" />
    <path
       style="fill:#eaf7fd;fill-opacity:1;stroke:none;stroke-width:0.495749;stroke-dasharray:1.48725, 0.495749;stroke-opacity:0.389685"
       d="m 39.783933,136.85336 c -0.669201,-0.18215 -1.552336,-0.50194 -1.962522,-0.71065 -0.763677,-0.38856 -2.477431,-1.92537 -2.477431,-2.22164 0,-0.0907 1.220804,-0.15031 2.712899,-0.1325 l 2.712898,0.0324 3.463273,-1.66735 c 7.255979,-3.49332 11.782384,-4.92752 22.626724,-7.16936 13.211617,-2.73123 14.225564,-3.01476 18.092566,-5.05924 3.773408,-1.995 13.323128,-9.0613 18.73962,-13.86636 1.29769,-1.1512 2.9866,-2.92604 3.75312,-3.94408 0.76652,-1.01805 2.07569,-2.581925 2.90926,-3.475294 1.57703,-1.690159 5.02762,-4.60979 5.44427,-4.60654 0.13181,9.51e-4 -0.38786,0.605028 -1.15482,1.342219 -0.76696,0.737191 -2.11046,2.180693 -2.98554,3.207784 -0.87508,1.027088 -1.66167,1.919951 -1.74797,1.984151 -0.0863,0.0642 -0.33807,0.47402 -0.55948,0.91073 -0.63371,1.24993 -3.4498,5.13788 -5.62898,7.77148 -5.214875,6.30232 -12.553973,12.4936 -16.468436,13.89282 -7.736844,2.76551 -11.172321,3.7769 -16.89817,4.97472 -6.970415,1.45817 -7.838721,1.78903 -16.309553,6.21464 -2.614796,1.36611 -4.704867,2.14006 -7.111077,2.63324 -1.700155,0.34846 -5.689954,0.28645 -7.150651,-0.11114 z"
       id="path16915" />
    <path
       style="fill:#eaf7fd;fill-opacity:1;stroke:none;stroke-width:0.495749;stroke-dasharray:1.48725, 0.495749;stroke-opacity:0.389685"
       d="m 80.481986,141.7316 c -2.40765,-0.17192 -5.181922,-0.60002 -8.080971,-1.24698 -3.71963,-0.83007 -5.657384,-1.08815 -10.505267,-1.39913 -5.165096,-0.33132 -7.808857,-0.64334 -10.274379,-1.21257 -2.61074,-0.60276 -3.000598,-0.79562 -2.074701,-1.02634 0.379164,-0.0945 1.121119,-0.35732 1.648786,-0.58407 0.941602,-0.40463 0.99227,-0.40172 2.732284,0.15692 2.486041,0.79817 5.04201,1.19117 10.507746,1.61565 5.321692,0.41329 6.784389,0.62103 9.93127,1.41048 3.578328,0.89768 6.389383,1.26921 9.610723,1.27021 5.013341,0.002 9.362395,-1.14692 12.155345,-3.2099 2.025109,-1.49582 7.781508,-7.39934 10.184498,-10.44478 2.42339,-3.07129 5.21526,-7.23223 6.66735,-9.93686 0.58114,-1.08242 1.85324,-4.01637 2.82688,-6.5199 2.00799,-5.16315 3.62834,-8.46051 5.07038,-10.31807 1.70388,-2.19484 9.85944,-9.054458 12.20092,-10.262158 1.13342,-0.584595 3.30953,-0.62202 5.54929,-0.09544 2.26661,0.532897 2.7096,0.88335 0.84095,0.665272 -2.44347,-0.285159 -3.95088,-0.180082 -4.96439,0.346057 -1.65019,0.856656 -5.56658,3.628847 -7.95058,5.627768 -4.84582,4.063091 -6.18719,6.114911 -9.71377,14.858571 -0.99829,2.47511 -2.15323,5.1147 -2.56654,5.86576 -4.82045,8.75949 -16.03039,20.50973 -21.661046,22.70507 -3.194396,1.24547 -8.454215,1.99726 -12.134778,1.73444 z"
       id="path23194" />
    <path
       style="fill:#eaf7fd;fill-opacity:1;stroke:none;stroke-width:0.495749;stroke-dasharray:1.48725, 0.495749;stroke-opacity:0.389685"
       d="m 78.750351,139.9141 c -0.952401,-0.17214 -3.082316,-0.63399 -4.733142,-1.02633 -2.912756,-0.69226 -5.397311,-1.02978 -9.697168,-1.31734 -3.697706,-0.2473 -6.422112,-0.6008 -8.427301,-1.09349 -3.117521,-0.766 -3.126258,-0.78284 -1.011992,-1.95092 l 1.82009,-1.00556 1.63997,0.55764 c 2.231557,0.75879 4.920324,1.18379 10.250604,1.62026 2.476242,0.20276 5.333443,0.56266 6.349336,0.79976 1.015893,0.2371 2.785834,0.649 3.933202,0.91534 6.321318,1.46735 12.861754,0.87468 16.961885,-1.53703 1.416953,-0.83345 7.118035,-6.63209 9.470285,-9.63234 2.24878,-2.86828 5.08223,-7.13754 6.57655,-9.90911 0.58072,-1.07707 1.83608,-4.03636 2.78969,-6.5762 3.00948,-8.01535 4.15381,-10.011684 7.48804,-13.063198 2.94443,-2.694757 6.13917,-5.353333 7.86856,-6.54799 1.31321,-0.907167 1.65264,-1.042843 2.26741,-0.906329 l 0.72301,0.16055 -1.33312,0.872127 c -1.66429,1.08878 -5.28777,4.029452 -8.2442,6.690661 -3.69486,3.325909 -4.90073,5.317589 -7.99506,13.205059 -2.16265,5.51262 -3.00419,7.17982 -5.63945,11.17241 -4.87909,7.39217 -12.417374,15.33927 -16.191144,17.06924 -2.853687,1.30818 -4.694613,1.66073 -9.093933,1.74154 -2.675526,0.0491 -4.625467,-0.0315 -5.772122,-0.23875 z"
       id="path23233" />
    <path
       style="fill:#eaf7fd;fill-opacity:1;stroke:none;stroke-width:0.495749;stroke-dasharray:1.48725, 0.495749;stroke-opacity:0.389685"
       d="m 82.862478,137.67799 c -0.976492,-0.1126 -3.314201,-0.57242 -5.194913,-1.02183 -3.799146,-0.90784 -5.54929,-1.16537 -10.461463,-1.53943 -4.484849,-0.34153 -6.874366,-0.77315 -9.174127,-1.65716 l -0.614955,-0.23638 1.225659,-0.70771 1.22566,-0.70772 1.879524,0.59679 c 2.241875,0.71185 3.810146,0.96493 8.113416,1.30928 4.112209,0.32906 5.601998,0.56443 8.915405,1.40857 4.982824,1.26946 8.856903,1.40722 12.590035,0.44773 2.956442,-0.75987 4.30332,-1.62619 7.37472,-4.74348 6.555571,-6.65351 10.761711,-13.2459 13.751401,-21.55295 1.64729,-4.5771 3.04489,-7.66792 4.18527,-9.25587 1.12872,-1.571697 8.6589,-9.269151 9.93841,-10.159178 0.89435,-0.622108 1.2574,-0.72982 2.45994,-0.72982 h 1.41075 l -1.99497,1.521222 c -1.98244,1.511665 -5.59831,4.637319 -7.86826,6.801519 -1.30903,1.248044 -3.02595,3.804527 -3.93929,5.865597 -0.3253,0.73409 -1.36283,3.38305 -2.30561,5.88658 -0.94278,2.50353 -2.24029,5.54978 -2.88336,6.76945 -2.80165,5.31373 -6.76417,10.60976 -11.666132,15.59214 -3.113006,3.16407 -3.709323,3.66228 -5.238403,4.37654 -3.279383,1.53187 -7.754756,2.19432 -11.728707,1.73611 z"
       id="path23272" />
    <path
       style="fill:#eaf7fd;fill-opacity:1;stroke:none;stroke-width:0.495749;stroke-dasharray:1.48725, 0.495749;stroke-opacity:0.389685"
       d="m 82.559951,135.48144 c -1.015893,-0.1755 -3.117563,-0.63868 -4.670379,-1.02929 -1.981021,-0.49832 -4.116306,-0.82125 -7.157434,-1.08245 -5.064207,-0.43496 -6.568626,-0.66847 -8.585655,-1.33264 -1.420322,-0.4677 -1.458099,-0.49961 -0.923539,-0.78009 0.306551,-0.16085 1.354335,-0.57739 2.328411,-0.92565 l 1.77105,-0.63319 1.265667,0.47877 c 1.660935,0.62828 4.39732,1.1084 8.237233,1.44526 1.714323,0.1504 3.87021,0.47246 4.790863,0.7157 0.920653,0.24324 2.464766,0.65104 3.431358,0.90623 3.958219,1.04501 8.204274,0.77699 11.418227,-0.72074 1.345331,-0.62694 1.995957,-1.14718 3.666223,-2.93149 5.733884,-6.1254 10.026884,-13.48439 12.710834,-21.78869 0.76765,-2.37514 1.92128,-5.40847 2.56363,-6.74073 1.08508,-2.250484 1.39177,-2.653958 4.32416,-5.688639 3.93431,-4.071549 5.30883,-5.164002 7.08848,-5.633853 0.74716,-0.19726 1.37786,-0.336678 1.40156,-0.309815 0.0237,0.02686 -0.54466,0.574058 -1.26302,1.215988 -0.71836,0.641931 -2.97448,2.907361 -5.0136,5.034287 -3.48599,3.636096 -3.7843,4.019622 -4.99312,6.419302 -0.70709,1.4037 -1.982,4.49547 -2.83314,6.87061 -1.67462,4.67309 -3.01708,7.44446 -5.37103,11.08789 -2.51995,3.90039 -4.87054,6.84651 -8.140054,10.2024 -3.372317,3.46141 -4.354509,4.09965 -7.619424,4.95116 -2.053773,0.53565 -6.132276,0.66616 -8.427301,0.26967 z"
       id="path23311" />
    <path
       style="fill:#eaf7fd;fill-opacity:1;stroke:none;stroke-width:0.495749;stroke-dasharray:1.48725, 0.495749;stroke-opacity:0.389685"
       d="m 84.522473,133.13238 c -0.825413,-0.16728 -2.411613,-0.5718 -3.524889,-0.89893 -1.113276,-0.32713 -3.087343,-0.7084 -4.386814,-0.84727 -1.299472,-0.13886 -3.34971,-0.35874 -4.556083,-0.48861 -2.156172,-0.23213 -4.628952,-0.77119 -5.310354,-1.15765 -0.470984,-0.26712 -0.276619,-0.33146 3.056949,-1.01183 2.23432,-0.45602 2.755287,-0.49882 2.964816,-0.24357 0.508805,0.61983 2.935434,1.30613 6.117944,1.7303 1.790252,0.2386 3.8692,0.65827 4.619882,0.93258 4.599709,1.68082 7.068538,1.76028 9.982152,0.32128 2.600548,-1.28439 11.604944,-12.61954 13.653844,-17.18811 0.36679,-0.81784 1.0986,-2.95122 1.62625,-4.74083 1.00642,-3.41348 3.15262,-9.28535 4.04749,-11.073737 0.78681,-1.572413 5.56678,-6.135957 7.42679,-7.090525 1.39792,-0.717416 1.19271,-0.373436 -1.13155,1.896723 -5.14972,5.029862 -6.15073,6.676933 -8.61047,14.167719 -0.81457,2.48068 -1.897,5.42058 -2.4054,6.53313 -3.3147,7.25372 -10.310197,16.44318 -13.798844,18.1265 -2.735475,1.31991 -6.428909,1.71029 -9.771713,1.03283 z"
       id="path23350" />
    <path
       style="fill:#eaf7fd;fill-opacity:1;stroke:none;stroke-width:0.495749;stroke-dasharray:1.48725, 0.495749;stroke-opacity:0.389685"
       d="m 87.17765,131.91137 c -0.253972,-0.0629 -1.503085,-0.46474 -2.775805,-0.89307 -1.494965,-0.50312 -3.361154,-0.90927 -5.272347,-1.14745 -2.776442,-0.346 -5.260129,-0.99842 -5.772366,-1.5163 -0.252721,-0.25551 -0.276817,-0.24543 1.960839,-0.82036 1.501902,-0.3859 1.550568,-0.38379 2.505853,0.10893 0.535813,0.27637 2.34013,0.80292 4.009592,1.17013 1.669462,0.3672 3.814621,0.94839 4.767022,1.29152 2.306396,0.83095 4.193423,0.73122 6.33523,-0.33481 1.29018,-0.64215 1.886401,-1.19887 4.595506,-4.2911 1.71214,-1.95426 3.537956,-4.09388 4.057376,-4.75469 1.71912,-2.18711 3.39957,-5.13649 3.92433,-6.88763 2.61703,-8.73312 3.82256,-11.72933 5.47994,-13.61982 0.98201,-1.120126 0.95561,-0.962449 -0.46311,2.7658 -0.57886,1.52118 -1.52849,4.34265 -2.11027,6.26992 -0.58179,1.92728 -1.3489,4.1491 -1.70468,4.93738 -1.47744,3.27349 -7.070448,10.73234 -11.338463,15.12102 -1.548082,1.59184 -1.903465,1.83571 -3.316662,2.27593 -1.486684,0.46311 -3.721914,0.61173 -4.881985,0.3246 z"
       id="path23389" />
    <path
       style="fill:#eaf7fd;fill-opacity:1;stroke:none;stroke-width:0.495749;stroke-dasharray:1.48725, 0.495749;stroke-opacity:0.389685"
       d="m 88.332076,130.19242 c -0.507948,-0.0944 -1.443032,-0.3792 -2.077966,-0.63295 -0.634933,-0.25375 -2.297304,-0.69496 -3.694159,-0.98047 -2.612274,-0.53393 -5.098702,-1.34284 -4.862292,-1.58186 0.07348,-0.0743 0.844751,-0.36303 1.713942,-0.64164 1.580004,-0.50647 1.580537,-0.50648 2.463893,-0.0483 0.485951,0.25206 1.877734,0.66112 3.092852,0.90903 1.215118,0.2479 2.758669,0.65581 3.430112,0.90644 2.069929,0.77267 4.065125,0.55613 5.814687,-0.63109 1.737231,-1.17884 7.044615,-7.5734 8.201425,-9.88141 0.29496,-0.58849 0.86779,-2.22173 1.27294,-3.62941 0.99126,-3.44408 2.13855,-6.26912 3.15121,-7.75944 0.46031,-0.67744 0.87411,-1.19413 0.91954,-1.14819 0.0454,0.0459 -0.18115,0.8628 -0.50351,1.81528 -0.32235,0.95247 -1.00534,3.14985 -1.51775,4.88306 -1.02386,3.46323 -1.82976,5.1028 -3.86282,7.85869 -1.36131,1.84531 -4.618092,5.6666 -6.811273,7.9919 -1.88686,2.00052 -4.476026,2.98927 -6.730831,2.57036 z"
       id="path23428" />
    <path
       style="fill:#eaf7fd;fill-opacity:1;stroke:none;stroke-width:0.495749;stroke-dasharray:1.48725, 0.495749;stroke-opacity:0.389685"
       d="m 88.793846,127.86019 c -0.761921,-0.25281 -2.320394,-0.66057 -3.463275,-0.90614 -1.142881,-0.24556 -2.489528,-0.62148 -2.992549,-0.83538 l -0.914587,-0.38891 1.34718,-0.47123 c 1.279252,-0.44746 1.406861,-0.45226 2.530782,-0.0951 4.790931,1.52238 7.107939,1.76201 8.518012,0.88093 0.991872,-0.61977 4.632331,-4.65018 5.78209,-6.40146 0.443981,-0.67625 1.196111,-2.4351 1.671411,-3.90855 0.4753,-1.47345 1.06281,-3.14826 1.30557,-3.7218 0.45334,-1.07102 1.99697,-3.15441 2.19147,-2.95776 0.0599,0.0605 -0.47425,1.92365 -1.18691,4.14029 -1.52693,4.74927 -2.37117,6.17858 -6.259869,10.59802 -3.940328,4.47812 -5.315038,5.13363 -8.529325,4.06711 z"
       id="path23467" />
    <path
       style="fill:#eaf7fd;fill-opacity:1;stroke:none;stroke-width:0.495749;stroke-dasharray:1.48725, 0.495749;stroke-opacity:0.389685"
       d="m 90.063713,126.1149 c -0.571442,-0.19042 -1.76627,-0.50457 -2.655177,-0.6981 -2.852552,-0.62106 -3.053646,-0.80132 -1.412254,-1.26595 0.853206,-0.24151 1.297095,-0.22184 2.82834,0.12534 0.998968,0.2265 2.387742,0.45465 3.08617,0.50701 1.11768,0.0838 1.381457,0.0134 2.200985,-0.58728 0.936927,-0.68672 3.091684,-3.06991 3.952157,-4.37114 0.254698,-0.38516 0.752763,-1.54063 1.106813,-2.56772 0.843363,-2.44657 1.553973,-3.83447 2.330583,-4.55187 0.34746,-0.32097 0.57186,-0.42601 0.49868,-0.23343 -0.0732,0.19258 -0.50447,1.51785 -0.95841,2.94504 -0.97735,3.07278 -1.851502,4.50887 -4.651203,7.64121 -2.765581,3.09416 -4.173466,3.77441 -6.326684,3.05689 z"
       id="path23506" />
    <path
       style="fill:#eaf7fd;fill-opacity:1;stroke:none;stroke-width:0.495749;stroke-dasharray:1.48725, 0.495749;stroke-opacity:0.389685"
       d="m 90.063713,124.25722 c -0.571442,-0.16735 -1.338578,-0.37202 -1.70475,-0.45483 -0.639965,-0.14473 -0.597344,-0.18999 1.099837,-1.16783 2.527265,-1.45609 5.146795,-3.41499 7.935411,-5.93414 1.334442,-1.2055 2.369498,-2.0461 2.300128,-1.86802 -0.06937,0.17809 -0.409211,1.16414 -0.755197,2.19123 -0.731934,2.17279 -1.030994,2.65262 -3.148153,5.05112 -2.221667,2.51689 -3.24878,2.90828 -5.727276,2.18247 z"
       id="path23545" />
    <path
       style="fill:#cdebfb;fill-opacity:1;stroke:none;stroke-width:0.495749;stroke-dasharray:1.48725, 0.495749;stroke-opacity:0.389685"
       d="m 36.304748,133.23955 c -2.587174,-0.35754 -5.018124,-1.33264 -6.015304,-2.41284 -0.490321,-0.53115 -0.538023,-0.74974 -0.425216,-1.94851 0.06997,-0.74359 0.815566,-3.39536 1.659489,-5.90212 0.917505,-2.72533 1.81284,-5.9494 2.231236,-8.03462 1.394732,-6.95114 2.867722,-11.77909 4.899606,-16.059248 5.022016,-10.578858 14.704718,-17.935129 30.375231,-23.077065 4.414688,-1.448588 11.704524,-3.344289 15.222782,-3.958644 13.852909,-2.418983 32.431968,0.835886 50.718258,8.885332 3.84222,1.691305 8.81398,4.231626 11.03026,5.635902 3.73218,2.364785 4.79317,2.785296 7.6425,3.029014 2.82579,0.241705 3.98854,0.495512 5.24943,1.145858 1.12799,0.581803 2.3144,1.614432 2.1548,1.87551 -0.0713,0.116685 -1.06961,0.212152 -2.21841,0.212152 -2.29113,0 -4.47878,0.468704 -5.73411,1.228531 -1.20214,0.727633 -4.59034,3.875113 -5.24015,4.867879 -0.31181,0.476362 -0.98392,1.846839 -1.49358,3.045519 -1.05609,2.48383 -1.42999,2.99639 -2.1858,2.99639 -0.68123,0 -1.05985,-0.59728 -1.80171,-2.8423 -0.7748,-2.344705 -0.74911,-3.00247 0.21597,-5.528923 0.91949,-2.407096 1.00531,-3.553927 0.34758,-4.644588 -1.04854,-1.738706 -3.42593,-2.497796 -9.00576,-2.875505 -6.11026,-0.413613 -8.41986,-0.142257 -12.58194,1.478262 -4.96736,1.934063 -10.35878,6.177686 -14.01122,11.028334 -1.48197,1.96814 -4.40593,4.74201 -8.290825,7.86524 -6.62361,5.325 -12.366587,9.31947 -15.539295,10.80819 -3.573905,1.67698 -4.229291,1.853 -15.725254,4.2235 -8.435486,1.73942 -14.537932,3.41121 -19.048009,5.21826 -0.698427,0.27984 -2.776392,1.2312 -4.617699,2.11414 -3.686408,1.7677 -4.924759,2.02548 -7.81286,1.62635 z m 43.738737,-18.17488 c 0.368162,-0.11454 1.292776,-0.33159 2.054697,-0.48236 2.883302,-0.5705 6.11845,-1.84943 6.11845,-2.41875 0,-0.42703 -0.484934,-0.85895 -0.964396,-0.85895 -0.543569,0 -0.998611,-0.77476 -1.344736,-2.28958 -0.549807,-2.40624 -1.997299,-3.33373 -4.478933,-2.86992 -0.742167,0.1387 -3.284775,1.03682 -5.650244,1.9958 -5.223589,2.11769 -7.081366,2.60449 -8.531103,2.23542 -0.561455,-0.14294 -1.083105,-0.19692 -1.15922,-0.11996 -0.185157,0.18719 0.441099,0.57334 0.937105,0.57781 0.610168,0.005 1.97524,0.69777 3.84302,1.94889 2.316391,1.55163 3.510982,2.04644 5.436283,2.25178 2.40267,0.25625 2.996038,0.26098 3.739077,0.0298 z"
       id="path16644" />
    <path
       style="display:inline;fill:#cdebfb;fill-opacity:1;stroke:none;stroke-width:0.350546;stroke-dasharray:1.05165, 0.350546;stroke-opacity:0.389685"
       d="m 109.42181,123.01183 c -2.39371,-0.47037 -4.54959,-1.40948 -9.19692,-4.0062 -4.531226,-2.53184 -6.223771,-3.09447 -9.287764,-3.08738 l -1.832143,0.004 0.689259,-0.58962 c 2.652597,-2.26912 5.771603,-5.42767 8.485064,-8.59263 0.534951,-0.62396 0.775479,-0.81074 0.775479,-0.60219 0,0.61581 0.538663,1.41501 1.520865,2.25648 l 1.00967,0.86501 2.36728,-0.14405 c 4.61515,-0.28083 7.16683,-0.097 10.55722,0.76068 2.31371,0.58528 3.18001,0.60483 6.56175,0.14805 2.83724,-0.38324 4.02718,-0.3352 5.28876,0.2135 0.98977,0.43048 1.81041,1.33758 1.66176,1.83685 -0.34659,1.16407 -0.87717,1.88284 -3.35181,4.54054 -1.29511,1.39092 -1.89128,1.87386 -3.82024,3.09462 -2.65181,1.67823 -4.4041,2.54584 -6.12226,3.03131 -1.58116,0.44677 -3.82711,0.5614 -5.30597,0.2708 z"
       id="path23947" />
    <ellipse
       style="fill:#fefefe;fill-opacity:1;stroke:none;stroke-width:0.771971;stroke-dasharray:2.31592, 0.771971;stroke-opacity:0.389685"
       id="path30360"
       cx="78.654823"
       cy="109.00224"
       rx="1.5917881"
       ry="1.485535" />
    <ellipse
       style="fill:#fefefe;fill-opacity:1;stroke:none;stroke-width:0.412048;stroke-dasharray:1.23614, 0.412048;stroke-opacity:0.389685"
       id="path30360-5"
       cx="78.491562"
       cy="111.64318"
       rx="0.81630152"
       ry="0.82529724" />
    <path
       style="fill:#a4daf8;fill-opacity:1;stroke:none;stroke-width:0.266398;stroke-dasharray:0.799195, 0.266398;stroke-opacity:0.389685"
       id="path38827"
       d="m 64.978633,107.71825 c 0.05641,0.21361 0.191246,0.34427 0.309805,0.48127 0.182298,0.17852 0.387419,0.29483 0.592856,0.4037 0.191696,0.0904 0.385807,0.17054 0.582099,0.23717 0.186127,0.0497 0.37162,0.10625 0.558367,0.15064 0.323699,0.087 0.654383,0.0854 0.978738,0.0126 0.536477,-0.1565 1.032652,-0.52091 1.50258,-0.91595 0.278686,-0.25272 0.56258,-0.49467 0.839018,-0.75256 0.09078,-0.0847 0.174297,-0.18609 0.268551,-0.2624 0.229658,-0.18593 0.476654,-0.32281 0.715117,-0.48377 0.414898,-0.31728 0.853621,-0.55208 1.289224,-0.79902 0.161138,-0.0914 0.318162,-0.19813 0.48118,-0.28218 0.329772,-0.17004 0.769257,-0.33406 1.103948,-0.46683 0.789498,-0.31124 1.582637,-0.61086 2.383831,-0.85317 0.438532,-0.13263 0.753601,-0.19527 1.196021,-0.29508 0.558581,-0.12625 1.116297,-0.26013 1.674248,-0.39202 0.164568,-0.0389 0.327962,-0.0891 0.493349,-0.11983 0.298444,-0.0555 0.657891,-0.0747 0.957936,-0.0975 0.514277,0.016 1.028678,-0.0329 1.542771,0.006 0.334808,0.0256 0.428691,0.0528 0.756997,0.11552 0.117734,0.0249 0.235402,0.0504 0.353202,0.0746 0.217791,0.0448 0.415763,0.0756 0.630522,0.14215 0.276352,0.0856 0.542634,0.22335 0.809751,0.35417 0.442248,0.1994 0.871649,0.45542 1.298477,0.715 0.293782,0.18817 0.587756,0.37549 0.880783,0.56625 0.202308,0.15336 0.41051,0.28795 0.621325,0.41477 0.153628,0.0886 0.297738,0.20532 0.451422,0.29374 0.118097,0.0658 0.241699,0.10468 0.365829,0.13724 0.009,0.005 0.06256,-0.17835 0.05358,-0.18384 v 0 c -0.115576,-0.0295 -0.230839,-0.0645 -0.339865,-0.12935 -0.147848,-0.092 -0.287527,-0.20829 -0.422763,-0.33443 -0.192471,-0.15368 -0.379828,-0.32069 -0.572097,-0.47473 -0.25909,-0.26773 -0.535109,-0.49942 -0.809671,-0.73185 -0.402396,-0.34495 -0.817746,-0.65355 -1.243524,-0.93359 -0.582447,-0.35504 -1.185491,-0.64777 -1.794167,-0.892 -0.935449,-0.28801 -1.889622,-0.50226 -2.848801,-0.44198 -1.103153,0.0566 -2.210134,0.0966 -3.304358,0.32403 -1.259649,0.30556 -2.529233,0.61118 -3.722678,1.29702 -0.965572,0.60029 -1.920713,1.24883 -2.790431,2.11156 -0.112467,0.11658 -0.227031,0.22902 -0.337399,0.34975 -0.09907,0.10836 -0.18951,0.23307 -0.290694,0.33726 -0.08926,0.0919 -0.187877,0.1632 -0.279565,0.24993 -0.269609,0.25505 -0.529095,0.53333 -0.797324,0.79143 -0.411371,0.38859 -0.791033,0.85779 -1.261651,1.09504 -0.126432,0.0496 -0.260721,0.13095 -0.391262,0.15463 -0.125513,0.0227 -0.251432,0.0109 -0.377371,0.0203 -0.184772,-0.004 -0.36534,-0.0153 -0.54183,-0.10596 -0.187127,-0.079 -0.376245,-0.15002 -0.557702,-0.25369 -0.196018,-0.10626 -0.386595,-0.22354 -0.572743,-0.36213 -0.137304,-0.0918 -0.261749,-0.21488 -0.393849,-0.31935 -0.0022,-0.004 -0.04408,0.0427 -0.04179,0.047 z" />
    <path
       style="fill:#a4daf8;fill-opacity:1;stroke:none;stroke-width:0.147205;stroke-dasharray:0.441616, 0.147205;stroke-opacity:0.389685"
       id="path38827-8"
       d="m 69.306033,80.788917 c -0.04509,-0.121914 -0.122763,-0.18678 -0.192805,-0.256993 -0.10515,-0.08879 -0.216755,-0.138291 -0.32793,-0.183317 -0.102852,-0.03534 -0.206092,-0.06432 -0.30935,-0.08504 -0.09684,-0.01156 -0.193911,-0.02736 -0.290642,-0.03575 -0.168467,-0.02055 -0.33339,0.01247 -0.489503,0.08732 -0.255352,0.145302 -0.474094,0.410696 -0.677306,0.691809 -0.11905,0.177711 -0.241555,0.349505 -0.35907,0.530085 -0.03859,0.0593 -0.07224,0.127863 -0.113224,0.182508 -0.09987,0.133129 -0.212299,0.238687 -0.318552,0.357785 -0.181915,0.229406 -0.382263,0.411935 -0.580092,0.601406 -0.07318,0.07009 -0.143083,0.148981 -0.21778,0.214901 -0.151107,0.133352 -0.357452,0.273747 -0.513969,0.385353 -0.369363,0.262099 -0.741465,0.517625 -1.122134,0.739749 -0.208359,0.121577 -0.360645,0.189465 -0.573549,0.291849 -0.268783,0.129408 -0.536528,0.263282 -0.804549,0.395994 -0.07905,0.03914 -0.156628,0.08488 -0.236734,0.119264 -0.144552,0.06203 -0.322441,0.108276 -0.470387,0.150964 -0.257956,0.04028 -0.510826,0.119264 -0.770538,0.145612 -0.169141,0.01716 -0.218157,0.01 -0.386995,0.0044 -0.06073,-0.0034 -0.121493,-0.0073 -0.18221,-0.01026 -0.112253,-0.0056 -0.213514,-0.0049 -0.325981,-0.02368 -0.144721,-0.02425 -0.288556,-0.08062 -0.432256,-0.13276 -0.236554,-0.07608 -0.471183,-0.187148 -0.704813,-0.300598 -0.161559,-0.08375 -0.323146,-0.166987 -0.484533,-0.252357 -0.113142,-0.07185 -0.227737,-0.131957 -0.343018,-0.187158 -0.08371,-0.03798 -0.164894,-0.0936 -0.248614,-0.13144 -0.06416,-0.02781 -0.12894,-0.03901 -0.193479,-0.04641 -0.0049,-0.0025 -0.01707,0.11242 -0.01216,0.114823 v 0 c 0.06002,0.0064 0.120331,0.01608 0.179892,0.04421 0.08109,0.04056 0.160034,0.09635 0.237538,0.158481 0.108257,0.073 0.215019,0.154451 0.323203,0.227687 0.150555,0.134564 0.306701,0.245995 0.462177,0.358005 0.228208,0.16673 0.459996,0.310522 0.694725,0.436279 0.318875,0.155307 0.643085,0.271453 0.966261,0.358136 0.489747,0.08112 0.982988,0.116459 1.45695,-0.01247 0.54611,-0.140658 1.095457,-0.271719 1.623561,-0.513375 0.604475,-0.304261 1.213904,-0.609524 1.755167,-1.134162 0.434316,-0.451533 0.859597,-0.930836 1.225252,-1.529596 0.04689,-0.08041 0.09515,-0.158578 0.140658,-0.241264 0.04085,-0.07423 0.07609,-0.157359 0.118336,-0.229295 0.03726,-0.06346 0.08083,-0.115537 0.119709,-0.176136 0.114335,-0.178218 0.221775,-0.369317 0.335178,-0.549223 0.174496,-0.271597 0.326773,-0.588195 0.542847,-0.775277 0.05917,-0.04181 0.119743,-0.10334 0.18302,-0.130119 0.06084,-0.02571 0.124632,-0.03085 0.186741,-0.04867 0.09251,-0.01575 0.18356,-0.02628 0.278843,0.01078 0.09967,0.029 0.199692,0.05302 0.298484,0.09725 0.106266,0.04438 0.21069,0.09587 0.314593,0.160475 0.07581,0.04143 0.14769,0.102781 0.22191,0.152288 0.0014,0.0025 0.01862,-0.0297 0.01713,-0.03206 z" />
    <text
       xml:space="preserve"
       transform="matrix(0.44799146,0,0,0.47583994,-33.90709,-25.608935)"
       id="text7452"
       style="font-style:normal;font-weight:normal;font-size:40px;line-height:1.25;font-family:sans-serif;white-space:pre;shape-inside:url(#rect7454);fill:#000000;fill-opacity:1;stroke:none"><tspan
         x="179.9082"
         y="171.54194"
         id="tspan30951"><tspan
           style="font-family:Georgia;-inkscape-font-specification:'Georgia, Normal'"
           id="tspan30949">OH NO!</tspan></tspan></text>
    <text
       xml:space="preserve"
       transform="matrix(0.19479089,0,0,0.16800057,15.318124,34.996197)"
       id="text7452-3"
       style="font-style:normal;font-weight:normal;font-size:40px;line-height:1.25;font-family:sans-serif;white-space:pre;shape-inside:url(#rect7454-1);fill:#82dcff;fill-opacity:1;stroke:none"><tspan
         x="179.9082"
         y="171.54194"
         id="tspan30955"><tspan
           style="font-style:italic;font-family:Georgia;-inkscape-font-specification:'Georgia, Italic';fill:#3fc9ff"
           id="tspan30953">You hit a whale!</tspan></tspan></text>
  </g>
</svg>
