<?xml version="1.0" encoding="UTF-8" standalone="no"?>
<!-- Created with Inkscape (http://www.inkscape.org/) -->

<svg
   width="210mm"
   height="297mm"
   viewBox="0 0 210 297"
   version="1.1"
   id="svg5"
   sodipodi:docname="whale.svg"
   inkscape:version="1.1.2 (b8e25be833, 2022-02-05)"
   xmlns:inkscape="http://www.inkscape.org/namespaces/inkscape"
   xmlns:sodipodi="http://sodipodi.sourceforge.net/DTD/sodipodi-0.dtd"
   xmlns="http://www.w3.org/2000/svg"
   xmlns:svg="http://www.w3.org/2000/svg">
  <sodipodi:namedview
     id="namedview7"
     pagecolor="#ffffff"
     bordercolor="#666666"
     borderopacity="1.0"
     inkscape:pageshadow="2"
     inkscape:pageopacity="0.0"
     inkscape:pagecheckerboard="0"
     inkscape:document-units="mm"
     showgrid="false"
     inkscape:snap-smooth-nodes="true"
     inkscape:object-paths="true"
     inkscape:zoom="1.4396184"
     inkscape:cx="326.82272"
     inkscape:cy="352.52397"
     inkscape:window-width="1920"
     inkscape:window-height="1001"
     inkscape:window-x="-9"
     inkscape:window-y="-9"
     inkscape:window-maximized="1"
     inkscape:current-layer="layer2"
     inkscape:snap-midpoints="true"
     inkscape:snap-intersection-paths="true"
     inkscape:snap-to-guides="false"
     inkscape:snap-grids="false"
     inkscape:snap-bbox="false"
     inkscape:snap-nodes="false"
     inkscape:snap-others="false" />
  <defs
     id="defs2">
    <inkscape:path-effect
       effect="simplify"
       id="path-effect6910"
       is_visible="true"
       lpeversion="1"
       steps="1"
       threshold="0.00108696"
       smooth_angles="360"
       helper_size="0"
       simplify_individual_paths="false"
       simplify_just_coalesce="false" />
    <inkscape:path-effect
       effect="simplify"
       id="path-effect6821"
       is_visible="true"
       lpeversion="1"
       steps="1"
       threshold="0.00108696"
       smooth_angles="360"
       helper_size="0"
       simplify_individual_paths="false"
       simplify_just_coalesce="false" />
    <inkscape:path-effect
       effect="simplify"
       id="path-effect6672"
       is_visible="true"
       lpeversion="1"
       steps="1"
       threshold="0.000408163"
       smooth_angles="360"
       helper_size="0"
       simplify_individual_paths="false"
       simplify_just_coalesce="false" />
    <inkscape:path-effect
       effect="simplify"
       id="path-effect6616"
       is_visible="true"
       lpeversion="1"
       steps="1"
       threshold="0.000408163"
       smooth_angles="360"
       helper_size="0"
       simplify_individual_paths="false"
       simplify_just_coalesce="false" />
  </defs>
  <g
     inkscape:label="outlines"
     inkscape:groupmode="layer"
     id="layer1"
     style="display:none">
    <path
       style="fill:none;stroke:#000000;stroke-width:0.274038px;stroke-linecap:butt;stroke-linejoin:miter;stroke-opacity:1"
       d="m 27.714623,114.13181 c -0.439933,2.46058 -4.801065,12.18458 -3.745999,14.15161 1.569231,2.92562 9.571356,4.25487 13.209579,3.12438 7.063939,-3.6115 12.505251,-5.812 19.912947,-7.53528 6.166458,-1.64236 12.394513,-2.56686 18.730001,-4.04331 3.449873,-0.51634 6.762473,-1.79179 9.660734,-3.12438 4.674525,-2.17876 23.084675,-15.89369 25.630525,-19.84901 6.60049,-9.24682 16.74037,-14.798862 25.03905,-14.88676 3.98326,0.333957 12.80575,-0.120862 15.18116,3.30817 1.36202,2.53928 -0.73605,4.94997 -1.3801,7.35148 -0.39031,1.45536 1.22493,6.38761 2.25893,7.35149 3.95796,0.70066 2.05662,-6.046483 8.59812,-10.292083 4.93577,-5.903187 14.7747,-1.47808 10.83032,-4.778467 -4.63752,-3.88036 -8.25847,-1.656214 -11.80273,-3.308166 -3.05187,-1.422448 -5.11295,-3.124136 -8.30738,-4.778464 C 131.69193,66.549408 102.4161,57.623239 79.764309,63.95792 37.190837,73.858418 31.893995,92.05031 27.714623,114.13181 Z"
       id="path7105"
       sodipodi:nodetypes="cscccccccsccssscc" />
    <path
       style="fill:none;stroke:#000000;stroke-width:0.274038px;stroke-linecap:butt;stroke-linejoin:miter;stroke-opacity:1"
       d="m 29.549694,131.31296 c 2.872074,6.40548 13.624166,5.57073 19.852295,2.66786 4.801538,-2.23796 8.317636,-4.78997 13.603896,-6.43255 4.206219,-1.30699 8.571092,-1.7577 13.012421,-2.9406 4.570552,-1.21731 9.449958,-2.9588 13.603895,-4.41089 9.536779,-4.74404 19.627189,-16.18752 24.805189,-24.627473 3.07052,-4.174891 7.68477,-8.571621 11.0783,-11.021021"
       id="path10194"
       sodipodi:nodetypes="csssccc" />
    <path
       style="fill:none;stroke:#000000;stroke-width:0.264583px;stroke-linecap:butt;stroke-linejoin:miter;stroke-opacity:1"
       d="m 44.5684,135.58587 c 8.355505,3.34954 17.867813,1.73621 26.557219,3.90856 8.454271,2.11357 18.0677,2.72853 26.097772,-1.28651 8.499199,-5.80629 18.895889,-17.27036 23.157179,-26.09777 2.8853,-6.34767 4.6665,-13.42522 9.37314,-18.131864 3.38466,-3.524287 8.76092,-7.524868 13.18808,-9.848375 1.17068,-0.585338 7.21016,0.109371 8.39083,1.147312"
       id="path10440"
       sodipodi:nodetypes="csccccc" />
    <path
       style="fill:none;stroke:#000000;stroke-width:0.25476px;stroke-linecap:butt;stroke-linejoin:miter;stroke-opacity:1"
       d="m 49.401781,133.93626 c 7.679759,3.37869 16.422764,1.75132 24.409419,3.94258 7.770537,2.13196 16.60648,2.75228 23.987129,-1.29771 7.811831,-5.85682 17.367691,-17.42067 21.284361,-26.32491 2.65195,-6.40292 4.28909,-12.49335 8.61509,-17.240958 4.66373,-4.079311 8.76906,-7.852534 12.83818,-10.196262 1.076,-0.590433 5.91036,-0.676207 6.99555,0.370767"
       id="path10440-6"
       sodipodi:nodetypes="csccccc" />
    <path
       style="fill:none;stroke:#000000;stroke-width:0.237684px;stroke-linecap:butt;stroke-linejoin:miter;stroke-opacity:1"
       d="m 54.597563,131.38461 c 6.998724,3.22711 14.966407,1.67276 22.244813,3.76571 7.081452,2.03632 15.133832,2.62881 21.859968,-1.2395 7.119096,-5.59408 15.827546,-16.63916 19.396896,-25.14394 2.41677,-6.11568 3.90874,-11.932888 7.85111,-16.467508 4.25015,-3.89631 8.63468,-7.867844 12.34295,-10.106428"
       id="path10440-6-8"
       sodipodi:nodetypes="cscccc" />
    <path
       style="fill:none;stroke:#000000;stroke-width:0.218871px;stroke-linecap:butt;stroke-linejoin:miter;stroke-opacity:1"
       d="m 58.186187,129.43361 c 6.337876,3.02178 13.553219,1.56633 20.14437,3.5261 6.412789,1.90677 13.704831,2.46156 19.795864,-1.16062 6.446879,-5.23816 14.333039,-15.58049 17.565359,-23.54414 2.18857,-5.72657 3.53967,-11.173656 7.10977,-15.419758 3.84884,-3.648404 7.69633,-8.493357 11.05443,-10.589509"
       id="path10440-6-8-6"
       sodipodi:nodetypes="cscccc" />
    <path
       style="fill:none;stroke:#000000;stroke-width:0.199037px;stroke-linecap:butt;stroke-linejoin:miter;stroke-opacity:1"
       d="m 64.226435,127.08433 c 5.4756,2.89247 11.709288,1.49931 17.403703,3.37522 5.540323,1.82516 11.840271,2.3562 17.10261,-1.11097 5.569772,-5.01398 12.383012,-14.91372 15.175572,-22.53658 1.89081,-5.48151 3.05809,-10.695489 6.14248,-14.759882 3.3252,-3.492274 6.25227,-6.722514 9.15351,-8.728969"
       id="path10440-6-8-2"
       sodipodi:nodetypes="cscccc" />
    <path
       style="fill:none;stroke:#000000;stroke-width:0.165055px;stroke-linecap:butt;stroke-linejoin:miter;stroke-opacity:1"
       d="m 72.505631,125.7928 c 3.987418,2.73149 8.52689,1.41586 12.673649,3.18737 4.034548,1.72358 8.622271,2.22506 12.45439,-1.04914 4.05599,-4.73492 12.52634,-13.56386 14.55993,-20.76246 1.37692,-5.17644 4.04635,-12.82933 6.29245,-16.667517"
       id="path10440-6-8-2-5"
       sodipodi:nodetypes="csccc" />
    <path
       style="fill:none;stroke:#000000;stroke-width:0.135843px;stroke-linecap:butt;stroke-linejoin:miter;stroke-opacity:1"
       d="m 77.056502,124.20205 c 3.200332,2.30523 7.363576,1.8447 10.691796,3.33976 3.238159,1.45461 6.660389,0.96813 9.736074,-1.79512 3.255368,-3.99602 10.313648,-10.53747 11.945828,-16.61271 1.10512,-4.36863 3.24763,-10.827264 5.05036,-14.06649"
       id="path10440-6-8-2-5-3"
       sodipodi:nodetypes="csccc" />
    <path
       style="fill:none;stroke:#000000;stroke-width:0.102416px;stroke-linecap:butt;stroke-linejoin:miter;stroke-opacity:1"
       d="m 81.985077,122.96879 c 2.435597,1.72172 5.604013,1.37776 8.136938,2.49438 2.464385,1.08642 5.068856,0.72308 7.409588,-1.34072 2.477487,-2.98453 7.849157,-7.87017 9.091317,-12.40761 0.84105,-3.26282 2.4716,-8.0866 3.84355,-10.5059"
       id="path10440-6-8-2-5-3-4"
       sodipodi:nodetypes="csccc" />
    <path
       style="fill:none;stroke:#000000;stroke-width:0.0764789px;stroke-linecap:butt;stroke-linejoin:miter;stroke-opacity:1"
       d="m 85.421385,121.64346 c 1.837084,1.27288 4.2269,1.01859 6.137397,1.84412 1.858791,0.8032 3.823247,0.53458 5.588781,-0.9912 1.868673,-2.2065 5.920327,-5.81849 6.857247,-9.17305 0.63437,-2.41223 1.86424,-5.97849 2.89905,-7.7671"
       id="path10440-6-8-2-5-3-4-2"
       sodipodi:nodetypes="csccc" />
    <path
       style="fill:none;stroke:#000000;stroke-width:0.0536757px;stroke-linecap:butt;stroke-linejoin:miter;stroke-opacity:1"
       d="m 88.274448,120.42762 c 1.32695,0.86804 3.053144,0.69461 4.43312,1.25759 1.342629,0.54771 2.761576,0.36455 4.036852,-0.67596 1.34976,-1.50469 4.27633,-3.96787 4.95308,-6.25549 0.45821,-1.645 1.34656,-4.07698 2.09401,-5.29671"
       id="path10440-6-8-2-5-3-4-2-6"
       sodipodi:nodetypes="csccc" />
    <path
       style="fill:none;stroke:#000000;stroke-width:0.264583px;stroke-linecap:butt;stroke-linejoin:miter;stroke-opacity:1"
       d="m 122.33252,66.233064 c 5.46371,1.395722 9.32213,-4.502783 14.61108,-4.502783 0.74263,0 4.55617,-0.106762 3.85953,1.28651 -1.10492,2.209834 -5.88119,-0.21925 -5.88119,7.167697"
       id="path14021"
       sodipodi:nodetypes="cssc" />
    <path
       style="fill:none;stroke:#000000;stroke-width:0.264583px;stroke-linecap:butt;stroke-linejoin:miter;stroke-opacity:1"
       d="m 65.060644,105.86139 c 5.711431,2.74881 17.111789,-7.51569 20.951732,-3.67575 1.183468,1.18347 1.086456,3.84327 2.021658,4.77847 0.431159,0.43116 1.120743,0.036 1.470297,0.73515"
       id="path15155" />
    <path
       style="fill:none;stroke:#000000;stroke-width:0.264583px;stroke-linecap:butt;stroke-linejoin:miter;stroke-opacity:1"
       d="m 66.898514,106.41275 c 1.261999,0.2874 2.363422,1.02425 3.308167,1.65408 2.98041,1.98694 3.951163,2.9406 8.637995,2.9406 0.598974,0 1.529413,0.12467 1.837873,-0.18379 0.414925,-0.41493 1.956181,-0.11831 2.389232,-0.55136 0.306311,-0.30632 1.347772,0.12252 1.654085,-0.18379 0.303649,-0.30365 6.29452,-1.7231 4.594677,-2.57302"
       id="path15157" />
    <path
       style="fill:none;stroke:#000000;stroke-width:0.264583px;stroke-linecap:butt;stroke-linejoin:miter;stroke-opacity:1"
       d="m 87.647065,113.13265 c 8.7538,-2.5256 12.0157,1.13749 19.665225,4.96225 7.14686,3.57343 12.12177,3.12983 18.74628,-1.28651 1.02438,-0.68292 3.39347,-1.85752 4.04332,-2.94059 0.56613,-0.94355 6.04278,-5.35202 4.2271,-7.1677 -3.69864,-3.69865 -9.82837,0.15457 -14.1516,-1.28651 -2.81761,-0.93921 -6.54592,-1.28651 -9.55694,-1.28651 -0.91229,0 -5.48377,0.76499 -6.06497,0.18378 -1.3855,-1.38549 -2.57302,-1.55647 -2.57302,-3.85952"
       id="path14618"
       sodipodi:nodetypes="csssssssc" />
  </g>
  <g
     inkscape:groupmode="layer"
     id="layer2"
     inkscape:label="color">
    <ellipse
       style="fill:#0000ba;fill-opacity:1;stroke:none;stroke-width:0.564999;stroke-dasharray:1.695, 0.564999;stroke-opacity:0.389685"
       id="path29193"
       cx="76.544746"
       cy="105.39523"
       rx="5.0683279"
       ry="4.9383707" />
    <ellipse
       style="fill:#000000;fill-opacity:1;stroke:none;stroke-width:0.360084;stroke-dasharray:1.08025, 0.360084;stroke-opacity:0.389685"
       id="path29193-9"
       cx="76.777077"
       cy="105.58571"
       rx="3.18451"
       ry="3.1923931" />
    <path
       style="fill:#bee5fa;fill-opacity:1;stroke:none;stroke-width:0.55503;stroke-dasharray:1.66509, 0.55503;stroke-opacity:0.389685"
       d="m 129.86583,68.281344 c -3.98192,-1.329502 -5.83995,-1.58094 -4.63908,-1.556955 0.25017,0.005 3.00384,-1.449723 5.4358,-2.419976 l 4.24581,-1.693907 c 4.24233,-1.133227 6.44283,-0.740412 5.42077,0.571796 -0.18419,0.221933 -1.05983,0.376578 -1.73344,0.81008 -2.23491,1.438287 -3.47313,2.59855 -3.86646,4.591534 -0.13293,0.673548 -0.25865,1.215396 -0.34963,1.191935 -0.091,-0.02347 -2.12218,-0.695989 -4.51377,-1.494507 z"
       id="path16683"
       sodipodi:nodetypes="sssccssss" />
    <path
       style="fill:#eaf7fd;fill-opacity:1;stroke:none;stroke-width:2.09775;stroke-dasharray:6.29325, 2.09775;stroke-opacity:0.389685"
       d="m 133.82611,511.75644 c -2.84727,-0.76655 -6.60477,-2.11234 -8.35,-2.99065 -3.24924,-1.6352 -10.5408,-8.10266 -10.5408,-9.34946 0,-0.38161 5.19419,-0.63253 11.54265,-0.55761 l 11.54265,0.13624 14.73529,-7.01682 c 30.87223,-14.70109 50.13086,-20.73675 96.2706,-30.1712 56.21186,-11.49395 60.52593,-12.68715 76.97898,-21.29105 16.05483,-8.39566 56.68631,-38.13316 79.73201,-58.35454 5.52134,-4.84468 12.70718,-12.31383 15.96852,-16.59811 3.26135,-4.28429 8.8315,-10.86565 12.37812,-14.62526 6.70985,-7.11279 21.39115,-19.39963 23.16389,-19.38595 0.56082,0.004 -1.65022,2.54617 -4.91344,5.64853 -3.26323,3.10236 -8.97942,9.17713 -12.70266,13.49949 -3.72325,4.32235 -7.06997,8.07985 -7.43716,8.35 -0.36719,0.27014 -1.43838,1.99485 -2.38042,3.83267 -2.69627,5.26015 -14.67799,21.62202 -23.94981,32.70515 -22.18787,26.52239 -53.41375,52.5775 -70.06873,58.46589 -32.91818,11.63827 -47.53521,15.89453 -71.89715,20.93538 -29.65723,6.13652 -33.35164,7.52891 -69.39274,26.15343 -11.12525,5.74905 -20.01794,9.00613 -30.25571,11.08158 -7.2337,1.46645 -24.20922,1.20549 -30.42409,-0.46771 z"
       id="path16915"
       transform="scale(0.26458333)" />
    <path
       style="fill:#eaf7fd;fill-opacity:1;stroke:none;stroke-width:2.09775;stroke-dasharray:6.29325, 2.09775;stroke-opacity:0.389685"
       d="m 306.98533,532.28582 c -10.2439,-0.72351 -22.04768,-2.5251 -34.38235,-5.24772 -15.82602,-3.49326 -24.07064,-4.57935 -44.69707,-5.88805 -21.97609,-1.39433 -33.22458,-2.70739 -43.71471,-5.10292 -11.10799,-2.53662 -12.76673,-3.34824 -8.82729,-4.31922 1.61324,-0.39763 4.77006,-1.50371 7.01514,-2.45796 4.00626,-1.70283 4.22184,-1.69058 11.62513,0.66039 10.57743,3.35896 21.45239,5.01284 44.70762,6.7992 22.64236,1.73929 28.86574,2.61352 42.25487,5.9358 15.22482,3.77778 27.1851,5.34129 40.89103,5.34549 21.33041,0.007 39.83446,-4.82664 51.71771,-13.50839 8.61629,-6.29495 33.10821,-31.13902 43.33228,-43.95532 10.31086,-12.9251 22.18952,-30.43579 28.36777,-41.81781 2.47261,-4.55521 7.88503,-16.90234 12.02762,-27.43808 8.54344,-21.72835 15.43759,-35.6048 21.57309,-43.42207 7.24955,-9.23667 41.94926,-38.10437 51.91163,-43.1868 4.82237,-2.46018 14.08117,-2.61768 23.61073,-0.40163 9.6438,2.24262 11.52863,3.71745 3.57801,2.7997 -10.39629,-1.20005 -16.80992,-0.75785 -21.12213,1.45633 -7.02112,3.60511 -23.68431,15.27147 -33.82759,23.68364 -20.61765,17.09891 -26.32481,25.73368 -41.32945,62.5301 -4.24745,10.41616 -9.16143,21.5245 -10.91996,24.68519 -20.50971,36.86306 -68.20496,86.31223 -92.16188,95.55099 -13.59129,5.24137 -35.9704,8.40517 -51.6302,7.29914 z"
       id="path23194"
       transform="scale(0.26458333)" />
    <path
       style="fill:#eaf7fd;fill-opacity:1;stroke:none;stroke-width:2.09775;stroke-dasharray:6.29325, 2.09775;stroke-opacity:0.389685"
       d="m 299.61769,524.63711 c -4.05221,-0.72442 -13.11442,-2.66805 -20.13824,-4.31915 -12.39299,-2.91325 -22.9641,-4.33366 -41.25883,-5.54383 -15.73274,-1.0407 -27.32435,-2.52838 -35.85589,-4.60179 -13.26421,-3.22359 -13.30138,-3.29445 -4.30575,-8.21016 l 7.74399,-4.23174 6.97763,2.34673 c 9.49467,3.19326 20.93465,4.98181 43.61355,6.81863 10.53574,0.85331 22.69236,2.36786 27.01471,3.36567 4.32235,0.9978 11.85297,2.73124 16.73471,3.85208 26.8955,6.17515 54.72329,3.68098 72.16824,-6.46835 6.02875,-3.50748 30.2853,-27.91021 40.29349,-40.53631 9.56797,-12.07075 21.62355,-30.03728 27.98147,-41.70104 2.47078,-4.53271 7.812,-16.98645 11.86938,-27.67496 12.80449,-33.73145 17.67331,-42.13273 31.85958,-54.97458 12.52775,-11.34049 26.12052,-22.52872 33.47858,-27.55626 5.58736,-3.81768 7.03153,-4.38865 9.64723,-3.81415 l 3.07619,0.67565 -5.67206,3.67022 c -7.08111,4.58197 -22.49804,16.95736 -35.07685,28.15667 -15.7206,13.99658 -20.85128,22.37831 -34.01679,55.57154 -9.2015,23.19907 -12.78205,30.21526 -23.99434,47.01749 -20.75922,31.10884 -52.83258,64.55305 -68.88895,71.83337 -12.14167,5.50529 -19.97431,6.98895 -38.69223,7.32905 -11.38364,0.20684 -19.68011,-0.1326 -24.55882,-1.00478 z"
       id="path23233"
       transform="scale(0.26458333)" />
    <path
       style="fill:#eaf7fd;fill-opacity:1;stroke:none;stroke-width:2.09775;stroke-dasharray:6.29325, 2.09775;stroke-opacity:0.389685"
       d="m 317.11368,515.22677 c -4.15471,-0.47383 -14.10103,-2.40892 -22.10295,-4.3002 -16.16434,-3.8205 -23.61073,-4.90431 -44.5107,-6.47849 -19.08182,-1.43725 -29.24857,-3.25368 -39.03343,-6.97389 l -2.61647,-0.99478 5.21485,-2.97831 5.21485,-2.97833 7.99687,2.51152 c 9.53857,2.99573 16.21114,4.06076 34.52039,5.50989 17.49634,1.3848 23.83499,2.37535 37.93264,5.9278 21.20057,5.34231 37.68373,5.92208 53.5672,1.88419 12.57886,-3.19781 18.30946,-6.84359 31.37744,-19.96224 27.89219,-28.00031 45.78816,-55.74343 58.5085,-90.70246 7.00878,-19.26204 12.95516,-32.26932 17.8072,-38.95197 4.80237,-6.61425 36.84127,-39.00786 42.28524,-42.75341 3.80521,-2.61805 5.34991,-3.07134 10.46638,-3.07134 h 6.00234 l -8.48805,6.40184 c -8.43472,6.36162 -23.81929,19.51548 -33.47733,28.6232 -5.56955,5.25221 -12.87456,16.0108 -16.76059,24.68449 -1.38409,3.08932 -5.79848,14.23709 -9.80976,24.77283 -4.01127,10.53574 -9.53183,23.35545 -12.26791,28.48824 -11.92027,22.36207 -28.77972,44.64963 -49.63624,65.61723 -13.245,13.31555 -15.78217,15.41217 -22.28799,18.41806 -13.95289,6.44662 -32.99439,9.23446 -49.90248,7.30613 z"
       id="path23272"
       transform="scale(0.26458333)" />
    <path
       style="fill:#eaf7fd;fill-opacity:1;stroke:none;stroke-width:2.09775;stroke-dasharray:6.29325, 2.09775;stroke-opacity:0.389685"
       d="m 315.82651,505.98294 c -4.32235,-0.73857 -13.26439,-2.6878 -19.8712,-4.33162 -8.42871,-2.09712 -17.51377,-3.45612 -30.45295,-4.55533 -21.54683,-1.83046 -27.94773,-2.81316 -36.52964,-5.60825 -6.04309,-1.96821 -6.20382,-2.10251 -3.92941,-3.28289 1.30429,-0.67691 5.76233,-2.42985 9.90676,-3.89543 l 7.53534,-2.6647 5.38507,2.01482 c 7.06683,2.64404 18.70941,4.66453 35.0472,6.08219 7.29398,0.63291 16.4667,1.98826 20.38383,3.01189 3.91713,1.02364 10.48691,2.73982 14.5995,3.81375 16.84115,4.39775 34.90697,3.26984 48.58147,-3.03315 5.72402,-2.63837 8.49226,-4.82771 15.59879,-12.33674 24.39611,-25.77786 42.66167,-56.74708 54.08117,-91.69449 3.26612,-9.99544 8.17453,-22.76077 10.90756,-28.36739 4.6167,-9.47084 5.92161,-11.1688 18.39813,-23.93981 16.73943,-17.13452 22.58762,-21.73195 30.15957,-23.70925 3.17895,-0.83014 5.8624,-1.41686 5.96324,-1.30381 0.10083,0.11305 -2.31738,2.41584 -5.3738,5.11731 -3.05643,2.70147 -12.65561,12.2352 -21.33153,21.18606 -14.83194,15.30198 -16.10118,16.91599 -21.24435,27.01471 -3.00848,5.90723 -8.4329,18.91851 -12.05427,28.91395 -7.12505,19.66603 -12.83686,31.32892 -22.85226,46.66177 -10.72173,16.41419 -20.72283,28.81251 -34.63374,42.9353 -14.3483,14.56683 -18.52726,17.25276 -32.41859,20.83624 -8.73825,2.25418 -26.09118,2.80341 -35.85589,1.13487 z"
       id="path23311"
       transform="scale(0.26458333)" />
    <path
       style="fill:#eaf7fd;fill-opacity:1;stroke:none;stroke-width:2.09775;stroke-dasharray:6.29325, 2.09775;stroke-opacity:0.389685"
       d="m 324.17651,496.09726 c -3.51191,-0.70397 -10.26076,-2.40634 -14.99745,-3.78302 -4.73669,-1.37669 -13.13581,-2.98121 -18.66471,-3.5656 -5.5289,-0.58439 -14.25211,-1.50971 -19.3849,-2.05627 -9.17393,-0.97687 -19.69494,-3.24544 -22.59412,-4.8718 -2.00391,-1.12414 -1.17694,-1.39488 13.00649,-4.25814 9.50643,-1.9191 11.723,-2.09921 12.61449,-1.02503 2.16483,2.60846 12.48948,5.49669 26.0302,7.28172 7.61704,1.00414 16.4624,2.77022 19.65635,3.92462 19.57052,7.0735 30.07472,7.40791 42.47136,1.35206 11.06463,-5.40514 49.37588,-53.10747 58.09343,-72.33362 1.56058,-3.44177 4.67423,-12.41978 6.91923,-19.95112 4.28206,-14.36511 13.41354,-39.07604 17.221,-46.60219 3.34765,-6.61727 23.68513,-25.82228 31.59899,-29.83944 5.94774,-3.01914 5.07462,-1.57155 -4.81446,7.98208 -21.91065,21.16744 -26.16969,28.0989 -36.6352,59.62279 -3.4658,10.43955 -8.07125,22.81172 -10.23434,27.49372 -14.10315,30.5262 -43.86711,69.19871 -58.71036,76.28273 -11.63871,5.55465 -27.35327,7.1975 -41.576,4.34651 z"
       id="path23350"
       transform="scale(0.26458333)" />
    <path
       style="fill:#eaf7fd;fill-opacity:1;stroke:none;stroke-width:2.09775;stroke-dasharray:6.29325, 2.09775;stroke-opacity:0.389685"
       d="m 335.47357,490.95882 c -1.08058,-0.26454 -6.39522,-1.95581 -11.8103,-3.75837 -6.36067,-2.11732 -14.3008,-3.82654 -22.43241,-4.82885 -11.81301,-1.4561 -22.38043,-4.20173 -24.55986,-6.38116 -1.07526,-1.07526 -1.17778,-1.03283 8.34284,-3.45237 6.39019,-1.62399 6.59725,-1.61509 10.66173,0.45845 2.27974,1.16304 9.95662,3.37897 17.05973,4.9243 7.10311,1.54533 16.23018,3.99115 20.28239,5.43517 9.81309,3.49693 17.84188,3.07726 26.95469,-1.40897 5.48937,-2.7024 8.02613,-5.04531 19.55264,-18.05847 7.28469,-8.22425 15.05305,-17.22851 17.26302,-20.00944 7.31441,-9.20414 14.46429,-21.61616 16.697,-28.98559 11.13473,-36.75204 16.26392,-49.36117 23.31564,-57.317 4.1782,-4.7139 4.06587,-4.05034 -1.9704,11.63943 -2.4629,6.40169 -6.5033,18.27543 -8.97865,26.38608 -2.47536,8.11065 -5.73917,17.46085 -7.25292,20.77821 -6.28613,13.77602 -30.08286,45.16552 -48.24211,63.6346 -6.58667,6.69905 -8.09873,7.72535 -14.1115,9.57795 -6.32544,1.94894 -15.83574,2.57437 -20.77153,1.36603 z"
       id="path23389"
       transform="scale(0.26458333)" />
    <path
       style="fill:#eaf7fd;fill-opacity:1;stroke:none;stroke-width:2.09775;stroke-dasharray:6.29325, 2.09775;stroke-opacity:0.389685"
       d="m 340.38534,483.72485 c -2.16118,-0.39715 -6.13971,-1.5958 -8.84118,-2.66367 -2.70147,-1.06787 -9.77441,-2.92464 -15.71765,-4.12616 -11.11452,-2.24696 -21.6936,-5.65116 -20.68774,-6.65702 0.31263,-0.31263 3.59419,-1.52775 7.29236,-2.70027 6.72249,-2.13138 6.72476,-2.13142 10.4832,-0.20323 2.06759,1.06074 7.98925,2.78221 13.15925,3.82549 5.17,1.04328 11.73739,2.75987 14.5942,3.81465 8.80699,3.25166 17.29601,2.34036 24.73992,-2.65585 7.39145,-4.961 29.97294,-31.87156 34.89486,-41.5845 1.25498,-2.47658 3.69218,-9.34981 5.41601,-15.27385 4.21755,-14.49387 9.09894,-26.38265 13.40754,-32.65444 1.95851,-2.85091 3.71909,-5.02532 3.91238,-4.83202 0.1933,0.19329 -0.77072,3.631 -2.14227,7.63935 -1.37154,4.00834 -4.27747,13.25569 -6.45761,20.54966 -4.35625,14.57451 -7.78516,21.47437 -16.43528,33.07213 -5.79202,7.76573 -19.64873,23.84708 -28.98012,33.63275 -8.02808,8.41892 -19.04428,12.57992 -28.63787,10.81698 z"
       id="path23428"
       transform="scale(0.26458333)" />
    <path
       style="fill:#eaf7fd;fill-opacity:1;stroke:none;stroke-width:2.09775;stroke-dasharray:6.29325, 2.09775;stroke-opacity:0.389685"
       d="m 342.35005,473.91001 c -3.24177,-1.06392 -9.87265,-2.77992 -14.7353,-3.81334 -4.86265,-1.03343 -10.59227,-2.61544 -12.73249,-3.5156 l -3.89132,-1.63665 5.73189,-1.9831 c 5.44287,-1.8831 5.98581,-1.90329 10.76779,-0.40031 20.38412,6.40673 30.24236,7.41515 36.24184,3.70727 4.22015,-2.6082 19.70932,-19.56962 24.60123,-26.9396 1.88901,-2.84591 5.08914,-10.24777 7.11141,-16.44857 2.02226,-6.20079 4.52195,-13.24899 5.55485,-15.66266 1.92883,-4.50724 8.49656,-13.27487 9.32412,-12.4473 0.2547,0.25469 -2.01781,8.0954 -5.05001,17.42379 -6.49667,19.98662 -10.08868,26.00166 -26.63404,44.60024 -16.76503,18.8455 -22.61405,21.60414 -36.28997,17.11583 z"
       id="path23467"
       transform="scale(0.26458333)" />
    <path
       style="fill:#eaf7fd;fill-opacity:1;stroke:none;stroke-width:2.09775;stroke-dasharray:6.29325, 2.09775;stroke-opacity:0.389685"
       d="m 347.75299,466.56522 c -2.43133,-0.80136 -7.515,-2.1234 -11.29706,-2.93786 -12.13684,-2.61365 -12.99244,-3.37225 -6.00876,-5.32755 3.63016,-1.01639 5.51879,-0.9336 12.03382,0.52746 4.25034,0.95319 10.1592,1.91334 13.13082,2.13367 4.75543,0.35259 5.87773,0.0564 9.3646,-2.47146 3.98637,-2.88998 13.15428,-12.91929 16.81536,-18.3953 1.08367,-1.62089 3.2028,-6.48353 4.70919,-10.80589 3.58827,-10.29602 6.61174,-16.1368 9.91602,-19.15588 1.47833,-1.35074 2.43311,-1.7928 2.12174,-0.98236 -0.31138,0.81045 -2.14639,6.38765 -4.0778,12.39379 -4.15835,12.93131 -7.87763,18.97491 -19.7896,32.15688 -11.7668,13.02133 -17.75697,15.88408 -26.91833,12.8645 z"
       id="path23506"
       transform="scale(0.26458333)" />
    <path
       style="fill:#eaf7fd;fill-opacity:1;stroke:none;stroke-width:2.09775;stroke-dasharray:6.29325, 2.09775;stroke-opacity:0.389685"
       d="m 347.75299,458.74742 c -2.43133,-0.70425 -5.69529,-1.56558 -7.25325,-1.91407 -2.72288,-0.60908 -2.54154,-0.79953 4.67951,-4.91462 10.75283,-6.12776 21.89822,-14.37151 33.76303,-24.973 5.67769,-5.07315 10.08157,-8.61071 9.78642,-7.86126 -0.29515,0.74945 -1.74108,4.89912 -3.21316,9.22147 -3.11418,9.14386 -4.3866,11.16316 -13.39454,21.25688 -9.45259,10.59196 -13.82268,12.23909 -24.36801,9.1846 z"
       id="path23545"
       transform="scale(0.26458333)" />
    <path
       style="fill:#bee5fa;fill-opacity:1;stroke:none;stroke-width:0.55503;stroke-dasharray:1.66509, 0.55503;stroke-opacity:0.389685"
       d="m 31.491533,131.37839 c -2.912461,-0.39811 -5.649056,-1.48384 -6.771611,-2.6866 -0.55197,-0.59142 -0.60567,-0.83481 -0.478679,-2.16959 0.07877,-0.82796 0.918107,-3.7806 1.868137,-6.57178 1.032864,-3.03454 2.04077,-6.62442 2.511771,-8.94623 1.570093,-7.73981 3.228282,-13.115549 5.515636,-17.88133 5.653437,-11.779139 16.553551,-19.970054 34.194327,-25.695396 4.96975,-1.612945 13.176141,-3.723733 17.136752,-4.407792 15.594644,-2.693442 36.509664,0.930725 57.095094,9.893464 4.3253,1.883201 9.92217,4.711747 12.4171,6.275353 4.20143,2.633094 5.39582,3.101316 8.6034,3.372686 3.18108,0.269129 4.49002,0.551733 5.90944,1.275868 1.26982,0.647814 2.60539,1.797606 2.42573,2.088306 -0.0803,0.129924 -1.2041,0.236223 -2.49734,0.236223 -2.57919,0 -5.04189,0.521883 -6.45506,1.36792 -1.35329,0.810191 -5.16748,4.314785 -5.899,5.42019 -0.35101,0.53041 -1.10762,2.056384 -1.68136,3.391059 -1.18888,2.765655 -1.60979,3.336372 -2.46063,3.336372 -0.76688,0 -1.1931,-0.665049 -2.02824,-3.164798 -0.87221,-2.610731 -0.84329,-3.343127 0.24313,-6.156232 1.0351,-2.680205 1.13171,-3.957156 0.39128,-5.171564 -1.18038,-1.93598 -3.85668,-2.781197 -10.13806,-3.20176 -6.87851,-0.460542 -9.47849,-0.158398 -14.16387,1.645986 -5.59191,2.153502 -11.6612,6.878608 -15.77286,12.279611 -1.6683,2.191443 -4.9599,5.280044 -9.33324,8.757634 -7.456401,5.92918 -13.921445,10.37686 -17.49306,12.03449 -4.023254,1.86725 -4.761042,2.06324 -17.7024,4.7027 -9.496084,1.93677 -16.365794,3.79824 -21.442926,5.81032 -0.786241,0.31159 -3.12547,1.3709 -5.198285,2.35402 -4.149902,1.96826 -5.543952,2.25529 -8.795176,1.81087 z m 49.238035,-20.23701 c 0.414451,-0.12753 1.455317,-0.36921 2.313035,-0.53708 3.245821,-0.63523 6.887726,-2.05927 6.887726,-2.69319 0,-0.47548 -0.545905,-0.9564 -1.085649,-0.9564 -0.611913,0 -1.124167,-0.86267 -1.513811,-2.54936 -0.618935,-2.67925 -2.248421,-3.71198 -5.042072,-3.19554 -0.83548,0.15444 -3.697772,1.15446 -6.360652,2.22224 -5.880354,2.35797 -7.971711,2.9 -9.603724,2.48905 -0.632047,-0.15915 -1.219285,-0.21926 -1.30497,-0.13357 -0.208436,0.20843 0.496559,0.63839 1.054928,0.64337 0.686885,0.006 2.223588,0.77694 4.326205,2.17001 2.607633,1.72768 3.95242,2.27863 6.119791,2.50727 2.704759,0.28532 3.372731,0.29059 4.209193,0.0332 z"
       id="path16644" />
    <path
       style="display:inline;fill:#bee5fa;fill-opacity:1;stroke:none;stroke-width:0.392464;stroke-dasharray:1.1774, 0.392464;stroke-opacity:0.389685"
       d="m 113.80165,119.99023 c -2.69468,-0.52374 -5.12162,-1.5694 -10.35326,-4.46074 -5.100937,-2.81911 -7.006287,-3.44557 -10.455517,-3.43768 l -2.0625,0.005 0.77592,-0.65652 c 2.98611,-2.52657 6.49727,-6.04349 9.551897,-9.56755 0.60221,-0.69476 0.87298,-0.90273 0.87298,-0.67051 0,0.68567 0.60639,1.57555 1.71208,2.5125 l 1.13662,0.96315 2.66492,-0.16039 c 5.19542,-0.3127 8.06792,-0.10799 11.88459,0.84698 2.60461,0.65169 3.57983,0.67346 7.38676,0.16485 3.19397,-0.42672 4.53352,-0.37323 5.95372,0.23773 1.11421,0.47932 2.03803,1.48934 1.87069,2.04525 -0.39016,1.29615 -0.98746,2.09647 -3.77323,5.05571 -1.45795,1.54874 -2.12908,2.08647 -4.30057,3.44574 -2.98522,1.86864 -4.95782,2.83469 -6.89201,3.37525 -1.77996,0.49746 -4.3083,0.62509 -5.97309,0.30152 z"
       id="path23947" />
    <ellipse
       style="fill:#fefefe;fill-opacity:1;stroke:none;stroke-width:0.864282;stroke-dasharray:2.59285, 0.864282;stroke-opacity:0.389685"
       id="path30360"
       cx="79.166313"
       cy="104.39111"
       rx="1.7919245"
       ry="1.6540842" />
    <ellipse
       style="fill:#fefefe;fill-opacity:1;stroke:none;stroke-width:0.46132;stroke-dasharray:1.38396, 0.46132;stroke-opacity:0.389685"
       id="path30360-5"
       cx="78.982521"
       cy="107.33169"
       rx="0.9189356"
       ry="0.91893572" />
    <path
       style="fill:#a4daf8;fill-opacity:1;stroke:none;stroke-width:0.298254;stroke-dasharray:0.894762, 0.298254;stroke-opacity:0.389685"
       id="path38827"
       d="m 63.770603,102.96144 c 0.0635,0.23784 0.215292,0.38333 0.348757,0.53587 0.205218,0.19878 0.436129,0.32828 0.667396,0.44951 0.215798,0.10067 0.434315,0.18988 0.655287,0.26407 0.209529,0.0553 0.418344,0.11831 0.628571,0.16774 0.364398,0.0969 0.736659,0.0951 1.101795,0.014 0.603929,-0.17425 1.162488,-0.58001 1.6915,-1.01987 0.313726,-0.28139 0.633314,-0.55079 0.944508,-0.83794 0.102194,-0.0943 0.196212,-0.20721 0.302317,-0.29218 0.258532,-0.20702 0.536583,-0.35943 0.805029,-0.53866 0.467063,-0.35327 0.960947,-0.61471 1.451319,-0.88967 0.181398,-0.10172 0.358164,-0.22061 0.541679,-0.3142 0.371234,-0.18933 0.865976,-0.37196 1.242748,-0.519797 0.888762,-0.346549 1.781622,-0.680169 2.683551,-0.949968 0.493669,-0.147678 0.848352,-0.21743 1.346398,-0.328558 0.628811,-0.140573 1.256649,-0.289645 1.884752,-0.436503 0.185259,-0.04332 0.369197,-0.09916 0.555378,-0.133428 0.335967,-0.06185 0.740608,-0.08316 1.078378,-0.108585 0.578937,0.01784 1.158014,-0.03659 1.736744,0.0072 0.376904,0.02852 0.482591,0.05879 0.852175,0.128627 0.132537,0.0277 0.264999,0.05613 0.39761,0.08309 0.245174,0.04984 0.468037,0.08423 0.709798,0.158283 0.311098,0.09529 0.61086,0.248688 0.911561,0.394348 0.497853,0.222032 0.981242,0.507095 1.461736,0.796125 0.330719,0.20952 0.661655,0.418096 0.991524,0.630496 0.227744,0.17076 0.462124,0.32063 0.699445,0.46183 0.172944,0.0987 0.335173,0.22862 0.508179,0.32707 0.132946,0.0733 0.272088,0.11656 0.411825,0.15281 0.0101,0.006 0.07042,-0.19858 0.06032,-0.2047 v 0 c -0.130107,-0.0328 -0.259862,-0.0718 -0.382596,-0.14402 -0.166437,-0.10247 -0.323678,-0.23192 -0.475917,-0.37237 -0.216671,-0.17112 -0.427584,-0.35708 -0.644027,-0.528597 -0.291666,-0.298109 -0.602389,-0.556089 -0.911472,-0.814889 -0.452989,-0.384086 -0.920562,-0.727695 -1.399873,-1.03951 -0.655678,-0.39533 -1.334543,-0.721269 -2.019749,-0.993215 -1.053063,-0.320683 -2.127205,-0.559239 -3.206982,-0.492121 -1.241853,0.06307 -2.488015,0.107533 -3.719817,0.360794 -1.418025,0.340224 -2.847235,0.680525 -4.190732,1.444185 -1.086974,0.668394 -2.162206,1.390517 -3.141274,2.351133 -0.126608,0.12981 -0.255576,0.25501 -0.37982,0.38943 -0.11153,0.12066 -0.213338,0.25952 -0.327244,0.37553 -0.10048,0.10233 -0.211498,0.18172 -0.314715,0.27829 -0.303507,0.28398 -0.595618,0.59384 -0.897571,0.88122 -0.463093,0.43268 -0.890491,0.95512 -1.42028,1.21929 -0.142328,0.0552 -0.293501,0.1458 -0.440455,0.17217 -0.141294,0.0253 -0.283045,0.0121 -0.424818,0.0226 -0.208004,-0.004 -0.411275,-0.017 -0.609955,-0.11798 -0.210655,-0.088 -0.42355,-0.16704 -0.627822,-0.28247 -0.220664,-0.11832 -0.435202,-0.24891 -0.644754,-0.40322 -0.154568,-0.10221 -0.294659,-0.23926 -0.443368,-0.35558 -0.0025,-0.005 -0.04962,0.0475 -0.04704,0.0523 z" />
  </g>
</svg>
